<svg width="114" height="75" viewBox="0 0 114 75" fill="none" xmlns="http://www.w3.org/2000/svg">
<path d="M57.3051 85.0599C26.194 85.0599 0.973412 78.5673 0.973412 70.5583C0.973412 62.5492 26.194 56.0566 57.3051 56.0566C88.4162 56.0566 113.637 62.5492 113.637 70.5583C113.637 78.5673 88.4162 85.0599 57.3051 85.0599Z" fill="#F2ECFF"/>
<path opacity="0.1" d="M15.9904 70.5707C15.9904 75.0868 34.4873 78.7373 57.3058 78.7373C80.1243 78.7373 98.6211 75.0667 98.6211 70.5707C98.6211 66.0747 80.1243 62.3916 57.3058 62.3916C34.4873 62.3916 15.9904 66.0546 15.9904 70.5707Z" fill="black"/>
<path d="M36.3697 71.8253C36.3697 73.7747 43.2016 75.3554 51.626 75.3554C54.4987 75.37 57.368 75.1645 60.206 74.7407C62.5135 75.2209 64.8712 75.4482 67.233 75.4181C72.7069 75.4181 77.1445 74.3919 77.1445 73.1249C77.1445 71.8579 72.7016 70.8217 67.2277 70.8217H66.7162C67.6496 70.4705 68.1901 70.0691 68.1901 69.6175C68.1901 68.3504 63.7524 67.3218 58.2759 67.3218C54.9351 67.3218 51.982 67.7057 50.1863 68.2927C42.4369 68.4709 36.3697 69.9838 36.3697 71.8253Z" fill="#5076A7"/>
<path opacity="0.1" d="M36.3697 71.8253C36.3697 73.7747 43.2016 75.3554 51.626 75.3554C54.4987 75.37 57.368 75.1645 60.206 74.7407C62.5135 75.2209 64.8712 75.4482 67.233 75.4181C72.7069 75.4181 77.1445 74.3919 77.1445 73.1249C77.1445 71.8579 72.7016 70.8217 67.2277 70.8217H66.7162C67.6496 70.4705 68.1901 70.0691 68.1901 69.6175C68.1901 68.3504 63.7524 67.3218 58.2759 67.3218C54.9351 67.3218 51.982 67.7057 50.1863 68.2927C42.4369 68.4709 36.3697 69.9838 36.3697 71.8253Z" fill="black"/>
<path opacity="0.5" d="M71.9243 72.6105C72.4306 73.4434 74.1787 73.471 74.4978 73.0621C74.8168 72.6531 74.6929 72.0585 74.0785 71.7524C73.24 71.3359 71.5947 72.0761 71.9243 72.6105Z" fill="white"/>
<path opacity="0.5" d="M39.6265 72.4901C39.5791 71.5267 38.0445 70.7338 37.5593 70.9647C37.0742 71.1955 36.9028 71.77 37.2956 72.312C37.8441 73.0471 39.6582 73.1148 39.6265 72.4901Z" fill="white"/>
<path opacity="0.5" d="M75.369 73.2628C75.5509 73.6191 76.2945 73.4585 76.4448 73.2277C76.4979 73.0919 76.4976 72.9423 76.4438 72.8067C76.3899 72.6711 76.2863 72.5586 76.1521 72.4901C75.8119 72.3697 75.2345 73.032 75.369 73.2628Z" fill="white"/>
<path opacity="0.5" d="M67.712 69.8182C67.9756 69.5171 67.5353 68.9325 67.2532 68.8899C67.1012 68.8972 66.9571 68.9566 66.8476 69.0572C66.738 69.1577 66.6704 69.2926 66.6573 69.4368C66.6731 69.7881 67.5379 70.0189 67.712 69.8182Z" fill="white"/>
<path d="M98.5918 32.4199L93.93 61.24C93.93 61.24 26.11 73.5513 14.4107 73.8825C12.3277 73.9402 12.0798 70.4854 14.0126 69.8255V50.296C14.0126 50.296 10.1471 51.4276 9.25323 49.2573C9.17413 49.0641 9.22951 48.1007 9.74895 47.4333C15.0488 40.6442 48.6042 12.3635 48.6042 12.3635L98.5918 32.4199Z" fill="#5076A7"/>
<path d="M90.1318 32.4687C86.6421 29.1481 86.6421 23.7645 90.1318 20.4439C93.6216 17.1234 99.2795 17.1234 102.769 20.4439C106.259 23.7645 106.259 29.1481 102.769 32.4687C99.2795 35.7892 93.6216 35.7892 90.1318 32.4687Z" fill="#5076A7"/>
<path d="M76.8385 23.3736C76.1969 18.7246 79.6376 14.4609 84.5234 13.8505C89.4092 13.24 93.8901 16.5138 94.5317 21.1628C95.1733 25.8118 91.7326 30.0755 86.8468 30.6859C81.9609 31.2964 77.48 28.0225 76.8385 23.3736Z" fill="#5076A7"/>
<path d="M65.8981 19.1039C65.2557 14.4479 68.7016 10.1779 73.5948 9.56663C78.488 8.95531 82.9755 12.2342 83.618 16.8901C84.2604 21.5461 80.8145 25.8161 75.9213 26.4274C71.0281 27.0388 66.5406 23.7599 65.8981 19.1039Z" fill="#5076A7"/>
<path d="M55.0524 14.873C54.4099 10.217 57.8558 5.94699 62.7491 5.33567C67.6423 4.72435 72.1298 8.00321 72.7723 12.6592C73.4147 17.3152 69.9688 21.5852 65.0756 22.1965C60.1824 22.8078 55.6949 19.529 55.0524 14.873Z" fill="#5076A7"/>
<path d="M44.2028 10.6442C43.5603 5.98823 47.0062 1.71823 51.8994 1.10691C56.7926 0.495593 61.2802 3.77445 61.9227 8.43043C62.5651 13.0864 59.1192 17.3564 54.226 17.9677C49.3328 18.579 44.8453 15.3002 44.2028 10.6442Z" fill="#5076A7"/>
<g opacity="0.5">
<path d="M98.5918 32.4199L93.93 61.24C93.93 61.24 26.11 73.5513 14.4107 73.8825C12.3277 73.9402 12.0798 70.4854 14.0126 69.8255V50.296C14.0126 50.296 10.1471 51.4276 9.25323 49.2573C9.17413 49.0641 9.22951 48.1007 9.74895 47.4333C15.0488 40.6442 48.6042 12.3635 48.6042 12.3635L98.5918 32.4199Z" fill="white"/>
<path d="M90.1318 32.4687C86.6421 29.1481 86.6421 23.7645 90.1318 20.4439C93.6216 17.1234 99.2795 17.1234 102.769 20.4439C106.259 23.7645 106.259 29.1481 102.769 32.4687C99.2795 35.7892 93.6216 35.7892 90.1318 32.4687Z" fill="white"/>
<path d="M76.8385 23.3736C76.1969 18.7246 79.6376 14.4609 84.5234 13.8505C89.4092 13.24 93.8901 16.5138 94.5317 21.1628C95.1733 25.8118 91.7326 30.0755 86.8468 30.6859C81.9609 31.2964 77.48 28.0225 76.8385 23.3736Z" fill="white"/>
<path d="M65.8981 19.1039C65.2557 14.4479 68.7016 10.1779 73.5948 9.56663C78.488 8.95531 82.9755 12.2342 83.618 16.8901C84.2604 21.5461 80.8145 25.8161 75.9213 26.4274C71.0281 27.0388 66.5406 23.7599 65.8981 19.1039Z" fill="white"/>
<path d="M55.0524 14.873C54.4099 10.217 57.8558 5.94699 62.7491 5.33567C67.6423 4.72435 72.1298 8.00321 72.7723 12.6592C73.4147 17.3152 69.9688 21.5852 65.0756 22.1965C60.1824 22.8078 55.6949 19.529 55.0524 14.873Z" fill="white"/>
<path d="M44.2028 10.6442C43.5603 5.98823 47.0062 1.71823 51.8994 1.10691C56.7926 0.495593 61.2802 3.77445 61.9227 8.43043C62.5651 13.0864 59.1192 17.3564 54.226 17.9677C49.3328 18.579 44.8453 15.3002 44.2028 10.6442Z" fill="white"/>
</g>
<path opacity="0.5" d="M10.9223 50.4993C12.3277 50.7903 14.0152 50.2986 14.0152 50.2986V69.818C12.0798 70.4779 12.3303 73.9327 14.4107 73.875C26.1127 73.5438 93.93 61.2325 93.93 61.2325L98.2068 34.7959C100.232 34.4092 102.054 33.3671 103.363 31.8467C104.672 30.3264 105.387 28.4216 105.387 26.4562C104.306 21.7168 98.8423 19.7072 94.5286 21.8498C93.4847 22.373 92.5655 23.0956 91.8285 23.9724C90.5391 25.4777 90.3519 27.5175 90.7738 29.1558C90.7738 29.206 90.8002 29.2587 90.816 29.3064C90.9993 29.9972 91.3416 30.6408 91.818 31.1906L89.6005 31.9207C85.0125 33.426 74.7977 36.7955 73.5716 37.0891C71.9896 37.4654 46.9219 41.3843 45.4348 41.7607C43.9477 42.137 22.5108 46.899 21.8174 46.9918C21.1239 47.0846 12.1141 48.4394 11.0594 49.1018C10.0047 49.7642 10.8564 50.4391 10.9223 50.4993Z" fill="#5076A7"/>
<path d="M97.842 25.6608C100.742 26.1626 99.9514 29.3791 97.7286 30.2296C94.583 31.4414 90.6859 30.8367 87.5455 29.8106C84.239 28.7092 81.1329 26.6794 79.5983 23.5859C80.2206 25.844 81.9213 27.7533 83.9305 29.0629C87.498 31.336 92.0728 32.4149 96.3232 31.5543C97.5572 31.2783 98.8361 30.7364 99.5849 29.7052C100.339 28.7142 100.534 27.1712 99.5638 26.2554C99.3368 26.0483 99.0676 25.8878 98.7728 25.7838C98.6198 25.7511 98.4696 25.711 98.3193 25.6884L97.8657 25.6608H97.842Z" fill="#5076A7"/>
<path d="M56.7549 14.2352C57.3403 18.1341 61.1688 20.9165 65.1292 21.3957C66.6647 21.5978 68.2259 21.5357 69.7383 21.2126C68.4095 21.1093 67.0886 20.9283 65.7831 20.6706C61.9229 19.9556 58.4662 17.6725 56.7628 14.2302L56.7549 14.2352Z" fill="#5076A7"/>
<path d="M68.4988 18.3699C68.8337 22.2838 72.4856 25.297 76.4091 26.002C77.9297 26.2921 79.4927 26.3193 81.0234 26.0823C79.6941 25.9047 78.3777 25.6492 77.0815 25.3171C73.274 24.3788 69.9622 21.905 68.4857 18.3699H68.4988Z" fill="#5076A7"/>
<path d="M45.8373 14.5413C48.7562 17.3989 54.0983 18.1968 57.4707 15.6176C53.4312 16.7817 49.6343 16.1194 45.8373 14.5413Z" fill="#5076A7"/>
<path d="M29.4277 45.3484C26.4694 45.5486 23.5283 45.935 20.6236 46.505C17.7232 47.0846 14.8228 47.6892 12.0542 48.763C17.942 48.1408 23.8062 47.1724 29.4277 45.3559V45.3484Z" fill="#5076A7"/>
<path d="M45.2207 41.8786C43.8762 41.8078 42.5281 41.9279 41.2207 42.2349C39.8986 42.4962 38.6256 42.9462 37.4449 43.5696C38.7889 43.6463 40.1374 43.5295 41.4449 43.2234C42.7663 42.9598 44.0389 42.5099 45.2207 41.8886V41.8786Z" fill="#5076A7"/>
<path d="M67.1797 38.1628C64.0112 38.3203 60.8566 38.6698 57.7348 39.2091C54.6074 39.6935 51.516 40.3689 48.4798 41.2313C51.6472 41.0792 54.8011 40.7339 57.922 40.1976C61.0498 39.7105 64.1419 39.0351 67.1797 38.1754V38.1628Z" fill="#5076A7"/>
<path d="M91.2441 31.3838C84.7867 32.8716 78.6404 35.2174 72.3834 37.3124C75.7084 37.0615 78.9226 36.0579 82.0709 35.0719C85.2195 34.0582 88.2855 32.8255 91.2441 31.3838Z" fill="#5076A7"/>
<path d="M67.1797 30.5157C67.1797 30.5157 61.9062 34.4447 56.7434 35.4508C52.3822 36.2988 44.8965 34.8386 44.8965 34.8386C44.8965 34.8386 50.6261 30.3225 55.1086 29.2813C59.3433 28.2978 67.1797 30.5157 67.1797 30.5157Z" fill="#5076A7"/>
<path opacity="0.2" d="M67.1797 30.5157C67.1797 30.5157 61.9062 34.4447 56.7434 35.4508C52.3822 36.2988 44.8965 34.8386 44.8965 34.8386C44.8965 34.8386 50.6261 30.3225 55.1086 29.2813C59.3433 28.2978 67.1797 30.5157 67.1797 30.5157Z" fill="white"/>
<path d="M48.3112 35.3629C50.8504 35.6766 54.2914 35.9249 56.7488 35.4482C59.6176 34.8938 62.5259 33.4411 64.5352 32.2393C62.4732 31.9081 58.526 31.4089 56.1503 31.9583C53.6295 32.5429 50.1174 34.3619 48.3112 35.3629Z" fill="#5076A7"/>
<path d="M47.625 20.2065C47.625 20.2065 47.2664 24.9735 45.2757 28.062C43.5908 30.6713 39.016 33.5214 39.016 33.5214C39.016 33.5214 39.2638 28.2 40.896 25.4276C42.4411 22.8083 47.625 20.2065 47.625 20.2065Z" fill="#5076A7"/>
<path opacity="0.2" d="M47.625 20.2065C47.625 20.2065 47.2664 24.9735 45.2757 28.062C43.5908 30.6713 39.016 33.5214 39.016 33.5214C39.016 33.5214 39.2638 28.2 40.896 25.4276C42.4411 22.8083 47.625 20.2065 47.625 20.2065Z" fill="white"/>
<path d="M41.022 32.1415C42.4696 31.0727 44.3285 29.5272 45.2751 28.062C46.3851 26.3484 46.989 24.1105 47.3027 22.4646C46.0846 23.29 43.8275 24.9434 42.96 26.4137C42.045 27.9692 41.3463 30.7014 41.022 32.1415Z" fill="#5076A7"/>
<path opacity="0.5" d="M47.7735 5.97345C49.6931 8.50747 55.3436 8.05335 56.2349 6.6333C57.0681 5.31109 56.5196 3.33907 54.4287 2.53872C51.581 1.44985 46.5263 4.33512 47.7735 5.97345Z" fill="white"/>
<path opacity="0.5" d="M61.5037 9.35279C62.2156 10.4417 64.5571 9.69401 64.9684 8.9037C65.3534 8.16607 64.6045 6.81627 63.7687 6.61053C62.6296 6.31699 61.0396 8.63273 61.5037 9.35279Z" fill="white"/>
<g opacity="0.5">
<path d="M64.4805 33.7148C61.9307 34.608 59.4364 35.6592 56.7653 36.1284C55.6684 36.2639 54.5452 36.2865 53.4404 36.3517C52.1563 36.4119 50.8669 36.4696 49.5696 36.5624C51.4929 36.8673 53.4423 36.9975 55.3916 36.9513C56.0576 36.9481 56.7221 36.8885 57.377 36.7732C59.9266 36.1859 62.3367 35.1457 64.4805 33.7073V33.7148Z" fill="white"/>
<path d="M46.6211 27.49C44.4642 30.7767 42.8637 32.2319 39.1643 33.8878C42.7292 33.3985 46.0489 31.0125 46.6211 27.49Z" fill="white"/>
</g>
<g opacity="0.5">
<path d="M15.3225 45.938C14.0832 45.938 14.0806 44.104 15.3225 44.104C16.5644 44.104 16.5644 45.938 15.3225 45.938Z" fill="#5076A7"/>
<path d="M53.3734 42.8822C53.3286 42.9767 53.2784 43.0688 53.2231 43.1581C53.1841 43.2194 53.1291 43.2701 53.0636 43.3053C52.998 43.3404 52.924 43.3589 52.8487 43.3589C52.7734 43.3589 52.6994 43.3404 52.6338 43.3053C52.5682 43.2701 52.5132 43.2194 52.4742 43.1581C52.4188 43.0693 52.3695 42.9771 52.3266 42.8822C51.7676 41.7958 53.9192 41.7958 53.3734 42.8822Z" fill="#5076A7"/>
<path d="M88.0734 60.2842C88.0305 60.3792 87.9812 60.4714 87.9257 60.5602C87.8862 60.6209 87.8311 60.671 87.7656 60.7057C87.7001 60.7404 87.6263 60.7587 87.5513 60.7587C87.4763 60.7587 87.4025 60.7404 87.337 60.7057C87.2715 60.671 87.2164 60.6209 87.1769 60.5602C87.1216 60.4709 87.0714 60.3787 87.0266 60.2842C86.4808 59.1878 88.6218 59.1878 88.0734 60.2842Z" fill="#5076A7"/>
<path d="M94.1211 35.4932C93.1718 35.4932 93.1692 34.0933 94.1211 34.0933C95.0729 34.0933 95.0703 35.4932 94.1211 35.4932Z" fill="#5076A7"/>
<path d="M46.7569 19.0424C45.8103 19.0424 45.8076 17.6399 46.7569 17.6399C47.7061 17.6399 47.6956 19.0424 46.7569 19.0424Z" fill="#5076A7"/>
<path d="M72.4736 28.0043C71.527 28.0043 71.5244 26.6018 72.4736 26.6018C73.4229 26.6018 73.4229 28.0043 72.4736 28.0043Z" fill="#5076A7"/>
<path d="M65.831 18.3974C64.8818 18.3974 64.8818 16.9949 65.831 16.9949C66.7803 16.9949 66.7803 18.3974 65.831 18.3974Z" fill="#5076A7"/>
<path d="M17.29 70.789C16.3408 70.789 16.3408 69.3865 17.29 69.3865C18.2393 69.3865 18.2393 70.789 17.29 70.789Z" fill="#5076A7"/>
<path d="M26.4541 39.4599C25.5049 39.4599 25.5049 38.0574 26.4541 38.0574C27.4033 38.0574 27.3981 39.4599 26.4541 39.4599Z" fill="#5076A7"/>
<path d="M42.5771 35.8822C41.6279 35.8822 41.6279 34.4797 42.5771 34.4797C43.5264 34.4797 43.5264 35.8822 42.5771 35.8822Z" fill="#5076A7"/>
<path d="M27.5542 35.6965C27.3623 35.8764 27.1037 35.9772 26.8343 35.9772C26.5649 35.9772 26.3064 35.8764 26.1145 35.6965C25.9379 35.5251 25.8124 35.3121 25.7508 35.0793C25.6892 34.8466 25.6937 34.6024 25.7638 34.3718C25.9589 33.3682 27.7097 33.3682 27.9048 34.3718C27.9749 34.6024 27.9794 34.8466 27.9178 35.0793C27.8562 35.3121 27.7307 35.5251 27.5542 35.6965Z" fill="#5076A7"/>
<path d="M89.3491 17.5972C89.1572 17.7771 88.8986 17.8779 88.6292 17.8779C88.3599 17.8779 88.1013 17.7771 87.9094 17.5972C87.7326 17.4259 87.607 17.2129 87.5453 16.98C87.4837 16.7472 87.4883 16.503 87.5587 16.2725C87.7538 15.2689 89.5046 15.2689 89.6998 16.2725C89.7699 16.503 89.7743 16.7472 89.7127 16.9799C89.6511 17.2127 89.5256 17.4257 89.3491 17.5972Z" fill="#5076A7"/>
<path d="M91.5348 58.9995C91.3433 59.18 91.0846 59.2812 90.815 59.2812C90.5454 59.2812 90.2867 59.18 90.0952 58.9995C89.917 58.829 89.7899 58.6163 89.7269 58.3835C89.6638 58.1506 89.6672 57.906 89.7366 57.6748C89.9317 56.6712 91.6825 56.6712 91.8776 57.6748C91.9487 57.9047 91.9545 58.1485 91.8943 58.3812C91.834 58.6139 91.71 58.8273 91.5348 58.9995Z" fill="#5076A7"/>
<path d="M79.1707 30.7866C78.9788 30.9665 78.7202 31.0673 78.4508 31.0673C78.1815 31.0673 77.9229 30.9665 77.731 30.7866C77.5542 30.6153 77.4286 30.4023 77.3669 30.1695C77.3053 29.9367 77.3099 29.6925 77.3803 29.4619C77.5754 28.4583 79.3263 28.4583 79.5214 29.4619C79.592 29.6924 79.5968 29.9367 79.5352 30.1696C79.4735 30.4025 79.3477 30.6155 79.1707 30.7866Z" fill="#5076A7"/>
<path d="M42.8308 67.8687C42.6389 68.0485 42.3804 68.1494 42.111 68.1494C41.8416 68.1494 41.5831 68.0485 41.3912 67.8687C41.2144 67.6973 41.0887 67.4843 41.0271 67.2515C40.9655 67.0187 40.9701 66.7745 41.0405 66.5439C41.2356 65.5404 42.9864 65.5404 43.1815 66.5439C43.2522 66.7745 43.257 67.0188 43.1953 67.2516C43.1337 67.4845 43.0078 67.6975 42.8308 67.8687Z" fill="#5076A7"/>
</g>
<path d="M14.0121 50.296L92.3105 37.6208L89.534 57.622L14.0121 69.8255V50.296Z" fill="#5076A7"/>
<path d="M46.2155 64.622C46.7191 64.5994 47.5128 64.9331 47.555 65.2818C47.6235 65.8689 46.6084 65.9918 46.6268 66.9151C46.6506 68.0416 44.4357 68.7516 43.5866 69.0301C42.7376 69.3086 37.0897 70.523 36.7891 70.9996L55.6445 67.9588L53.3796 63.4653L46.2155 64.622Z" fill="#5076A7"/>
<g opacity="0.1">
<path d="M14.0121 50.296L92.3105 37.6208L89.534 57.622L14.0121 69.8255V50.296Z" fill="black"/>
<path d="M46.2155 64.622C46.7191 64.5994 47.5128 64.9331 47.555 65.2818C47.6235 65.8689 46.6084 65.9918 46.6268 66.9151C46.6506 68.0416 44.4357 68.7516 43.5866 69.0301C42.7376 69.3086 37.0897 70.523 36.7891 70.9996L55.6445 67.9588L53.3796 63.4653L46.2155 64.622Z" fill="black"/>
</g>
<g opacity="0.05">
<path d="M69.7668 58.0262C68.5275 58.0262 68.5249 56.1897 69.7668 56.1897C71.0087 56.1897 71.0166 58.0262 69.7668 58.0262Z" fill="black"/>
<path d="M62.8808 56.9674C62.8365 57.0621 62.7864 57.1543 62.7305 57.2433C62.6915 57.3046 62.6366 57.3553 62.571 57.3905C62.5054 57.4256 62.4314 57.4441 62.3561 57.4441C62.2808 57.4441 62.2068 57.4256 62.1412 57.3905C62.0756 57.3553 62.0207 57.3046 61.9817 57.2433C61.9257 57.1548 61.8764 57.0626 61.834 56.9674C61.2856 55.881 63.4266 55.881 62.8808 56.9674Z" fill="black"/>
<path d="M87.958 56.689C87.0114 56.689 87.0088 55.2891 87.958 55.2891C88.9072 55.2891 88.9072 56.689 87.958 56.689Z" fill="black"/>
<path d="M19.7998 67.4875C18.8506 67.4875 18.8506 66.085 19.7998 66.085C20.749 66.085 20.749 67.4875 19.7998 67.4875Z" fill="black"/>
<path d="M41.8672 62.6276C40.9206 62.6276 40.918 61.2251 41.8672 61.2251C42.8165 61.2251 42.8033 62.6276 41.8672 62.6276Z" fill="black"/>
<path d="M17.292 65.7562C16.3428 65.7562 16.3428 64.3562 17.292 64.3562C18.2412 64.3562 18.2412 65.7562 17.292 65.7562Z" fill="black"/>
<path d="M81.9795 42.0895C81.0329 42.0895 81.0303 40.687 81.9795 40.687C82.9287 40.687 82.9287 42.0895 81.9795 42.0895Z" fill="black"/>
<path d="M46.8975 63.1795C45.9509 63.1795 45.9482 61.7795 46.8975 61.7795C47.8467 61.7795 47.8467 63.1795 46.8975 63.1795Z" fill="black"/>
<path d="M29.5674 52.1754C28.6181 52.1754 28.6181 50.7754 29.5674 50.7754C30.5166 50.7754 30.5166 52.1754 29.5674 52.1754Z" fill="black"/>
<path d="M54.0908 47.3632C53.1442 47.3632 53.1416 45.9607 54.0908 45.9607C55.04 45.9607 55.04 47.3632 54.0908 47.3632Z" fill="black"/>
<path d="M39.0707 63.7542C38.8788 63.934 38.6203 64.0349 38.3509 64.0349C38.0815 64.0349 37.823 63.934 37.6311 63.7542C37.4538 63.5831 37.3278 63.3701 37.2662 63.1372C37.2045 62.9043 37.2094 62.6599 37.2804 62.4294C37.4755 61.4259 39.2263 61.4259 39.4214 62.4294C39.4907 62.6601 39.4948 62.904 39.4332 63.1366C39.3716 63.3693 39.2466 63.5823 39.0707 63.7542Z" fill="black"/>
<path d="M88.6824 44.8718C88.4905 45.0517 88.2319 45.1525 87.9626 45.1525C87.6932 45.1525 87.4346 45.0517 87.2427 44.8718C87.066 44.7005 86.9403 44.4875 86.8787 44.2547C86.817 44.0219 86.8217 43.7777 86.892 43.5471C87.0872 42.5435 88.838 42.5435 89.0331 43.5471C89.1038 43.7776 89.1085 44.0219 89.0469 44.2548C88.9852 44.4877 88.8594 44.7007 88.6824 44.8718Z" fill="black"/>
</g>
<path d="M11.5659 57.439C11.9079 58.312 12.4066 59.1219 13.0398 59.8325C13.3403 60.1692 13.6645 60.4861 14.0102 60.7809C16.0747 62.5371 18.6799 63.1694 21.728 62.1081C25.277 60.8762 26.8116 58.2594 26.8301 55.0379V54.9827C26.8301 54.8598 26.8301 54.7318 26.8301 54.6114C26.8301 54.491 26.8169 54.3906 26.8037 54.2802C26.8062 54.2435 26.8062 54.2066 26.8037 54.1698C26.8037 54.1113 26.7958 54.0536 26.78 53.9967C26.7751 53.9336 26.7663 53.8707 26.7536 53.8086C26.7246 53.6078 26.6824 53.4071 26.635 53.2114L26.5875 53.0283C26.569 52.953 26.5479 52.8777 26.5242 52.805C26.5242 52.7824 26.511 52.7573 26.5031 52.7347C26.482 52.662 26.4583 52.5892 26.4293 52.5165C26.4003 52.4437 26.3845 52.376 26.3555 52.3057L26.2922 52.1426C26.2854 52.1213 26.2775 52.1004 26.2684 52.0799L26.2236 51.9821V51.952C26.2226 51.9436 26.2226 51.9352 26.2236 51.9269C26.2182 51.912 26.2111 51.8977 26.2025 51.8842L26.1841 51.839C26.1472 51.7563 26.1102 51.6785 26.0707 51.5882L26.047 51.538C26.01 51.4677 25.9758 51.4 25.9362 51.3297C25.9204 51.2996 25.9046 51.267 25.8861 51.2369C25.8677 51.2068 25.8413 51.1566 25.8176 51.1165C25.8115 51.1042 25.8045 51.0925 25.7965 51.0814C25.7569 51.0111 25.7121 50.9383 25.6673 50.8706L25.6356 50.8204L25.5961 50.7602C25.5644 50.71 25.5328 50.6624 25.4959 50.6147C25.4819 50.5902 25.4661 50.5667 25.4484 50.5444C25.4422 50.5333 25.4342 50.5231 25.4247 50.5143L25.4036 50.4817L25.3904 50.4641L25.3746 50.4466C25.3746 50.4466 25.3746 50.4466 25.3746 50.4315V50.4165L25.3482 50.3814C25.3166 50.3387 25.2823 50.2935 25.248 50.2534C25.2355 50.234 25.2214 50.2155 25.2058 50.1982V50.1831L25.1663 50.1355L25.1267 50.0903C25.1062 50.0633 25.0842 50.0373 25.0608 50.0125L25.0476 49.995L25.0081 49.9473L24.9791 49.9147L24.958 49.8921C24.9418 49.8725 24.9242 49.8541 24.9052 49.8369C24.8868 49.8194 24.871 49.7993 24.8525 49.7792C24.8341 49.7591 24.8024 49.7265 24.776 49.6989L24.7259 49.6513L24.6152 49.5434C24.5493 49.4807 24.4807 49.4179 24.4122 49.3602C24.1662 49.1476 23.9016 48.9554 23.6211 48.7857C23.6142 48.7843 23.607 48.7843 23.6001 48.7857L22.8881 48.9011L21.9758 49.0466C21.8226 49.0396 21.6696 49.0644 21.5276 49.1194L20.1169 49.3477L19.1466 49.5057L17.8071 49.7215L14.643 50.2233L14.0972 50.3111V50.5796C13.9003 50.7311 13.7232 50.9047 13.5698 51.0964C13.5359 51.1366 13.5042 51.1784 13.4749 51.2219L13.3905 51.2545H13.4538C13.4356 51.2769 13.4189 51.3003 13.4037 51.3247C13.0215 51.5541 12.6806 51.8404 12.3938 52.1727C11.1414 53.5351 10.9357 55.5598 11.5659 57.439Z" fill="#5076A7"/>
<path opacity="0.1" d="M11.5659 57.439C11.9079 58.312 12.4066 59.1219 13.0398 59.8325C13.3403 60.1692 13.6645 60.4861 14.0102 60.7809C16.0747 62.5371 18.6799 63.1694 21.728 62.1081C25.277 60.8762 26.8116 58.2594 26.8301 55.0379V54.9827C26.8301 54.8598 26.8301 54.7318 26.8301 54.6114C26.8301 54.491 26.8169 54.3906 26.8037 54.2802C26.8062 54.2435 26.8062 54.2066 26.8037 54.1698C26.8037 54.1113 26.7958 54.0536 26.78 53.9967C26.7751 53.9336 26.7663 53.8707 26.7536 53.8086C26.7246 53.6078 26.6824 53.4071 26.635 53.2114L26.5875 53.0283C26.569 52.953 26.5479 52.8777 26.5242 52.805C26.5242 52.7824 26.511 52.7573 26.5031 52.7347C26.482 52.662 26.4583 52.5892 26.4293 52.5165C26.4003 52.4437 26.3845 52.376 26.3555 52.3057L26.2922 52.1426C26.2854 52.1213 26.2775 52.1004 26.2684 52.0799L26.2236 51.9821V51.952C26.2226 51.9436 26.2226 51.9352 26.2236 51.9269C26.2182 51.912 26.2111 51.8977 26.2025 51.8842L26.1841 51.839C26.1472 51.7563 26.1102 51.6785 26.0707 51.5882L26.047 51.538C26.01 51.4677 25.9758 51.4 25.9362 51.3297C25.9204 51.2996 25.9046 51.267 25.8861 51.2369C25.8677 51.2068 25.8413 51.1566 25.8176 51.1165C25.8115 51.1042 25.8045 51.0925 25.7965 51.0814C25.7569 51.0111 25.7121 50.9383 25.6673 50.8706L25.6356 50.8204L25.5961 50.7602C25.5644 50.71 25.5328 50.6624 25.4959 50.6147C25.4819 50.5902 25.4661 50.5667 25.4484 50.5444C25.4422 50.5333 25.4342 50.5231 25.4247 50.5143L25.4036 50.4817L25.3904 50.4641L25.3746 50.4466C25.3746 50.4466 25.3746 50.4466 25.3746 50.4315V50.4165L25.3482 50.3814C25.3166 50.3387 25.2823 50.2935 25.248 50.2534C25.2355 50.234 25.2214 50.2155 25.2058 50.1982V50.1831L25.1663 50.1355L25.1267 50.0903C25.1062 50.0633 25.0842 50.0373 25.0608 50.0125L25.0476 49.995L25.0081 49.9473L24.9791 49.9147L24.958 49.8921C24.9418 49.8725 24.9242 49.8541 24.9052 49.8369C24.8868 49.8194 24.871 49.7993 24.8525 49.7792C24.8341 49.7591 24.8024 49.7265 24.776 49.6989L24.7259 49.6513L24.6152 49.5434C24.5493 49.4807 24.4807 49.4179 24.4122 49.3602C24.1662 49.1476 23.9016 48.9554 23.6211 48.7857C23.6142 48.7843 23.607 48.7843 23.6001 48.7857L22.8881 48.9011L21.9758 49.0466C21.8226 49.0396 21.6696 49.0644 21.5276 49.1194L20.1169 49.3477L19.1466 49.5057L17.8071 49.7215L14.643 50.2233L14.0972 50.3111V50.5796C13.9003 50.7311 13.7232 50.9047 13.5698 51.0964C13.5359 51.1366 13.5042 51.1784 13.4749 51.2219L13.3905 51.2545H13.4538C13.4356 51.2769 13.4189 51.3003 13.4037 51.3247C13.0215 51.5541 12.6806 51.8404 12.3938 52.1727C11.1414 53.5351 10.9357 55.5598 11.5659 57.439Z" fill="black"/>
<path opacity="0.05" d="M14.5586 50.2083L14.0128 50.2961V50.5645C14.1834 50.4308 14.3661 50.3116 14.5586 50.2083Z" fill="black"/>
<path opacity="0.05" d="M13.3614 51.2348C13.3676 51.2249 13.3748 51.2155 13.3828 51.2068L13.2971 51.2399L13.3614 51.2348Z" fill="black"/>
<path opacity="0.05" d="M11.5659 57.439C11.9079 58.3121 12.4066 59.1219 13.0398 59.8326C13.3403 60.1693 13.6645 60.4861 14.0102 60.7809C16.0747 62.5372 18.6799 63.1694 21.728 62.1082C25.277 60.8763 26.8116 58.2595 26.8301 55.038V54.9828C26.8301 54.8599 26.8301 54.7319 26.8301 54.6115C26.8301 54.491 26.8169 54.3907 26.8037 54.2803C26.8062 54.2435 26.8062 54.2067 26.8037 54.1699C26.8037 54.1114 26.7958 54.0537 26.78 53.9968C26.7751 53.9336 26.7663 53.8708 26.7536 53.8086C26.7246 53.6079 26.6824 53.4072 26.635 53.2115L26.5875 53.0283C26.569 52.9531 26.5479 52.8778 26.5242 52.805C26.5242 52.7825 26.511 52.7574 26.5031 52.7348C26.482 52.662 26.4583 52.5893 26.4293 52.5165C26.4003 52.4438 26.3845 52.376 26.3555 52.3058L26.2922 52.1427C26.2854 52.1214 26.2775 52.1005 26.2684 52.08L26.2131 51.952C26.212 51.9437 26.212 51.9353 26.2131 51.9269C26.2076 51.912 26.2006 51.8977 26.192 51.8843L26.1735 51.8391C26.1366 51.7563 26.0997 51.6785 26.0601 51.5882L26.0364 51.538C25.9995 51.4678 25.9652 51.4 25.9257 51.3298C25.9098 51.2997 25.894 51.2671 25.8756 51.237C25.8571 51.2069 25.8307 51.1567 25.807 51.1165C25.801 51.1043 25.7939 51.0926 25.7859 51.0814C25.7464 51.0112 25.7015 50.9384 25.6567 50.8707L25.6251 50.8205L25.5855 50.7603C25.5539 50.7101 25.5222 50.6624 25.4853 50.6147C25.4714 50.5902 25.4555 50.5667 25.4379 50.5445C25.4317 50.5333 25.4237 50.5232 25.4141 50.5144V50.5018L25.401 50.4843L25.3851 50.4667C25.3719 50.4441 25.3561 50.4241 25.3403 50.4015C25.3245 50.3789 25.2744 50.3137 25.2401 50.2735C25.2276 50.2541 25.2135 50.2357 25.1979 50.2183C25.1798 50.1918 25.1596 50.1666 25.1373 50.1431L25.1109 50.1105L25.0714 50.0678L25.045 50.0327L25.0318 50.0151L24.987 49.9649L24.958 49.9323L24.9369 49.9097C24.9207 49.8902 24.9031 49.8717 24.8842 49.8545C24.8657 49.837 24.8499 49.8169 24.8314 49.7968C24.813 49.7768 24.7813 49.7442 24.7549 49.7166C24.7617 49.7245 24.7679 49.7329 24.7734 49.7416C25.0932 50.1076 25.3675 50.5075 25.5908 50.9334C26.1175 51.9248 26.3887 53.0214 26.3818 54.1323C26.366 56.9373 25.0265 59.2154 21.9389 60.2892C18.8513 61.363 16.2831 60.4422 14.3714 58.3096C14.2659 58.1942 14.1684 58.0738 14.0735 57.9509C13.6742 57.44 13.3504 56.8794 13.111 56.2849C12.5818 55.1014 12.4536 53.7902 12.7445 52.5341C12.8604 52.0976 13.051 51.6822 13.3088 51.3047C12.9266 51.5341 12.5856 51.8204 12.2989 52.1527C11.1414 53.5351 10.9357 55.5599 11.5659 57.439Z" fill="black"/>
<path opacity="0.3" d="M23.5047 48.7607L22.7928 48.8761C23.9017 49.267 24.8548 49.9775 25.5192 50.9083C25.846 51.3439 26.1193 51.8136 26.334 52.3083C26.2918 52.1979 26.2496 52.09 26.2021 51.9846V51.9545C26.2011 51.9462 26.2011 51.9378 26.2021 51.9295C26.1967 51.9146 26.1896 51.9003 26.181 51.8868L26.1626 51.8416C26.1257 51.7588 26.0888 51.6811 26.0492 51.5907L26.0255 51.5406C25.9886 51.4703 25.9543 51.4026 25.9147 51.3323C25.8989 51.3022 25.8831 51.2696 25.8646 51.2395C25.8462 51.2094 25.8198 51.1592 25.7961 51.1191C25.7901 51.1068 25.783 51.0951 25.775 51.0839C25.7354 51.0137 25.6906 50.9409 25.6458 50.8732L25.6141 50.823L25.5746 50.7628C25.543 50.7126 25.5113 50.6649 25.4744 50.6173C25.4605 50.5928 25.4446 50.5693 25.4269 50.547L25.3927 50.4968C25.3795 50.4743 25.361 50.4542 25.3452 50.4316C25.3294 50.409 25.2635 50.3212 25.2186 50.2685C25.2061 50.2491 25.192 50.2307 25.1764 50.2133C25.1697 50.2054 25.1635 50.197 25.158 50.1883L25.1184 50.1406L25.0393 50.0528C25.0109 50.0143 24.98 49.9774 24.947 49.9424L24.918 49.9098L24.8969 49.8872C24.8808 49.8676 24.8632 49.8492 24.8442 49.832C24.8094 49.7925 24.7725 49.7548 24.7335 49.7191C24.7109 49.6899 24.6853 49.6631 24.657 49.6388L24.5463 49.5309C24.4803 49.4682 24.4118 49.4055 24.3432 49.3478C24.0973 49.1351 23.8326 48.9429 23.5522 48.7732L23.5338 48.7607L23.4599 48.718L23.5047 48.7607Z" fill="white"/>
<path opacity="0.3" d="M13.299 51.252H13.3622C13.344 51.2744 13.3273 51.2979 13.3121 51.3222C13.3543 51.2946 13.3992 51.2695 13.444 51.2444C13.5224 51.1962 13.6034 51.1519 13.6866 51.1115C13.792 51.0538 13.9028 51.0011 14.0135 50.9509C15.1341 50.4491 16.3708 50.1982 17.1091 49.9473C17.291 49.8846 17.494 49.8018 17.7129 49.709L14.5488 50.2108L14.003 50.2986V50.567C13.8061 50.7186 13.629 50.8921 13.4756 51.0839C13.4416 51.124 13.41 51.1659 13.3807 51.2093L13.299 51.252Z" fill="white"/>
<path opacity="0.2" d="M24.501 55.1708C25.3237 54.7242 25.4107 52.0648 24.9782 50.9734C24.5458 49.882 22.8847 49.039 21.8801 49.0214C21.7269 49.0144 21.5739 49.0392 21.4318 49.0942C21.3526 49.1256 21.2825 49.1749 21.2279 49.2378C21.1732 49.3008 21.1355 49.3755 21.118 49.4555C20.7568 51.1189 23.6783 55.6149 24.501 55.1708Z" fill="white"/>
<path opacity="0.2" d="M12.6697 56.4956C13.9195 55.9938 15.8707 52.0473 15.0138 51.7136C14.1568 51.3799 12.5141 52.4663 12.1793 53.2315C11.7205 54.2627 11.8602 56.8143 12.6697 56.4956Z" fill="white"/>
<path opacity="0.3" d="M13.2978 51.2519H13.361C13.3882 51.2493 13.4156 51.2493 13.4428 51.2519C13.63 51.2344 13.8198 51.2218 14.0123 51.2118C15.5601 51.1365 17.1975 51.2569 18.5133 50.3638C19.0406 50.0476 19.5258 49.6939 20.0215 49.3477L19.0512 49.5057C18.5033 49.8262 17.9343 50.1128 17.3478 50.3638C16.2931 50.705 15.1039 50.7251 14.0123 51.0186C13.9016 51.0487 13.7935 51.0813 13.6854 51.119C13.5773 51.1566 13.4823 51.1892 13.3821 51.2319L13.2978 51.2519Z" fill="white"/>
<path opacity="0.5" d="M21.4207 49.6037C21.0937 50.8206 22.6995 52.3636 23.3903 52.2607C24.0337 52.1628 24.5321 51.493 24.2526 50.6725C23.8702 49.5561 21.6343 48.8134 21.4207 49.6037Z" fill="white"/>
<path opacity="0.5" d="M23.3117 52.8302C23.143 53.332 23.9894 53.8162 24.3506 53.7334C24.7119 53.6506 24.9334 53.0886 24.7857 52.7875C24.5827 52.3811 23.4225 52.5065 23.3117 52.8302Z" fill="white"/>
<path opacity="0.05" d="M21.334 60.1487C18.2305 60.1863 15.7836 59.1451 13.7533 56.9021C14.9319 59.6117 18.4204 61.102 21.334 60.1487Z" fill="black"/>
<path d="M59.3255 47.7394C59.3255 47.8373 59.3255 47.9301 59.3439 48.0229C59.3624 48.1157 59.3624 48.2136 59.3729 48.3114C59.3835 48.4093 59.394 48.4846 59.4098 48.5623C59.4098 48.5749 59.4098 48.5874 59.4098 48.6C59.4257 48.6828 59.4388 48.7681 59.4573 48.8509C59.456 48.8634 59.456 48.876 59.4573 48.8885C59.4731 48.9663 59.4916 49.0491 59.5127 49.1394C59.5127 49.1544 59.5127 49.1645 59.5127 49.177C59.5338 49.2699 59.5575 49.3602 59.5839 49.4505C59.6102 49.5408 59.6419 49.6412 59.6709 49.734C59.9546 50.6257 60.4009 51.4631 60.9893 52.2078C61.1343 52.3935 61.2846 52.5691 61.4375 52.7372C61.5403 52.8501 61.6458 52.958 61.7486 53.0659C63.3913 54.7092 65.4797 55.5748 67.974 55.2787C68.1691 55.2587 68.3616 55.2311 68.562 55.1934C68.8857 55.1345 69.206 55.06 69.5218 54.9701C70.0429 54.8239 70.5493 54.6342 71.0353 54.4031C71.7436 54.0704 72.3887 53.6278 72.9443 53.0935C73.0761 52.9705 73.208 52.8426 73.3187 52.7071C73.6516 52.3369 73.9407 51.933 74.1809 51.5028C74.4868 50.9245 74.7145 50.3116 74.8586 49.6788C74.9252 49.3947 74.9762 49.1074 75.0115 48.8182C75.0273 48.7079 75.0405 48.595 75.0511 48.4795C75.0511 48.4369 75.0511 48.3942 75.0643 48.3491V48.2261C75.0643 48.1032 75.0801 47.9752 75.0801 47.8573C75.0801 47.8147 75.0801 47.772 75.0801 47.7294C75.0801 47.624 75.0801 47.5186 75.0801 47.4133C75.0801 47.3706 75.0801 47.3279 75.0801 47.2853C75.0715 47.0863 75.0521 46.8878 75.0221 46.6907V46.6756C74.979 46.3708 74.9182 46.0684 74.8401 45.7699C74.8243 45.7172 74.8085 45.667 74.7953 45.6118C74.7821 45.5566 74.7689 45.519 74.7531 45.4713C74.7531 45.4412 74.7347 45.4136 74.7268 45.3835C74.7173 45.3625 74.7103 45.3407 74.7057 45.3183L74.6503 45.1678C74.6213 45.0825 74.5923 45.0022 74.558 44.9169C74.5237 44.8316 74.5053 44.7764 74.4763 44.7061L74.4051 44.5455C74.384 44.4954 74.3602 44.4452 74.3365 44.3975C74.3128 44.3498 74.2917 44.3047 74.268 44.2595C74.2442 44.2144 74.2231 44.1692 74.1994 44.1215L74.1704 44.0739L74.1546 44.0412C74.1414 44.0187 74.1308 43.9961 74.1177 43.976C74.104 43.9473 74.0881 43.9197 74.0702 43.8932C74.0625 43.8768 74.0537 43.8609 74.0438 43.8456C74.0438 43.8255 74.0227 43.8079 74.0096 43.7904C73.9964 43.7728 73.9753 43.7276 73.9568 43.7L73.8698 43.5645C73.8144 43.4692 73.7512 43.3789 73.6879 43.2911V43.276C73.6009 43.1581 73.5138 43.0427 73.4242 42.9298C73.3794 42.8746 73.3319 42.8194 73.2844 42.7667C73.1948 42.6638 73.1051 42.566 73.0208 42.4707C72.9628 42.4129 72.9074 42.3552 72.8441 42.3L72.6543 42.1269C72.5277 42.019 72.3906 41.9162 72.2588 41.8208C72.1902 41.7707 72.1216 41.723 72.0504 41.6778L71.8448 41.5524C71.5928 41.4072 71.3282 41.2829 71.0538 41.1811C70.9984 41.1585 70.9404 41.1409 70.885 41.1208L65.7855 41.9463C65.6959 41.9789 65.6089 42.009 65.5218 42.0316L65.4005 42.0642C65.245 42.1044 65.071 42.142 64.8864 42.1771L64.5963 42.2373L64.512 42.2549H64.4513L64.3485 42.2699C63.7214 42.3764 63.1035 42.5273 62.5001 42.7215C62.3551 42.7742 62.2074 42.8294 62.0624 42.8922C61.9174 42.9549 61.8357 42.995 61.7223 43.0552C61.6676 43.0802 61.6147 43.1088 61.5641 43.1405C61.5113 43.1681 61.4612 43.1982 61.4085 43.2309C61.2019 43.3558 61.0085 43.4994 60.831 43.6599C60.7922 43.6914 60.7552 43.7249 60.7203 43.7602C60.6702 43.8104 60.6201 43.8606 60.5726 43.9133C59.6788 44.9068 59.2648 46.2943 59.3255 47.7394Z" fill="#5076A7"/>
<path opacity="0.1" d="M59.3255 47.7394C59.3255 47.8373 59.3255 47.9301 59.3439 48.0229C59.3624 48.1157 59.3624 48.2136 59.3729 48.3114C59.3835 48.4093 59.394 48.4846 59.4098 48.5623C59.4098 48.5749 59.4098 48.5874 59.4098 48.6C59.4257 48.6828 59.4388 48.7681 59.4573 48.8509C59.456 48.8634 59.456 48.876 59.4573 48.8885C59.4731 48.9663 59.4916 49.0491 59.5127 49.1394C59.5127 49.1544 59.5127 49.1645 59.5127 49.177C59.5338 49.2699 59.5575 49.3602 59.5839 49.4505C59.6102 49.5408 59.6419 49.6412 59.6709 49.734C59.9546 50.6257 60.4009 51.4631 60.9893 52.2078C61.1343 52.3935 61.2846 52.5691 61.4375 52.7372C61.5403 52.8501 61.6458 52.958 61.7486 53.0659C63.3913 54.7092 65.4797 55.5748 67.974 55.2787C68.1691 55.2587 68.3616 55.2311 68.562 55.1934C68.8857 55.1345 69.206 55.06 69.5218 54.9701C70.0429 54.8239 70.5493 54.6342 71.0353 54.4031C71.7436 54.0704 72.3887 53.6278 72.9443 53.0935C73.0761 52.9705 73.208 52.8426 73.3187 52.7071C73.6516 52.3369 73.9407 51.933 74.1809 51.5028C74.4868 50.9245 74.7145 50.3116 74.8586 49.6788C74.9252 49.3947 74.9762 49.1074 75.0115 48.8182C75.0273 48.7079 75.0405 48.595 75.0511 48.4795C75.0511 48.4369 75.0511 48.3942 75.0643 48.3491V48.2261C75.0643 48.1032 75.0801 47.9752 75.0801 47.8573C75.0801 47.8147 75.0801 47.772 75.0801 47.7294C75.0801 47.624 75.0801 47.5186 75.0801 47.4133C75.0801 47.3706 75.0801 47.3279 75.0801 47.2853C75.0715 47.0863 75.0521 46.8878 75.0221 46.6907V46.6756C74.979 46.3708 74.9182 46.0684 74.8401 45.7699C74.8243 45.7172 74.8085 45.667 74.7953 45.6118C74.7821 45.5566 74.7689 45.519 74.7531 45.4713C74.7531 45.4412 74.7347 45.4136 74.7268 45.3835C74.7173 45.3625 74.7103 45.3407 74.7057 45.3183L74.6503 45.1678C74.6213 45.0825 74.5923 45.0022 74.558 44.9169C74.5237 44.8316 74.5053 44.7764 74.4763 44.7061L74.4051 44.5455C74.384 44.4954 74.3602 44.4452 74.3365 44.3975C74.3128 44.3498 74.2917 44.3047 74.268 44.2595C74.2442 44.2144 74.2231 44.1692 74.1994 44.1215L74.1704 44.0739L74.1546 44.0412C74.1414 44.0187 74.1308 43.9961 74.1177 43.976C74.104 43.9473 74.0881 43.9197 74.0702 43.8932C74.0625 43.8768 74.0537 43.8609 74.0438 43.8456C74.0438 43.8255 74.0227 43.8079 74.0096 43.7904C73.9964 43.7728 73.9753 43.7276 73.9568 43.7L73.8698 43.5645C73.8144 43.4692 73.7512 43.3789 73.6879 43.2911V43.276C73.6009 43.1581 73.5138 43.0427 73.4242 42.9298C73.3794 42.8746 73.3319 42.8194 73.2844 42.7667C73.1948 42.6638 73.1051 42.566 73.0208 42.4707C72.9628 42.4129 72.9074 42.3552 72.8441 42.3L72.6543 42.1269C72.5277 42.019 72.3906 41.9162 72.2588 41.8208C72.1902 41.7707 72.1216 41.723 72.0504 41.6778L71.8448 41.5524C71.5928 41.4072 71.3282 41.2829 71.0538 41.1811C70.9984 41.1585 70.9404 41.1409 70.885 41.1208L65.7855 41.9463C65.6959 41.9789 65.6089 42.009 65.5218 42.0316L65.4005 42.0642C65.245 42.1044 65.071 42.142 64.8864 42.1771L64.5963 42.2373L64.512 42.2549H64.4513L64.3485 42.2699C63.7214 42.3764 63.1035 42.5273 62.5001 42.7215C62.3551 42.7742 62.2074 42.8294 62.0624 42.8922C61.9174 42.9549 61.8357 42.995 61.7223 43.0552C61.6676 43.0802 61.6147 43.1088 61.5641 43.1405C61.5113 43.1681 61.4612 43.1982 61.4085 43.2309C61.2019 43.3558 61.0085 43.4994 60.831 43.6599C60.7922 43.6914 60.7552 43.7249 60.7203 43.7602C60.6702 43.8104 60.6201 43.8606 60.5726 43.9133C59.6788 44.9068 59.2648 46.2943 59.3255 47.7394Z" fill="black"/>
<path opacity="0.05" d="M60.9968 52.2204C63.0351 54.792 65.9118 56.0139 69.5294 54.9802C73.147 53.9465 74.8451 51.425 75.0666 48.2061C75.2012 46.2278 74.5511 44.2734 73.2446 42.7291C74.2395 44.0369 74.7235 45.6341 74.6131 47.2452C74.4232 50.0451 72.944 52.243 69.7931 53.1412C66.6421 54.0393 64.1372 52.9731 62.3627 50.7351C60.5881 48.4971 60.3667 45.2757 61.9804 43.4993C62.6211 42.7968 63.5624 42.4531 64.4299 42.2449C63.188 42.4958 61.5637 42.8194 60.5591 43.9233C58.7187 45.9531 58.9718 49.6512 60.9968 52.2204Z" fill="black"/>
<path d="M64.4505 42.2324C64.7853 42.1672 65.0912 42.107 65.3496 42.0417C65.0675 42.0969 64.7616 42.1572 64.4505 42.2324Z" fill="#5076A7"/>
<path opacity="0.3" d="M59.3254 47.7395C59.3254 47.8373 59.3254 47.9301 59.3438 48.023C59.3623 48.1158 59.3623 48.2136 59.3728 48.3115C59.3834 48.4093 59.3939 48.4846 59.4097 48.5624C59.4097 48.5749 59.4097 48.5875 59.4097 48.6C59.4256 48.6828 59.4388 48.7681 59.4572 48.8509C59.4559 48.8634 59.4559 48.876 59.4572 48.8885C59.473 48.9663 59.4915 49.0491 59.5126 49.1394C59.5126 49.1545 59.5126 49.1645 59.5126 49.1771C59.5337 49.2699 59.5574 49.3602 59.5838 49.4505C59.6101 49.5409 59.6418 49.6412 59.6708 49.7341C59.1566 47.8197 59.4862 45.8076 60.7255 44.4879C61.0308 44.1736 61.3869 43.9077 61.7802 43.7001L61.9199 43.6273C61.999 43.5872 62.0755 43.547 62.1572 43.5094C63.3965 42.9549 64.8256 42.7843 65.6562 42.5485C66.5817 42.285 68.0293 41.5825 69.5085 41.5073C69.5665 41.5073 69.6193 41.5073 69.6773 41.5073C70.0555 41.4959 70.4336 41.5348 70.8005 41.6227C72.1458 42.0012 73.2887 42.8536 73.9963 44.0062C74.2921 44.4577 74.5344 44.939 74.7188 45.4413C74.6871 45.3434 74.6555 45.2406 74.6186 45.1427C74.5816 45.0449 74.5605 44.9771 74.5263 44.8918C74.492 44.8065 74.4735 44.7513 74.4445 44.6811L74.3733 44.5205C74.3522 44.4703 74.3285 44.4201 74.3048 44.3725C74.2811 44.3248 74.26 44.2796 74.2362 44.2345C74.2125 44.1893 74.1729 44.109 74.1387 44.0488L74.1228 44.0162C74.1097 43.9936 74.0991 43.971 74.0859 43.951C74.0723 43.9223 74.0564 43.8946 74.0385 43.8682C74.0308 43.8518 74.022 43.8358 74.0121 43.8205C74.0121 43.8004 73.991 43.7829 73.9778 43.7653C73.9646 43.7478 73.9435 43.7026 73.9251 43.675L73.8381 43.5395C73.7985 43.4768 73.759 43.4166 73.7168 43.3564C73.6746 43.2961 73.6746 43.2936 73.6561 43.266V43.251C73.5691 43.1331 73.4821 43.0177 73.3925 42.9048C73.3476 42.8496 73.3002 42.7944 73.2527 42.7417C73.1631 42.6388 73.0734 42.541 72.989 42.4456C72.931 42.3879 72.8757 42.3302 72.8124 42.275L72.6225 42.1019C72.4968 41.993 72.3647 41.8908 72.227 41.7958C72.1585 41.7456 72.0899 41.698 72.0187 41.6528L71.813 41.5273C71.5611 41.3821 71.2964 41.2579 71.022 41.156C70.9663 41.1339 70.909 41.1155 70.8506 41.1008L65.7511 41.9263C65.6615 41.9589 65.5745 41.989 65.4875 42.0116L65.3662 42.0442C65.2106 42.0843 65.0366 42.122 64.852 42.1571L64.562 42.2173L64.4776 42.2349H64.4169L64.3141 42.2499C63.698 42.3645 63.0917 42.5221 62.5 42.7216C62.355 42.7743 62.2073 42.8295 62.0623 42.8922C61.9173 42.9549 61.8356 42.9951 61.7222 43.0553C61.6675 43.0803 61.6146 43.1088 61.564 43.1406C61.5112 43.1682 61.4611 43.1983 61.4084 43.2309C61.2018 43.3558 61.0084 43.4995 60.831 43.6599C60.7921 43.6914 60.7552 43.7249 60.7202 43.7603C60.6701 43.8105 60.62 43.8607 60.5726 43.9133C59.6787 44.9069 59.2647 46.2943 59.3254 47.7395Z" fill="white"/>
<path opacity="0.2" d="M69.7191 42.3078C69.2577 43.9486 71.8918 48.6002 72.7408 48.2038C73.5899 47.8074 73.843 45.1554 73.4791 44.0415C72.9808 42.5236 70.0197 41.239 69.7191 42.3078Z" fill="white"/>
<path opacity="0.2" d="M60.8492 48.8584C62.1254 48.4369 64.3191 44.5932 63.4859 44.2169C62.6527 43.8405 60.9441 44.8391 60.5618 45.5717C60.0423 46.5702 60.0212 49.1318 60.8492 48.8584Z" fill="white"/>
<path opacity="0.3" d="M61.8046 43.645C63.1045 43.1759 64.5811 43.3189 65.9047 42.9777C66.8329 42.6741 67.8085 42.0845 68.7366 41.7558C69.0679 41.6274 69.414 41.5365 69.7676 41.4849C68.821 41.944 67.9983 42.5537 67.0649 43.0429C65.4829 43.9838 63.558 43.5572 61.8046 43.645Z" fill="white"/>
<path opacity="0.5" d="M70.0143 42.4708C69.6135 43.6676 71.1191 45.2984 71.8152 45.2307C72.4638 45.1705 73.0017 44.5307 72.7723 43.6952C72.4638 42.5637 70.2779 41.6956 70.0143 42.4708Z" fill="white"/>
<path opacity="0.05" d="M69.2676 52.9932C66.1694 52.8553 63.791 51.6685 61.9031 49.3252C62.9104 52.0976 66.3012 53.7811 69.2676 52.9932Z" fill="black"/>
<path d="M85.4975 57.6623C83.7072 60.3945 80.9597 61.8572 77.2577 61.1371C73.5557 60.4171 71.6308 58.0486 71.1114 54.8648C70.592 51.681 72.2083 48.3115 74.853 47.338C76.7303 46.6531 78.8925 47.624 80.1054 47.8599C81.3183 48.0957 83.7098 48.0104 85.1548 49.3402C87.1903 51.2218 87.2879 54.93 85.4975 57.6623Z" fill="#5076A7"/>
<path opacity="0.1" d="M85.4975 57.6623C83.7072 60.3945 80.9597 61.8572 77.2577 61.1371C73.5557 60.4171 71.6308 58.0486 71.1114 54.8648C70.592 51.681 72.2083 48.3115 74.853 47.338C76.7303 46.6531 78.8925 47.624 80.1054 47.8599C81.3183 48.0957 83.7098 48.0104 85.1548 49.3402C87.1903 51.2218 87.2879 54.93 85.4975 57.6623Z" fill="black"/>
<path opacity="0.05" d="M71.1114 54.8647C71.6387 58.0486 73.5583 60.417 77.2603 61.1371C80.9623 61.8571 83.7071 60.3844 85.4975 57.6622C86.6037 55.9769 87.0028 53.9571 86.6155 52.0046C86.8412 53.602 86.4758 55.2243 85.5819 56.5934C84.0209 58.9744 81.6267 60.2464 78.4046 59.6217C75.1825 58.997 73.5029 56.9296 73.052 54.1597C72.6011 51.3899 74.0065 48.4494 76.3084 47.6114C77.2234 47.2777 78.2148 47.3957 79.0955 47.6114C77.8799 47.2677 76.2847 46.8286 74.8529 47.3605C72.2083 48.3114 70.5919 51.6834 71.1114 54.8647Z" fill="black"/>
<path d="M79.1056 47.6116C79.4325 47.7044 79.7331 47.7897 79.9941 47.8474C79.7173 47.7671 79.4193 47.6843 79.1056 47.6116Z" fill="#5076A7"/>
<path opacity="0.3" d="M86.5731 55.0856C86.9054 53.1336 86.3886 51.1566 85.0201 49.9523C83.5646 48.6702 81.239 48.6978 80.0234 48.4469C78.8079 48.196 76.5798 47.3029 74.7104 47.9451C72.9569 48.5448 71.6676 50.1706 71.1666 52.0899C71.6148 49.9147 72.9728 48.0279 74.858 47.3455C76.7433 46.6631 78.8975 47.6315 80.1105 47.8674C81.3234 48.1032 83.7149 48.0179 85.1598 49.3476C86.6048 50.6774 87.0662 52.9178 86.5731 55.0856Z" fill="white"/>
<path opacity="0.2" d="M83.7135 50.0478C82.49 51.2847 82.5006 56.571 83.4498 56.6011C84.399 56.6312 85.9363 54.4108 86.1657 53.2643C86.4794 51.7062 84.5098 49.245 83.7135 50.0478Z" fill="white"/>
<path opacity="0.2" d="M72.6399 51.829C73.9741 52.0322 77.8132 49.6387 77.27 48.9261C76.7268 48.2136 74.7203 48.3315 74.0189 48.8057C73.0644 49.4505 71.775 51.6985 72.6399 51.829Z" fill="white"/>
<path opacity="0.3" d="M76.0696 47.6667C77.4486 47.8348 78.68 48.6277 80.0247 48.9212C80.9951 49.0717 82.1473 48.9915 83.1308 49.1169C83.4904 49.1533 83.8443 49.2291 84.1855 49.3427C83.1308 49.3226 82.092 49.4907 81.0214 49.5008C79.1757 49.6212 77.6754 48.3768 76.0854 47.6667H76.0696Z" fill="white"/>
<path opacity="0.5" d="M83.8886 50.3263C82.942 51.1994 83.4588 53.3144 84.1021 53.5703C84.7033 53.8087 85.497 53.485 85.7106 52.6471C86.0032 51.503 84.5056 49.7593 83.8886 50.3263Z" fill="white"/>
<path opacity="0.05" d="M78.0059 59.2606C75.3427 57.7552 73.8371 55.6302 73.3388 52.7173C72.8484 55.6126 75 58.6208 78.0059 59.2606Z" fill="black"/>
<path d="M32.1886 53.6958C32.2045 53.899 32.2282 54.0972 32.2625 54.298C32.2783 54.4159 32.2994 54.5288 32.3231 54.6417C32.3468 54.7847 32.3811 54.9202 32.4154 55.0556C32.4154 55.0933 32.4339 55.1334 32.4444 55.1685C32.4787 55.3141 32.5209 55.4571 32.5657 55.5951C32.6105 55.7331 32.6527 55.866 32.7028 55.9965C32.7397 56.0843 32.7714 56.1721 32.8083 56.2599C32.8795 56.433 32.9559 56.6037 33.0403 56.7617L33.1722 57.0126C33.2223 57.1029 33.2724 57.1933 33.3304 57.2811C33.6101 57.7413 33.9474 58.1676 34.335 58.5506L34.4062 58.6158C34.5433 58.7463 34.6857 58.8667 34.8386 58.9922C34.9546 59.0875 35.0759 59.1778 35.2025 59.2656C35.329 59.3534 35.5241 59.4789 35.6929 59.5767C35.9554 59.7289 36.2275 59.8655 36.5076 59.9857C36.6975 60.066 36.8952 60.1412 37.0983 60.2115C37.3013 60.2817 37.5123 60.347 37.7311 60.4047C37.95 60.4624 38.1714 60.5126 38.4035 60.5577C41.2433 61.1097 43.5214 60.3771 45.2353 58.7739C45.3487 58.666 45.4621 58.5531 45.5755 58.4377C45.9754 58.0175 46.3338 57.5632 46.646 57.0804C46.7488 56.9223 46.849 56.7567 46.9413 56.5786L47.0758 56.3277C47.1575 56.1571 47.2392 55.9865 47.3104 55.8133C47.3816 55.6402 47.4475 55.4646 47.5082 55.289C47.5963 55.0306 47.6684 54.7675 47.7244 54.5012C47.7534 54.3782 47.7798 54.2503 47.8009 54.1273C47.8009 54.1023 47.8009 54.0772 47.8009 54.0521C47.822 53.9266 47.8378 53.8012 47.851 53.6782C47.8642 53.5553 47.88 53.4048 47.8852 53.2668C47.8905 53.1288 47.8984 52.9657 47.8984 52.8177C47.8984 52.7876 47.8984 52.7575 47.8984 52.7299C47.8984 52.637 47.8984 52.5442 47.8984 52.4539C47.8984 52.3636 47.8826 52.2406 47.8721 52.1352C47.8721 52.0801 47.8562 52.0224 47.8483 51.9672C47.8498 51.9488 47.8498 51.9303 47.8483 51.912C47.8458 51.8682 47.8405 51.8246 47.8325 51.7815C47.8141 51.6611 47.793 51.5457 47.7666 51.4328C47.6854 51.0537 47.5653 50.6831 47.408 50.3263C47.1539 49.7413 46.7791 49.2106 46.3058 48.7658C44.8583 47.436 42.4694 47.5113 41.2564 47.2855L41.1299 47.2579C40.8662 47.2027 40.5841 47.1199 40.2677 47.0296H40.2466C39.6944 46.8645 39.1327 46.7297 38.5643 46.6256L38.4351 46.6056C38.3824 46.6056 38.3296 46.588 38.2716 46.583C38.2136 46.578 38.0923 46.5604 38.008 46.5529C37.9236 46.5454 37.8524 46.5378 37.7707 46.5353C37.5713 46.524 37.3715 46.524 37.1721 46.5353H37.1589L36.2941 46.6733C36.1991 46.7009 36.1042 46.731 36.0093 46.7661C35.9144 46.8013 35.8406 46.8314 35.7588 46.8665L35.6138 46.9292L35.4872 46.9945C35.4319 47.0195 35.3818 47.0496 35.3317 47.0772C35.213 47.1425 35.0996 47.2127 34.9862 47.288C34.9414 47.3181 34.8992 47.3457 34.857 47.3783C34.8338 47.3926 34.8118 47.4085 34.7911 47.426L34.6936 47.4988L34.6145 47.564C34.4878 47.6645 34.3672 47.7717 34.2532 47.8851C34.1979 47.9378 34.1451 47.988 34.095 48.0407C34.0501 48.0843 34.0078 48.1304 33.9685 48.1787L33.9342 48.2163C33.8946 48.259 33.8551 48.3066 33.8182 48.3518C33.803 48.3661 33.7897 48.3821 33.7786 48.3995L33.6283 48.5851L33.4886 48.7833C33.4886 48.8059 33.4596 48.8235 33.4437 48.8486C33.4308 48.8643 33.4193 48.8811 33.4095 48.8987L33.3726 48.9564C33.364 48.9655 33.3569 48.9756 33.3515 48.9865C33.3066 49.0543 33.2618 49.122 33.2249 49.1923C33.188 49.2625 33.1484 49.3152 33.1168 49.3779C33.1168 49.3905 33.1036 49.398 33.101 49.4055C33.0983 49.4131 33.0614 49.4783 33.0456 49.5109C33.0298 49.5435 33.006 49.5812 32.9876 49.6188C32.948 49.6916 32.9138 49.7668 32.8768 49.8446L32.7898 50.0378L32.7661 50.1005C32.7345 50.1708 32.7081 50.241 32.6817 50.3138C32.6553 50.3865 32.6237 50.4618 32.5973 50.5371L32.571 50.6224C32.5717 50.6316 32.5717 50.6408 32.571 50.65C32.571 50.6826 32.5499 50.7127 32.542 50.7428C32.5405 50.7553 32.5405 50.7679 32.542 50.7804C32.513 50.8632 32.4892 50.946 32.4681 51.0313C32.4681 51.0639 32.447 51.0991 32.4418 51.1342C32.4101 51.2546 32.3838 51.3851 32.3548 51.5005C32.3548 51.5256 32.3548 51.5532 32.3416 51.5783C32.2994 51.794 32.2625 52.0123 32.2387 52.2306C32.1771 52.7167 32.1604 53.2069 32.1886 53.6958Z" fill="#5076A7"/>
<path opacity="0.1" d="M32.1886 53.6958C32.2045 53.899 32.2282 54.0972 32.2625 54.298C32.2783 54.4159 32.2994 54.5288 32.3231 54.6417C32.3468 54.7847 32.3811 54.9202 32.4154 55.0556C32.4154 55.0933 32.4339 55.1334 32.4444 55.1685C32.4787 55.3141 32.5209 55.4571 32.5657 55.5951C32.6105 55.7331 32.6527 55.866 32.7028 55.9965C32.7397 56.0843 32.7714 56.1721 32.8083 56.2599C32.8795 56.433 32.9559 56.6037 33.0403 56.7617L33.1722 57.0126C33.2223 57.1029 33.2724 57.1933 33.3304 57.2811C33.6101 57.7413 33.9474 58.1676 34.335 58.5506L34.4062 58.6158C34.5433 58.7463 34.6857 58.8667 34.8386 58.9922C34.9546 59.0875 35.0759 59.1778 35.2025 59.2656C35.329 59.3534 35.5241 59.4789 35.6929 59.5767C35.9554 59.7289 36.2275 59.8655 36.5076 59.9857C36.6975 60.066 36.8952 60.1412 37.0983 60.2115C37.3013 60.2817 37.5123 60.347 37.7311 60.4047C37.95 60.4624 38.1714 60.5126 38.4035 60.5577C41.2433 61.1097 43.5214 60.3771 45.2353 58.7739C45.3487 58.666 45.4621 58.5531 45.5755 58.4377C45.9754 58.0175 46.3338 57.5632 46.646 57.0804C46.7488 56.9223 46.849 56.7567 46.9413 56.5786L47.0758 56.3277C47.1575 56.1571 47.2392 55.9865 47.3104 55.8133C47.3816 55.6402 47.4475 55.4646 47.5082 55.289C47.5963 55.0306 47.6684 54.7675 47.7244 54.5012C47.7534 54.3782 47.7798 54.2503 47.8009 54.1273C47.8009 54.1023 47.8009 54.0772 47.8009 54.0521C47.822 53.9266 47.8378 53.8012 47.851 53.6782C47.8642 53.5553 47.88 53.4048 47.8852 53.2668C47.8905 53.1288 47.8984 52.9657 47.8984 52.8177C47.8984 52.7876 47.8984 52.7575 47.8984 52.7299C47.8984 52.637 47.8984 52.5442 47.8984 52.4539C47.8984 52.3636 47.8826 52.2406 47.8721 52.1352C47.8721 52.0801 47.8562 52.0224 47.8483 51.9672C47.8498 51.9488 47.8498 51.9303 47.8483 51.912C47.8458 51.8682 47.8405 51.8246 47.8325 51.7815C47.8141 51.6611 47.793 51.5457 47.7666 51.4328C47.6854 51.0537 47.5653 50.6831 47.408 50.3263C47.1539 49.7413 46.7791 49.2106 46.3058 48.7658C44.8583 47.436 42.4694 47.5113 41.2564 47.2855L41.1299 47.2579C40.8662 47.2027 40.5841 47.1199 40.2677 47.0296H40.2466C39.6944 46.8645 39.1327 46.7297 38.5643 46.6256L38.4351 46.6056C38.3824 46.6056 38.3296 46.588 38.2716 46.583C38.2136 46.578 38.0923 46.5604 38.008 46.5529C37.9236 46.5454 37.8524 46.5378 37.7707 46.5353C37.5713 46.524 37.3715 46.524 37.1721 46.5353H37.1589L36.2941 46.6733C36.1991 46.7009 36.1042 46.731 36.0093 46.7661C35.9144 46.8013 35.8406 46.8314 35.7588 46.8665L35.6138 46.9292L35.4872 46.9945C35.4319 47.0195 35.3818 47.0496 35.3317 47.0772C35.213 47.1425 35.0996 47.2127 34.9862 47.288C34.9414 47.3181 34.8992 47.3457 34.857 47.3783C34.8338 47.3926 34.8118 47.4085 34.7911 47.426L34.6936 47.4988L34.6145 47.564C34.4878 47.6645 34.3672 47.7717 34.2532 47.8851C34.1979 47.9378 34.1451 47.988 34.095 48.0407C34.0501 48.0843 34.0078 48.1304 33.9685 48.1787L33.9342 48.2163C33.8946 48.259 33.8551 48.3066 33.8182 48.3518C33.803 48.3661 33.7897 48.3821 33.7786 48.3995L33.6283 48.5851L33.4886 48.7833C33.4886 48.8059 33.4596 48.8235 33.4437 48.8486C33.4308 48.8643 33.4193 48.8811 33.4095 48.8987L33.3726 48.9564C33.364 48.9655 33.3569 48.9756 33.3515 48.9865C33.3066 49.0543 33.2618 49.122 33.2249 49.1923C33.188 49.2625 33.1484 49.3152 33.1168 49.3779C33.1168 49.3905 33.1036 49.398 33.101 49.4055C33.0983 49.4131 33.0614 49.4783 33.0456 49.5109C33.0298 49.5435 33.006 49.5812 32.9876 49.6188C32.948 49.6916 32.9138 49.7668 32.8768 49.8446L32.7898 50.0378L32.7661 50.1005C32.7345 50.1708 32.7081 50.241 32.6817 50.3138C32.6553 50.3865 32.6237 50.4618 32.5973 50.5371L32.571 50.6224C32.5717 50.6316 32.5717 50.6408 32.571 50.65C32.571 50.6826 32.5499 50.7127 32.542 50.7428C32.5405 50.7553 32.5405 50.7679 32.542 50.7804C32.513 50.8632 32.4892 50.946 32.4681 51.0313C32.4681 51.0639 32.447 51.0991 32.4418 51.1342C32.4101 51.2546 32.3838 51.3851 32.3548 51.5005C32.3548 51.5256 32.3548 51.5532 32.3416 51.5783C32.2994 51.794 32.2625 52.0123 32.2387 52.2306C32.1771 52.7167 32.1604 53.2069 32.1886 53.6958Z" fill="black"/>
<path opacity="0.05" d="M32.1874 53.6956C32.2058 53.8988 32.2296 54.0995 32.2638 54.2978C32.2797 54.4157 32.3008 54.5311 32.3245 54.644C32.3482 54.787 32.3799 54.9225 32.4115 55.058C32.4115 55.0956 32.43 55.1357 32.4405 55.1709C32.4774 55.3164 32.5196 55.4619 32.5671 55.6024C32.6145 55.7429 32.6514 55.8683 32.6989 55.9988C32.7358 56.0866 32.7675 56.1744 32.8044 56.2622C32.8756 56.4354 32.952 56.606 33.0364 56.764L33.1682 57.0149C33.2183 57.1027 33.2684 57.1931 33.3265 57.2784C33.6062 57.7386 33.9435 58.1649 34.3311 58.5479L34.4023 58.6156C34.5394 58.7461 34.6817 58.8665 34.8347 58.992C34.9507 59.0873 35.072 59.1776 35.1986 59.2654C35.3251 59.3532 35.5202 59.4787 35.689 59.5765C35.9515 59.7287 36.2236 59.8653 36.5037 59.9855C36.6936 60.0658 36.8914 60.141 37.0944 60.2113C37.2974 60.2815 37.5084 60.3468 37.7272 60.4045C37.9461 60.4622 38.1675 60.5124 38.3996 60.5575C41.2394 61.1095 43.5175 60.3769 45.2314 58.7737C45.3448 58.6658 45.4582 58.5529 45.5716 58.4375C45.969 58.016 46.3264 57.5618 46.6394 57.0802C46.7423 56.9196 46.8451 56.7565 46.9374 56.5784L47.0719 56.3275C47.1536 56.1569 47.2353 55.9863 47.3065 55.8131C47.3777 55.64 47.4436 55.4644 47.5043 55.2888C47.5918 55.0302 47.6639 54.7672 47.7205 54.501C47.7495 54.378 47.7759 54.2501 47.797 54.1271C47.797 54.102 47.797 54.077 47.797 54.0519C47.8181 53.9264 47.8339 53.801 47.8471 53.678C47.8603 53.5551 47.8761 53.4046 47.8814 53.2666C47.8866 53.1286 47.8945 52.9655 47.8945 52.8175C47.8945 52.7874 47.8945 52.7573 47.8945 52.7297C47.8945 52.6368 47.8945 52.544 47.8945 52.4537C47.8929 52.41 47.8885 52.3664 47.8814 52.3232C47.8839 52.2881 47.8839 52.2529 47.8814 52.2178C47.8814 52.1902 47.8814 52.1601 47.8814 52.135C47.88 52.0987 47.8747 52.0625 47.8655 52.0272C47.8638 51.9883 47.8585 51.9497 47.8497 51.9118C47.8472 51.868 47.8419 51.8244 47.8339 51.7813C47.8308 51.7515 47.8246 51.7221 47.8154 51.6935C47.8067 51.6191 47.7926 51.5453 47.7732 51.4727C47.842 51.9373 47.8553 52.4078 47.8128 52.8752C47.7216 53.9902 47.3509 55.0682 46.7317 56.0189C45.1734 58.3998 42.7766 59.6719 39.5598 59.0472C36.3429 58.4224 34.658 56.3551 34.2045 53.5852C34.0781 52.8049 34.0932 52.0098 34.2493 51.2343C34.4715 49.9776 35.0958 48.8167 36.037 47.91C36.3787 47.5969 36.7714 47.3385 37.1999 47.1448L37.2842 47.1072L37.3159 47.0946L37.4635 47.0369C38.3758 46.7032 39.3646 46.8211 40.2479 47.0369C39.6957 46.8719 39.1341 46.737 38.5657 46.633L38.4365 46.6129C38.3838 46.6129 38.331 46.5953 38.273 46.5903C38.215 46.5853 38.0937 46.5677 38.0093 46.5602C37.925 46.5527 37.8538 46.5452 37.772 46.5426C37.5727 46.5314 37.3728 46.5314 37.1735 46.5426H37.1603L36.2954 46.6806C36.2005 46.7082 36.1056 46.7383 36.0107 46.7735C35.9157 46.8086 35.8419 46.8387 35.7602 46.8738L35.6152 46.9365L35.4886 47.0018C35.4332 47.0269 35.3831 47.057 35.333 47.0846C35.2144 47.1498 35.101 47.2201 34.9876 47.2953C34.9454 47.3254 34.9006 47.353 34.8584 47.3856L34.7529 47.4609C34.7349 47.4775 34.7155 47.4926 34.6949 47.5061L34.6158 47.5713C34.4892 47.6718 34.3685 47.779 34.2546 47.8924C34.1992 47.9451 34.1465 47.9953 34.0964 48.048C34.0515 48.0917 34.0093 48.1378 33.9698 48.186L33.9355 48.2236C33.896 48.2663 33.8564 48.314 33.8195 48.3591C33.8044 48.3734 33.7911 48.3894 33.78 48.4068L33.6297 48.5924L33.4899 48.7906C33.4899 48.8132 33.4609 48.8308 33.4451 48.8559C33.4322 48.8716 33.4207 48.8884 33.4108 48.9061C33.3961 48.9238 33.3837 48.9432 33.3739 48.9638C33.3654 48.9728 33.3583 48.9829 33.3528 48.9939C33.308 49.0616 33.2632 49.1294 33.2263 49.1996C33.1893 49.2699 33.1735 49.2824 33.1498 49.3251C33.1261 49.3677 33.1261 49.3652 33.1181 49.3853C33.1102 49.4053 33.105 49.4053 33.1023 49.4129C33.0997 49.4204 33.0628 49.4856 33.047 49.5182C33.0311 49.5509 33.0074 49.5885 32.989 49.6261C32.9485 49.6997 32.9116 49.775 32.8782 49.8519L32.7912 50.0451L32.7675 50.1078C32.7358 50.1781 32.7095 50.2483 32.6831 50.3211C32.6567 50.3939 32.6251 50.4691 32.5987 50.5444L32.5723 50.6297C32.573 50.6389 32.573 50.6481 32.5723 50.6573C32.5723 50.6899 32.5512 50.72 32.5433 50.7501C32.5418 50.7626 32.5418 50.7752 32.5433 50.7878C32.5143 50.8705 32.4906 50.9533 32.4695 51.0386C32.4695 51.0713 32.4484 51.1064 32.4431 51.1415C32.4115 51.2619 32.3851 51.3924 32.3561 51.5078C32.3561 51.5329 32.3561 51.5605 32.3429 51.5856C32.3008 51.8014 32.2638 52.0196 32.2401 52.2379C32.1781 52.7214 32.1604 53.2092 32.1874 53.6956Z" fill="black"/>
<path d="M40.2559 47.0444C40.5829 47.1373 40.8835 47.2226 41.1445 47.2803C40.8677 47.2 40.5697 47.1172 40.2559 47.0444Z" fill="#5076A7"/>
<path opacity="0.3" d="M32.3248 51.5228C32.8232 49.606 34.1152 47.9802 35.8686 47.3806C36.2935 47.2431 36.7383 47.1694 37.187 47.1623H37.3478C37.4375 47.1623 37.5298 47.1623 37.6115 47.1623C38.9774 47.2326 40.3168 47.7193 41.1632 47.8849C42.1072 48.0681 43.7261 48.0931 45.0841 48.7003C45.1315 48.7204 45.1764 48.743 45.2238 48.768C45.5652 48.9282 45.8804 49.1344 46.1599 49.3802C47.1521 50.312 47.7354 51.5674 47.792 52.8927C47.8326 53.4357 47.806 53.9814 47.7129 54.5185C47.7419 54.3956 47.7683 54.2676 47.7894 54.1447C47.7894 54.1196 47.7894 54.0945 47.7894 54.0694C47.8105 53.944 47.8263 53.8185 47.8395 53.6956C47.8527 53.5726 47.8685 53.4221 47.8738 53.2841C47.8988 52.9701 47.8988 52.6548 47.8738 52.3408C47.8763 52.3057 47.8763 52.2705 47.8738 52.2354C47.8738 52.1727 47.8738 52.1074 47.8527 52.0447C47.851 52.0059 47.8457 51.9673 47.8369 51.9293C47.8295 51.856 47.818 51.7831 47.8026 51.711C47.7939 51.6366 47.7798 51.5628 47.7604 51.4902C47.6794 51.0975 47.5576 50.7134 47.3965 50.3437C47.1424 49.7586 46.7676 49.228 46.2943 48.7831C44.8468 47.4534 42.4579 47.5286 41.245 47.3028L41.1184 47.2752C40.8547 47.22 40.5726 47.1372 40.2562 47.0469H40.2351C39.6829 46.8819 39.1212 46.747 38.5528 46.643L38.4236 46.6229C38.3709 46.6229 38.3182 46.6053 38.2602 46.6003C38.2021 46.5953 38.0809 46.5777 37.9965 46.5702C37.9121 46.5627 37.8409 46.5552 37.7592 46.5527C37.5598 46.5414 37.36 46.5414 37.1606 46.5527H37.1474L36.2826 46.6907C36.1877 46.7183 36.0927 46.7484 35.9978 46.7835C35.9029 46.8186 35.8291 46.8487 35.7473 46.8838L35.6023 46.9466L35.4757 47.0118C35.4204 47.0369 35.3703 47.067 35.3202 47.0946C35.2015 47.1598 35.0881 47.2301 34.9748 47.3053C34.9299 47.3354 34.8877 47.363 34.8456 47.3957C34.8223 47.4099 34.8003 47.4259 34.7796 47.4433L34.7401 47.4709C34.7221 47.4875 34.7027 47.5026 34.6821 47.5161L34.603 47.5813C34.4763 47.6818 34.3557 47.789 34.2417 47.9025C34.1864 47.9552 34.1336 48.0053 34.0835 48.058C34.0387 48.1017 33.9964 48.1478 33.957 48.196L33.9227 48.2336C33.8831 48.2763 33.8436 48.324 33.8067 48.3691C33.7915 48.3834 33.7782 48.3994 33.7671 48.4168L33.6168 48.6025L33.4771 48.8007C33.4597 48.8208 33.4447 48.8427 33.4323 48.8659C33.4193 48.8816 33.4078 48.8984 33.398 48.9161C33.3832 48.9338 33.3708 48.9532 33.3611 48.9738C33.3611 48.9738 33.3426 48.9913 33.34 49.0039C33.2951 49.0716 33.2503 49.1394 33.2134 49.2096C33.1765 49.2799 33.1607 49.2924 33.1369 49.3351C33.1132 49.3777 33.1132 49.3752 33.1053 49.3953C33.099 49.4039 33.0937 49.4132 33.0895 49.4229C33.0684 49.458 33.0499 49.4956 33.0341 49.5283C33.0183 49.5609 32.9946 49.5985 32.9761 49.6361C32.9357 49.7097 32.8988 49.785 32.8654 49.8619L32.7783 50.0551L32.7546 50.1179C32.723 50.1881 32.6966 50.2583 32.6702 50.3311C32.6439 50.4039 32.5911 50.5343 32.5595 50.6397C32.5602 50.6489 32.5602 50.6581 32.5595 50.6673C32.5595 50.6999 32.5384 50.73 32.5305 50.7601C32.529 50.7726 32.529 50.7853 32.5305 50.7978C32.5015 50.8806 32.4778 50.9634 32.4567 51.0487C32.4567 51.0813 32.4356 51.1164 32.4303 51.1515C32.3802 51.277 32.3538 51.4024 32.3248 51.5228Z" fill="white"/>
<path opacity="0.2" d="M44.8619 49.4781C43.6385 50.7175 43.649 56.0014 44.5982 56.034C45.5475 56.0666 47.0847 53.8437 47.3141 52.6971C47.6279 51.1391 45.6582 48.6728 44.8619 49.4781Z" fill="white"/>
<path opacity="0.2" d="M33.7902 51.2521C35.1244 51.4553 38.9636 49.0618 38.4204 48.3493C37.8772 47.6367 35.8706 47.7521 35.1693 48.2263C34.2148 48.8837 32.9228 51.1317 33.7902 51.2521Z" fill="white"/>
<path opacity="0.3" d="M37.2215 47.0996C38.6005 47.2677 39.8319 48.058 41.1766 48.3541C42.1469 48.5071 43.286 48.4268 44.2827 48.5523C44.6378 48.5896 44.9872 48.6654 45.3242 48.7781C44.2695 48.7555 43.2306 48.9236 42.1601 48.9361C40.3012 49.0541 38.8141 47.8121 37.2241 47.1021L37.2215 47.0996Z" fill="white"/>
<path opacity="0.5" d="M45.0389 49.7593C44.0897 50.6324 44.6092 52.7449 45.2525 53.0008C45.8537 53.2517 46.6474 52.918 46.8609 52.08C47.1536 50.9385 45.6559 49.1923 45.0389 49.7593Z" fill="white"/>
<path opacity="0.5" d="M44.8738 53.4499C44.4598 53.781 44.908 54.6265 45.2614 54.7369C45.6147 54.8473 46.113 54.486 46.1526 54.1473C46.2027 53.7007 45.1427 53.2341 44.8738 53.4499Z" fill="white"/>
<path opacity="0.05" d="M39.1562 58.6935C36.4931 57.1881 34.9875 55.0631 34.4892 52.1477C33.9988 55.0455 36.1503 58.0537 39.1562 58.6935Z" fill="black"/>
<path d="M34.9764 60.4523C34.9553 63.6738 33.4208 66.2906 29.8743 67.5225C26.3279 68.7543 23.3774 67.6981 21.173 65.2468C18.9687 62.7956 18.4967 59.1175 20.2159 56.9799C21.4393 55.4595 23.8151 55.2086 24.9779 54.8047C26.1407 54.4007 28.1288 53.1337 30.0932 53.5502C32.8697 54.1248 34.9949 57.2333 34.9764 60.4523Z" fill="#5076A7"/>
<path opacity="0.1" d="M34.9764 60.4523C34.9553 63.6738 33.4208 66.2906 29.8743 67.5225C26.3279 68.7543 23.3774 67.6981 21.173 65.2468C18.9687 62.7956 18.4967 59.1175 20.2159 56.9799C21.4393 55.4595 23.8151 55.2086 24.9779 54.8047C26.1407 54.4007 28.1288 53.1337 30.0932 53.5502C32.8697 54.1248 34.9949 57.2333 34.9764 60.4523Z" fill="black"/>
<path opacity="0.05" d="M21.1815 65.2469C23.3753 67.6981 26.3232 68.7594 29.8828 67.5225C33.4424 66.2856 34.9664 63.6738 34.9823 60.4523C34.9954 58.4702 34.2256 56.5557 32.8254 55.0882C33.8961 56.3367 34.4786 57.9 34.4734 59.5114C34.4549 62.3164 33.1181 64.5945 30.0278 65.6684C26.9375 66.7422 24.372 65.8214 22.4603 63.6863C20.5487 61.5512 20.1294 58.3498 21.6271 56.4857C22.223 55.748 23.13 55.3516 24.0002 55.0857C22.7767 55.3993 21.1762 55.8208 20.2428 56.9799C18.5078 59.12 18.9877 62.7931 21.1815 65.2469Z" fill="black"/>
<path d="M23.9975 55.0832C24.3271 54.9979 24.6277 54.9226 24.8809 54.8323C24.6093 54.9101 24.3034 54.9878 23.9975 55.0832Z" fill="#5076A7"/>
<path opacity="0.3" d="M34.4824 57.7175C33.6914 55.891 32.1594 54.4559 30.3295 54.1223C28.3836 53.756 26.4166 54.9352 25.2511 55.3391C24.0857 55.743 21.6889 56.0918 20.447 57.557C19.2815 58.9419 19.0785 60.9691 19.7113 62.8533C18.8966 60.7784 19.0099 58.4928 20.2387 56.9799C21.4674 55.467 23.8378 55.2086 25.0006 54.8047C26.1635 54.4007 28.1516 53.1337 30.116 53.5502C32.0803 53.9667 33.6993 55.6326 34.4824 57.7175Z" fill="white"/>
<path opacity="0.2" d="M29.2606 54.8574C28.902 56.5233 31.8209 61.0193 32.6436 60.5752C33.4662 60.1311 33.5532 57.4691 33.1208 56.3778C32.5196 54.8925 29.4953 53.776 29.2606 54.8574Z" fill="white"/>
<path opacity="0.2" d="M20.8149 61.8974C22.0621 61.3956 24.0133 57.4516 23.1564 57.1179C22.2994 56.7842 20.6593 57.8706 20.3218 58.6358C19.863 59.662 20.0028 62.2185 20.8149 61.8974Z" fill="white"/>
<path opacity="0.3" d="M21.4451 56.6437C22.7107 56.0993 24.1952 56.1595 25.4952 55.743C26.4048 55.3892 27.3409 54.7394 28.2479 54.3631C28.5699 54.2164 28.9088 54.1061 29.2578 54.0344C28.3402 54.5362 27.5571 55.2036 26.658 55.743C25.1392 56.7717 23.188 56.4555 21.4451 56.6437Z" fill="white"/>
<path opacity="0.5" d="M29.5659 55.0154C29.2389 56.2322 30.8421 57.7752 31.5329 57.6723C32.1763 57.5745 32.6746 56.9046 32.3951 56.0842C32.0155 54.9602 29.7768 54.2175 29.5659 55.0154Z" fill="white"/>
<path opacity="0.5" d="M31.4651 58.2343C31.2937 58.7361 32.1401 59.2203 32.504 59.1375C32.8678 59.0547 33.0867 58.4927 32.9364 58.1916C32.7281 57.7752 31.5653 57.9157 31.4651 58.2343Z" fill="white"/>
<path opacity="0.05" d="M29.4766 65.553C26.3757 65.5881 23.9394 64.5494 21.8959 62.3064C23.0745 65.016 26.5629 66.5038 29.4766 65.553Z" fill="black"/>
<path d="M62.3599 72.1362C59.2934 73.4986 56.1504 73.3004 53.4609 70.7789C50.7714 68.2574 50.5103 65.2593 51.8973 62.3314C53.2842 59.4034 56.5696 57.4038 59.3382 57.9683C61.3052 58.3672 62.5629 60.3041 63.4463 61.1296C64.3296 61.955 66.381 63.1242 66.8292 64.9883C67.4647 67.6152 65.4238 70.7739 62.3599 72.1362Z" fill="#5076A7"/>
<path opacity="0.1" d="M62.3599 72.1362C59.2934 73.4986 56.1504 73.3004 53.4609 70.7789C50.7714 68.2574 50.5103 65.2593 51.8973 62.3314C53.2842 59.4034 56.5696 57.4038 59.3382 57.9683C61.3052 58.3672 62.5629 60.3041 63.4463 61.1296C64.3296 61.955 66.381 63.1242 66.8292 64.9883C67.4647 67.6152 65.4238 70.7739 62.3599 72.1362Z" fill="black"/>
<path d="M62.7561 60.3945C62.9776 60.6454 63.178 60.8687 63.3652 61.0519C63.178 60.8436 62.975 60.6178 62.7561 60.3945Z" fill="#5076A7"/>
<path opacity="0.3" d="M64.7435 70.5381C66.1384 69.0729 66.8371 67.1485 66.381 65.4274C65.8932 63.5984 63.9314 62.4167 63.0481 61.5837C62.1648 60.7508 60.8148 58.839 58.882 58.4024C57.0679 57.9935 55.0561 58.6884 53.54 60.0382C55.1589 58.4501 57.3791 57.5694 59.3408 57.9684C61.3026 58.3673 62.5656 60.3042 63.4489 61.1296C64.3322 61.9551 66.3836 63.1242 66.8319 64.9884C67.2801 66.8525 66.3889 68.9725 64.7435 70.5381Z" fill="white"/>
<path opacity="0.2" d="M65.2145 64.8254C63.4795 65.2294 60.4683 69.6652 61.2356 70.182C62.0029 70.6988 64.5738 69.6351 65.4254 68.7946C66.5909 67.6505 66.3509 64.562 65.2145 64.8254Z" fill="white"/>
<path opacity="0.2" d="M54.9194 60.5802C55.9213 61.4408 60.5119 61.4258 60.4565 60.5451C60.4012 59.6645 58.6583 58.7236 57.7987 58.7588C56.6359 58.8039 54.2681 60.0333 54.9194 60.5802Z" fill="white"/>
<path opacity="0.5" d="M65.2152 65.1515C63.9206 65.4024 63.1428 67.4321 63.5383 67.9816C63.9338 68.531 64.7538 68.6339 65.413 68.0418C66.3069 67.2364 66.0537 64.996 65.2152 65.1515Z" fill="white"/>
<path opacity="0.05" d="M55.1621 69.5922C53.7963 66.9428 53.7462 64.3862 54.996 61.6841C52.9261 63.8593 53.0079 67.4973 55.1621 69.5922Z" fill="black"/>
<path d="M16.8296 42.2976L19.8381 42.827L20.5105 45.8453L21.1829 42.827L24.1914 42.2976L21.196 41.6001L20.5105 38.75L19.8249 41.6001L16.8296 42.2976Z" fill="white"/>
<path d="M58.6157 67.4673L60.7304 67.8386L61.2024 69.9586L61.6744 67.8386L63.7891 67.4648L61.6849 66.9755L61.2024 64.9734L60.7225 66.9755L58.6157 67.4673Z" fill="white"/>
<path d="M61.2805 11.3825L63.3925 11.7539L63.8672 13.8739L64.3391 11.7539L66.4512 11.38L64.347 10.8908L63.8672 8.88867L63.3846 10.8908L61.2805 11.3825Z" fill="white"/>
<path d="M86.8235 55.146L88.9381 55.5173L89.4101 57.6374L89.8821 55.5173L91.9941 55.1435L89.89 54.6542L89.4101 52.6521L88.9276 54.6542L86.8235 55.146Z" fill="white"/>
<path d="M94.1164 20.1338L96.2285 20.5051L96.7005 22.6251L97.1724 20.5051L99.2871 20.1313L97.183 19.642L96.7005 17.6399L96.2206 19.642L94.1164 20.1338Z" fill="white"/>
<path d="M83.188 47.8499C83.3034 47.8499 83.414 47.8935 83.4956 47.9711C83.5772 48.0487 83.623 48.154 83.623 48.2638C83.623 48.3736 83.5772 48.4789 83.4956 48.5565C83.414 48.6342 83.3034 48.6778 83.188 48.6778C83.0726 48.6778 82.9619 48.6342 82.8803 48.5565C82.7988 48.4789 82.7529 48.3736 82.7529 48.2638C82.7529 48.154 82.7988 48.0487 82.8803 47.9711C82.9619 47.8935 83.0726 47.8499 83.188 47.8499Z" fill="white"/>
<path d="M58.0005 63.8594C58.1159 63.8594 58.2265 63.903 58.3081 63.9806C58.3897 64.0583 58.4355 64.1636 58.4355 64.2733C58.4355 64.3831 58.3897 64.4884 58.3081 64.5661C58.2265 64.6437 58.1159 64.6873 58.0005 64.6873C57.8851 64.6873 57.7744 64.6437 57.6928 64.5661C57.6113 64.4884 57.5654 64.3831 57.5654 64.2733C57.5654 64.1636 57.6113 64.0583 57.6928 63.9806C57.7744 63.903 57.8851 63.8594 58.0005 63.8594Z" fill="white"/>
<path d="M78.6977 32.7737C78.8131 32.7737 78.9238 32.8173 79.0054 32.8949C79.087 32.9726 79.1328 33.0779 79.1328 33.1877C79.1328 33.2974 79.087 33.4027 79.0054 33.4804C78.9238 33.558 78.8131 33.6016 78.6977 33.6016C78.5824 33.6016 78.4717 33.558 78.3901 33.4804C78.3085 33.4027 78.2627 33.2974 78.2627 33.1877C78.2627 33.0779 78.3085 32.9726 78.3901 32.8949C78.4717 32.8173 78.5824 32.7737 78.6977 32.7737Z" fill="white"/>
<path d="M33.4263 68.5259C33.5417 68.5259 33.6523 68.5695 33.7339 68.6471C33.8155 68.7248 33.8613 68.8301 33.8613 68.9399C33.8613 69.0496 33.8155 69.1549 33.7339 69.2326C33.6523 69.3102 33.5417 69.3538 33.4263 69.3538C33.3109 69.3538 33.2002 69.3102 33.1186 69.2326C33.037 69.1549 32.9912 69.0496 32.9912 68.9399C32.9912 68.8301 33.037 68.7248 33.1186 68.6471C33.2002 68.5695 33.3109 68.5259 33.4263 68.5259Z" fill="white"/>
<path d="M25.7571 45.4036C25.8337 45.4103 25.9048 45.444 25.9566 45.4981C26.0084 45.5522 26.0371 45.6227 26.0371 45.6959C26.0371 45.769 26.0084 45.8395 25.9566 45.8936C25.9048 45.9477 25.8337 45.9814 25.7571 45.9881C25.6805 45.9814 25.6094 45.9477 25.5576 45.8936C25.5058 45.8395 25.4771 45.769 25.4771 45.6959C25.4771 45.6227 25.5058 45.5522 25.5576 45.4981C25.6094 45.444 25.6805 45.4103 25.7571 45.4036Z" fill="white"/>
<path d="M15.6204 63.9822C15.6969 63.9889 15.7681 64.0227 15.8199 64.0767C15.8717 64.1308 15.9004 64.2013 15.9004 64.2745C15.9004 64.3476 15.8717 64.4182 15.8199 64.4722C15.7681 64.5263 15.6969 64.56 15.6204 64.5668C15.5438 64.56 15.4727 64.5263 15.4209 64.4722C15.3691 64.4182 15.3404 64.3476 15.3404 64.2745C15.3404 64.2013 15.3691 64.1308 15.4209 64.0767C15.4727 64.0227 15.5438 63.9889 15.6204 63.9822Z" fill="white"/>
<path d="M65.1817 6.34204C65.2636 6.34204 65.342 6.37297 65.3999 6.42802C65.4577 6.48307 65.4902 6.55773 65.4902 6.63559C65.4902 6.71344 65.4577 6.7881 65.3999 6.84315C65.342 6.8982 65.2636 6.92913 65.1817 6.92913C65.0999 6.92913 65.0214 6.8982 64.9636 6.84315C64.9057 6.7881 64.8732 6.71344 64.8732 6.63559C64.8732 6.55773 64.9057 6.48307 64.9636 6.42802C65.0214 6.37297 65.0999 6.34204 65.1817 6.34204Z" fill="white"/>
<path d="M83.2688 23.1519C83.3454 23.1586 83.4165 23.1923 83.4683 23.2464C83.5201 23.3005 83.5488 23.371 83.5488 23.4441C83.5488 23.5173 83.5201 23.5878 83.4683 23.6419C83.4165 23.696 83.3454 23.7297 83.2688 23.7364C83.1923 23.7297 83.1211 23.696 83.0693 23.6419C83.0175 23.5878 82.9888 23.5173 82.9888 23.4441C82.9888 23.371 83.0175 23.3005 83.0693 23.2464C83.1211 23.1923 83.1923 23.1586 83.2688 23.1519Z" fill="white"/>
<path d="M32.1647 29.9636C33.1482 29.9636 33.1482 31.4138 32.1647 31.4138C31.1812 31.4138 31.1812 29.9636 32.1647 29.9636Z" fill="white"/>
<path d="M98.2116 25.8391C99.1951 25.8391 99.1951 27.2893 98.2116 27.2893C97.2281 27.2893 97.2307 25.8391 98.2116 25.8391Z" fill="white"/>
<path d="M84.4802 65.3596C85.461 65.3596 85.4637 66.8123 84.4802 66.8123C83.4966 66.8123 83.4966 65.3596 84.4802 65.3596Z" fill="white"/>
<path d="M110.343 62.8133C110.422 66.3434 108.819 69.2538 104.969 70.7064C101.12 72.1591 97.85 71.0828 95.3714 68.4484C92.8929 65.814 92.2469 61.8048 94.053 59.4163C95.3451 57.7152 97.9423 57.374 99.2053 56.9073C100.468 56.4407 102.607 54.988 104.771 55.3844C107.835 55.9364 110.261 59.2808 110.343 62.8133Z" fill="#5076A7"/>
<path opacity="0.1" d="M95.3739 68.4582C97.8577 71.0851 101.122 72.1589 104.972 70.7162C108.821 69.2736 110.424 66.3532 110.343 62.8232C110.296 60.6491 109.391 58.5713 107.809 57.0024C109.02 58.3356 109.708 60.0276 109.755 61.7895C109.823 64.8654 108.436 67.3994 105.075 68.6665C101.713 69.9335 98.8781 68.9926 96.716 66.707C94.5538 64.4213 93.9922 60.9214 95.5795 58.8365C96.2071 58.0085 97.1906 57.5519 98.1266 57.2358C96.8083 57.6146 95.0522 58.1214 94.0687 59.4185C92.2493 61.8171 92.8901 65.8364 95.3739 68.4582Z" fill="black"/>
<path d="M98.1391 57.2359C98.4977 57.133 98.8273 57.0427 99.1016 56.9448C98.7983 57.0226 98.4714 57.123 98.1391 57.2359Z" fill="#5076A7"/>
<path opacity="0.3" d="M109.713 59.8301C108.787 57.848 107.076 56.3176 105.051 56.0015C102.905 55.6577 100.785 57.005 99.5139 57.4817C98.243 57.9584 95.6326 58.3975 94.3169 60.0484C93.0829 61.6014 92.9247 63.8293 93.6761 65.8766C92.719 63.6186 92.7717 61.1096 94.0611 59.4211C95.3505 57.7326 97.9503 57.3789 99.2133 56.9122C100.476 56.4455 102.615 54.9929 104.78 55.3893C106.944 55.7857 108.79 57.5645 109.713 59.8301Z" fill="white"/>
<path opacity="0.2" d="M103.902 56.8419C103.559 58.6759 106.903 63.5231 107.791 63.0113C108.68 62.4995 108.691 59.5816 108.182 58.3974C107.488 56.7842 104.124 55.6476 103.902 56.8419Z" fill="white"/>
<path opacity="0.2" d="M94.8638 64.8002C96.2164 64.2257 98.2309 59.8351 97.2817 59.4913C96.3325 59.1476 94.5658 60.4021 94.2231 61.2476C93.7537 62.3716 93.9857 65.1716 94.8638 64.8002Z" fill="white"/>
<path opacity="0.3" d="M95.3853 59.0299C96.7591 58.4001 98.3886 58.4227 99.7993 57.931C100.785 57.517 101.793 56.7844 102.774 56.3403C103.123 56.1698 103.492 56.0393 103.873 55.9514C102.882 56.5209 102.043 57.2736 101.075 57.8833C99.4433 59.0575 97.2943 58.7639 95.3853 59.0173V59.0299Z" fill="white"/>
<path opacity="0.5" d="M104.239 56.9975C103.918 58.3398 105.726 59.9856 106.478 59.8527C107.182 59.7272 107.707 58.9796 107.374 58.0964C106.926 56.8746 104.45 56.1244 104.239 56.9975Z" fill="white"/>
<path opacity="0.5" d="M106.416 60.4799C106.244 61.0219 107.188 61.5412 107.584 61.4409C107.979 61.3405 108.201 60.7158 108.029 60.3921C107.795 59.9506 106.526 60.1287 106.416 60.4799Z" fill="white"/>
<path opacity="0.1" d="M104.474 68.5637C101.721 68.4508 99.1028 67.668 97.0013 65.9619C96.6717 65.7311 96.4027 65.4601 96.0626 65.2092C96.1364 65.3924 96.2208 65.573 96.3104 65.7537C97.6763 68.5135 101.568 69.8758 104.484 68.5536L104.474 68.5637Z" fill="black"/>
<path d="M100.039 57.8957C100.039 57.8957 97.9798 46.455 90.3094 41.2766C82.9265 36.2913 77.3234 32.7788 77.3234 32.7788C77.3234 32.7788 75.3669 34.2842 76.6695 35.4885C76.6695 35.4885 84.5165 38.5895 90.4096 42.9525C96.3028 47.3156 98.6627 58.2043 98.6627 58.2043C99.1447 58.2496 99.629 58.141 100.039 57.8957Z" fill="#5076A7"/>
<path opacity="0.5" d="M100.039 57.8957C100.039 57.8957 97.9798 46.455 90.3094 41.2766C82.9265 36.2913 77.3234 32.7788 77.3234 32.7788C77.3234 32.7788 75.3669 34.2842 76.6695 35.4885C76.6695 35.4885 84.5165 38.5895 90.4096 42.9525C96.3028 47.3156 98.6627 58.2043 98.6627 58.2043C99.1447 58.2496 99.629 58.141 100.039 57.8957Z" fill="black"/>
<path d="M103.186 56.3904C101.807 56.6814 100.646 57.5545 99.3069 57.9283C97.9885 58.3574 96.5066 58.4301 95.2858 59.1151C96.6042 58.6283 98.0518 58.6133 99.3965 58.1918C100.741 57.7703 101.867 56.8972 103.186 56.3904Z" fill="#263238"/>
<path d="M97.3033 70.6837C96.159 74.2439 93.5433 76.655 89.1874 76.8984C84.8315 77.1417 81.9337 75.0418 80.3595 71.6296C78.7854 68.2175 79.5342 63.9974 82.1842 62.1735C84.0695 60.8763 86.7879 61.348 88.2171 61.2677C89.6462 61.1874 92.2882 60.4147 94.3185 61.491C97.1794 63.0114 98.4398 67.1236 97.3033 70.6837Z" fill="#5076A7"/>
<path opacity="0.1" d="M80.3589 71.6347C81.9409 75.0419 84.8282 77.1544 89.1867 76.9035C93.5453 76.6526 96.1583 74.249 97.3 70.6889C98.0037 68.4962 97.8155 66.132 96.7727 64.0653C97.524 65.7861 97.6228 67.702 97.0522 69.4846C96.066 72.5781 93.7905 74.6806 90.0015 74.8938C86.2125 75.1071 83.6733 73.2756 82.3127 70.3075C80.9522 67.3394 81.5929 63.6613 83.8948 62.0732C84.8124 61.4409 85.9541 61.2929 87.0009 61.2678C85.5375 61.2302 83.6179 61.19 82.1809 62.1786C79.5336 64.0051 78.7821 68.2301 80.3589 71.6347Z" fill="black"/>
<path d="M87.0195 61.2706C87.4124 61.2706 87.7736 61.2917 88.0742 61.2706C87.7499 61.2706 87.3913 61.26 87.0195 61.2706Z" fill="#5076A7"/>
<path opacity="0.3" d="M97.7051 67.5C97.4651 65.2269 96.2707 63.1645 94.3643 62.2036C92.3366 61.185 89.7473 61.8699 88.3156 61.9527C86.8838 62.0355 84.1126 61.6491 82.222 62.8885C80.4501 64.0552 79.5194 66.2355 79.5616 68.5211C79.3823 65.967 80.3051 63.4731 82.1825 62.181C84.0599 60.8889 86.7863 61.3556 88.2154 61.2753C89.6445 61.195 92.2865 60.4223 94.3168 61.4986C96.3471 62.5749 97.568 64.9434 97.7051 67.5Z" fill="white"/>
<path opacity="0.2" d="M92.9248 62.6827C91.9466 64.4138 93.6104 70.3123 94.6756 70.0815C95.7409 69.8507 96.7692 66.9303 96.669 65.5855C96.5319 63.754 93.5603 61.5587 92.9248 62.6827Z" fill="white"/>
<path opacity="0.2" d="M81.1184 67.8111C82.6714 67.658 86.2099 63.8971 85.3794 63.2549C84.5488 62.6126 82.3471 63.3126 81.7116 64.0427C80.8468 65.0337 80.1085 67.9089 81.1184 67.8111Z" fill="white"/>
<path opacity="0.3" d="M83.6435 62.1885C85.2388 61.9878 86.8604 62.5222 88.4424 62.472C89.5736 62.3667 90.8366 61.9502 91.973 61.8147C92.381 61.7533 92.7953 61.7382 93.207 61.7695C92.0126 62.048 90.9157 62.5222 89.7318 62.8408C87.6909 63.5007 85.6422 62.5322 83.6435 62.1885Z" fill="white"/>
<path opacity="0.5" d="M93.2095 62.9462C92.4185 64.2007 93.663 66.4035 94.462 66.5064C95.2082 66.6042 95.9939 66.0196 95.9702 65.0236C95.9385 63.6663 93.721 62.1383 93.2095 62.9462Z" fill="white"/>
<path opacity="0.5" d="M94.1772 67.1161C93.8186 67.6054 94.5832 68.4208 95.013 68.4433C95.4428 68.4659 95.8831 67.9114 95.8225 67.5351C95.7408 67.0183 94.4118 66.8075 94.1772 67.1161Z" fill="white"/>
<path opacity="0.1" d="M89.4336 74.5853C86.7019 73.6394 84.3341 72.0236 82.8417 69.6402C82.5965 69.304 82.4277 68.9377 82.172 68.5964C82.1852 68.8022 82.2115 69.0079 82.2405 69.2161C82.6809 72.3975 86.0717 74.9566 89.4336 74.5853Z" fill="black"/>
<path d="M88.9471 62.3642C88.9471 62.3642 89.7012 51.498 87.1804 45.2859C84.7573 39.3071 81.7092 35.7294 81.7092 35.7294C81.7092 35.7294 79.9979 35.4057 80.3222 36.7606C80.3222 36.7606 84.665 41.8361 86.4764 46.9694C88.2879 52.1027 87.6287 62.5047 87.6287 62.5047C87.6287 62.5047 88.4513 62.6377 88.9471 62.3642Z" fill="#5076A7"/>
<path opacity="0.5" d="M88.9471 62.3642C88.9471 62.3642 89.7012 51.498 87.1804 45.2859C84.7573 39.3071 81.7092 35.7294 81.7092 35.7294C81.7092 35.7294 79.9979 35.4057 80.3222 36.7606C80.3222 36.7606 84.665 41.8361 86.4764 46.9694C88.2879 52.1027 87.6287 62.5047 87.6287 62.5047C87.6287 62.5047 88.4513 62.6377 88.9471 62.3642Z" fill="black"/>
<path d="M92.3535 62.0054C90.8717 61.8599 89.4083 62.3717 87.9396 62.3265C86.4709 62.3416 84.9627 61.9427 83.4993 62.2513C84.997 62.1785 86.4419 62.6226 87.937 62.6176C89.4531 62.6527 90.8611 62.0982 92.3535 62.0054Z" fill="#263238"/>
</svg>
