<svg width="233" height="101" viewBox="0 0 233 101" fill="none" xmlns="http://www.w3.org/2000/svg">
<path d="M159.839 39.1837H73.5938V101H159.839V39.1837Z" fill="#F7BE39"/>
<path d="M124.657 39.1837H108.752V101H124.657V39.1837Z" fill="white"/>
<path d="M159.842 53.2629V74.5289H188.866L180.658 63.8937L188.866 53.2629H159.842Z" fill="#0D4EA2"/>
<path d="M175.626 80.9065V59.0132L159.842 53.2629V74.5289L175.626 80.9065Z" fill="#B31718"/>
<path d="M73.598 53.2629V74.5289H44.5742L52.7864 63.8937L44.5742 53.2629H73.598Z" fill="#0D4EA2"/>
<path d="M57.8105 80.9065V59.0132L73.5945 53.2629V74.5289L57.8105 80.9065Z" fill="#B31718"/>
<path d="M57.8034 80.9065L175.625 80.9065V59.0175L57.8034 59.0175V80.9065Z" fill="#3576CA"/>
<path d="M163.932 28.7001C162.764 24.1181 164.641 18.9996 168.497 16.2607L171.188 20.051C168.899 21.6778 167.744 24.832 168.436 27.5492L163.932 28.6958V28.7001Z" fill="#200F3B"/>
<path d="M27.1004 10.9059L24.2285 17.8324L29.2205 19.9022L32.0924 12.9757L27.1004 10.9059Z" fill="#200F3B"/>
<path d="M188.67 33.5557L185.588 38.2299L192.075 42.5075L195.157 37.8334L188.67 33.5557Z" fill="#3576CA"/>
<path d="M225.602 54.9423L222.52 59.6165L229.007 63.8941L232.089 59.22L225.602 54.9423Z" fill="#3576CA"/>
<path d="M30.7036 34.0524L28.4883 30.154C30.4786 29.0248 33.3602 25.0182 34.7058 22.7596L38.5566 25.0528C38.1369 25.7537 34.3683 31.9669 30.7036 34.0524Z" fill="#F7BE39"/>
<path d="M8.43002 58.6149L8.92759 61.6436C7.38295 61.8989 4.58354 63.7853 3.18168 64.9146L1.25195 62.5262C1.68463 62.1758 5.58302 59.0822 8.43002 58.6149Z" fill="#F7BE39"/>
<path d="M194.754 28.0381L192.547 27.6531C193.049 24.7844 193.568 21.8163 193.11 18.9693C192.984 18.1775 192.746 17.3165 192.383 16.4814C192.24 16.6199 192.089 16.7497 191.933 16.8752C190.548 17.9828 188.904 18.4717 187.303 18.2554C185.72 18.039 184.188 16.8795 183.491 15.3738C182.929 14.1536 182.985 12.8599 183.643 11.8258C184.924 9.82256 187.727 9.67978 189.722 10.5581C190.674 10.9778 191.544 11.6008 192.305 12.3797C192.361 12.1547 192.4 11.9254 192.418 11.6917C192.617 9.32065 191.141 6.70298 188.753 5.17997C186.719 3.88194 184.067 3.21995 180.653 3.15505C179.113 3.12909 177.529 3.21562 175.998 3.29783C174.561 3.37571 173.06 3.45792 171.602 3.44927L171.615 1.20802C173.025 1.22532 174.475 1.13878 175.876 1.0609C177.447 0.974361 179.07 0.883501 180.696 0.913788C184.534 0.983016 187.567 1.76184 189.96 3.28918C193.08 5.27948 194.923 8.65001 194.65 11.8778C194.577 12.7734 194.308 13.6647 193.88 14.4868C194.577 15.7069 195.074 17.1088 195.312 18.6145C195.827 21.8336 195.252 25.1306 194.745 28.0381H194.754ZM187.269 12.2758C186.542 12.2758 185.867 12.5008 185.534 13.0287C185.218 13.5219 185.356 14.0628 185.525 14.4305C185.906 15.257 186.762 15.9189 187.606 16.0314C188.597 16.1656 189.631 15.8454 190.531 15.1228C190.773 14.9281 190.998 14.7118 191.197 14.4825C190.57 13.695 189.783 13.0243 188.818 12.6003C188.346 12.3926 187.792 12.2715 187.269 12.2715V12.2758Z" fill="#F7BE39"/>
<path d="M51.3121 43.7788C50.7496 42.5413 50.0963 41.3039 49.4646 40.1054C48.755 38.7641 48.0195 37.3752 47.3877 35.9387C45.8993 32.5466 45.3542 29.5784 45.7263 26.8612C46.2109 23.3219 48.4218 20.3495 51.3597 19.2808C52.1731 18.9822 53.0601 18.8567 53.9557 18.9C54.7432 17.7967 55.773 16.7972 56.9931 15.9751C59.6021 14.2228 62.7261 13.3964 65.4822 12.6652L66.036 14.755C63.3188 15.4732 60.5108 16.2218 58.2003 17.7707C57.5556 18.2034 56.8979 18.7572 56.3138 19.4106C56.4912 19.4798 56.6643 19.562 56.8374 19.6442C58.369 20.41 59.4637 21.6518 59.9137 23.1445C60.3637 24.62 59.9656 26.4285 58.9272 27.6487C58.0835 28.6352 56.9282 29.1068 55.7557 28.9467C53.4841 28.6352 52.225 26.2338 52.1904 24.131C52.1731 23.1272 52.3678 22.1148 52.7443 21.1326C52.5236 21.1759 52.3073 21.2321 52.0996 21.31C49.9405 22.0931 48.2401 24.4426 47.8723 27.1511C47.5565 29.4616 48.0454 32.049 49.3694 35.0647C49.9665 36.4233 50.6804 37.7776 51.377 39.0886C52.026 40.3131 52.6967 41.5808 53.2851 42.8788L51.3164 43.7701L51.3121 43.7788ZM55.0374 21.2624C54.6004 22.1321 54.3322 23.0926 54.3495 24.1051C54.3668 25.2993 55.0244 26.6708 56.0499 26.8136C56.5994 26.8915 57.0277 26.554 57.283 26.2555C57.8541 25.5848 58.0878 24.568 57.8455 23.7849C57.5686 22.8676 56.8633 22.0888 55.8682 21.5912C55.5999 21.4571 55.323 21.3489 55.0374 21.2667V21.2624Z" fill="#3576CA"/>
<path d="M43.0412 13.8723C42.9114 14.6252 42.1932 15.1271 41.4403 14.9973C40.6875 14.8675 40.1856 14.1492 40.3154 13.3964C40.4452 12.6435 41.1634 12.1416 41.9163 12.2714C42.6691 12.4012 43.171 13.1195 43.0412 13.8723Z" fill="white"/>
<path d="M3.08027 45.5461C2.95047 46.299 2.23222 46.8009 1.47937 46.6711C0.726518 46.5413 0.224619 45.8231 0.354422 45.0702C0.484224 44.3173 1.20246 43.8154 1.95532 43.9452C2.70817 44.075 3.21007 44.7933 3.08027 45.5461Z" fill="white"/>
<path d="M181.342 25.7536C181.225 26.4285 180.58 26.8785 179.905 26.7617C179.23 26.6449 178.781 26.0002 178.897 25.3296C179.014 24.6589 179.659 24.2046 180.334 24.3214C181.009 24.4382 181.459 25.0829 181.342 25.7579V25.7536Z" fill="white"/>
<path d="M231.226 31.4587C231.109 32.1336 230.465 32.5836 229.794 32.4668C229.119 32.35 228.669 31.7053 228.786 31.0346C228.903 30.364 229.548 29.9097 230.223 30.0265C230.897 30.1433 231.347 30.788 231.231 31.463L231.226 31.4587Z" fill="white"/>
</svg>
