<svg width="27" height="27" viewBox="0 0 27 27" fill="none" xmlns="http://www.w3.org/2000/svg">
<path d="M13.4954 0C13.775 1.17927e-05 14.0451 0.101284 14.2558 0.285089C14.4665 0.468894 14.6036 0.722796 14.6416 0.999841L14.6524 1.15722L14.654 12.3437H25.8433C26.1365 12.3438 26.4187 12.4552 26.6329 12.6554C26.8471 12.8555 26.9773 13.1295 26.9973 13.4221C27.0173 13.7146 26.9255 14.0038 26.7405 14.2312C26.5555 14.4587 26.2911 14.6074 26.0007 14.6474L25.8433 14.6582H14.654L14.657 25.8447C14.6566 26.1377 14.5449 26.4197 14.3447 26.6336C14.1444 26.8476 13.8705 26.9776 13.5781 26.9974C13.2857 27.0171 12.9968 26.9252 12.7695 26.7402C12.5423 26.5552 12.3937 26.2908 12.3538 26.0005L12.343 25.8431L12.3399 14.6582H1.15669C0.863535 14.6581 0.581344 14.5467 0.367136 14.3465C0.152928 14.1464 0.0226739 13.8723 0.00269263 13.5798C-0.0172887 13.2873 0.074493 12.9981 0.259492 12.7707C0.444491 12.5432 0.708914 12.3945 0.999331 12.3545L1.15669 12.3437H12.3414L12.3383 1.15722C12.3383 0.850309 12.4602 0.555964 12.6772 0.338943C12.8942 0.121921 13.1885 0 13.4954 0Z" fill="#818393"/>
</svg>
