<svg width="56" height="54" viewBox="0 0 56 54" fill="none" xmlns="http://www.w3.org/2000/svg">
<path fill-rule="evenodd" clip-rule="evenodd" d="M31.1641 1.18347C30.8487 1.33999 30.5935 1.71794 29.4118 3.77803C28.6512 5.10424 27.9917 6.18933 27.9463 6.18933C27.9011 6.18933 27.4784 5.57602 27.0069 4.82642C26.3259 3.74333 26.0708 3.42482 25.7647 3.27522C25.4183 3.10601 25.3429 3.10223 25.0161 3.238C24.8161 3.32103 24.5752 3.49874 24.4806 3.63303C24.386 3.76723 24.3086 4.0157 24.3086 4.18501C24.3086 4.38903 24.6111 4.97686 25.2051 5.92723C25.6981 6.71614 26.1016 7.38795 26.1016 7.42014C26.1016 7.45243 25.7337 7.55884 25.2842 7.65676C24.8347 7.75468 23.9899 8.01877 23.4069 8.24355C22.8241 8.46843 21.8749 8.93139 21.2976 9.27244C20.7203 9.61348 19.7481 10.2923 19.137 10.7811C18.526 11.2698 17.6414 12.0736 17.1712 12.5673C16.7011 13.061 16 13.8565 15.613 14.3352C15.2262 14.8138 14.54 15.748 14.0881 16.4111C13.6363 17.0742 12.9929 18.0813 12.6582 18.6491C12.3237 19.2168 11.6337 20.5378 11.1249 21.5846C10.6161 22.6314 9.93805 24.1483 9.61796 24.9555C9.29786 25.7628 8.77769 27.2017 8.46202 28.1531C8.14635 29.1045 7.75243 30.3783 7.58663 30.9838C7.2853 32.0846 7.2853 32.0846 5.11581 34.7056C3.92254 36.1471 2.84064 37.4626 2.71144 37.629C2.57296 37.8072 2.47656 38.0796 2.47656 38.2923C2.47656 38.5514 2.56357 38.7396 2.78485 38.9596C2.95444 39.1282 3.17983 39.2726 3.28582 39.2804C3.39182 39.2883 3.98867 39.2832 4.6123 39.2691C5.39098 39.2515 5.74609 39.28 5.74609 39.3603C5.74609 39.4246 5.67532 39.9451 5.58894 40.5172C5.50246 41.0892 5.3373 42.4689 5.2217 43.583C5.10622 44.6973 4.95466 46.7764 4.88494 48.2036L4.75817 50.7984H3.403C2.48268 50.7984 1.93498 50.8452 1.69599 50.9445C1.50235 51.0249 1.26663 51.2005 1.17202 51.3348C1.07741 51.469 1 51.7231 1 51.8992C1 52.0753 1.07741 52.3293 1.17202 52.4635C1.26663 52.5978 1.50235 52.7734 1.69599 52.8539C1.99373 52.9775 6.04383 53 28 53C49.9562 53 54.0063 52.9775 54.304 52.8539C54.4977 52.7734 54.7334 52.5978 54.828 52.4635C54.9226 52.3293 55 52.0753 55 51.8992C55 51.7231 54.9226 51.469 54.828 51.3348C54.7334 51.2005 54.4977 51.0249 54.304 50.9445C54.0642 50.8449 53.5145 50.7984 52.5776 50.7984H51.2031V49.9227C51.2031 49.4409 51.1545 48.0846 51.095 46.9085C51.0356 45.7323 50.9165 44.0153 50.8303 43.0927C50.744 42.1701 50.6433 41.1841 50.6063 40.9015C50.5608 40.5547 50.4447 40.2829 50.2491 40.0652C50.0123 39.8018 49.8777 39.7426 49.5156 39.7426C49.1447 39.7426 49.0199 39.8008 48.7529 40.0979C48.4456 40.4395 48.4363 40.4792 48.5029 41.1438C48.5411 41.5238 48.6407 42.5659 48.7242 43.4596C48.8076 44.3534 48.9247 46.1226 48.9842 47.3911C49.0437 48.6597 49.0927 49.9453 49.093 50.248L49.0938 50.7984H27.9881H6.88241L6.95308 49.1996C6.992 48.3203 7.09304 46.7044 7.17773 45.6088C7.26231 44.5133 7.42568 42.8856 7.54086 41.9919C7.65592 41.0981 7.82045 39.9423 7.90641 39.4233C7.99237 38.9044 8.06356 38.3291 8.06461 38.1449C8.06567 37.9403 7.96758 37.6957 7.81223 37.5159C7.58262 37.2501 7.4762 37.2167 6.71229 37.1693L5.86654 37.1169L7.39805 35.2822C8.24043 34.2731 8.99632 33.3498 9.07785 33.2304C9.15938 33.111 9.38772 32.4269 9.58537 31.7102C9.78302 30.9935 10.1442 29.7939 10.3881 29.0443C10.6319 28.2947 11.1662 26.8322 11.5755 25.7942C11.9847 24.7563 12.7989 22.9636 13.385 21.8104C13.971 20.6571 14.7537 19.2351 15.1242 18.6502C15.4947 18.0653 16.1442 17.1235 16.5676 16.5573C16.991 15.9911 17.7071 15.1251 18.1589 14.6328C18.6109 14.1405 19.3606 13.3931 19.8252 12.9719C20.2898 12.5507 21.0456 11.9498 21.5047 11.6366C21.9638 11.3233 22.7706 10.8559 23.2977 10.5979C23.8247 10.3399 24.683 10.0032 25.2051 9.84958C25.9814 9.62113 26.4327 9.56137 27.6836 9.52153C28.9644 9.48065 29.3721 9.5078 30.1933 9.68833C30.7326 9.80691 31.5786 10.068 32.0732 10.2684C32.5679 10.4689 33.3303 10.8546 33.7675 11.1254C34.2047 11.3963 34.9012 11.887 35.3154 12.216C35.7295 12.545 36.4647 13.2107 36.9491 13.6953C37.4337 14.18 38.1863 15.0158 38.6217 15.5527C39.0571 16.0897 39.8003 17.104 40.2731 17.8068C40.7459 18.5096 41.27 19.2968 41.4375 19.5563C41.605 19.8158 42.7608 20.9952 44.0057 22.1773L46.2692 24.3265L45.6512 24.4596C45.2045 24.5559 44.9528 24.6798 44.7432 24.9069C44.5681 25.0964 44.4531 25.3398 44.4531 25.5206C44.4531 25.6854 44.7077 26.4514 45.019 27.2226C45.3302 27.9939 45.8069 29.309 46.0783 30.1451C46.3497 30.9812 46.6238 31.7972 46.6875 31.9585C46.7511 32.1198 46.9365 32.3203 47.0994 32.404C47.2624 32.4878 47.5442 32.5564 47.7255 32.5564C47.9494 32.5564 48.1543 32.4579 48.3636 32.2499C48.5898 32.025 48.6719 31.8433 48.6719 31.5672C48.6719 31.3603 48.3907 30.3541 48.0471 29.3313C47.7034 28.3085 47.3236 27.2433 47.203 26.9643C47.0824 26.6851 47.0104 26.4138 47.043 26.3614C47.0756 26.3089 47.1732 26.266 47.2599 26.266C47.3465 26.266 47.7567 26.1893 48.1715 26.0956C48.7094 25.9739 49.0103 25.8409 49.2206 25.6318C49.4313 25.4225 49.5156 25.2337 49.5156 24.9717C49.5156 24.7365 49.4241 24.4964 49.2607 24.3036C49.1205 24.138 47.7171 22.7789 46.1418 21.2833C43.7009 18.9661 43.2017 18.44 42.7639 17.7236C42.4814 17.2612 41.9035 16.4038 41.4796 15.8182C41.0558 15.2325 40.318 14.2841 39.8402 13.7104C39.3625 13.1367 38.6 12.3146 38.1461 11.8835C37.6921 11.4524 36.944 10.804 36.4836 10.4428C36.0232 10.0815 35.2193 9.53307 34.6973 9.224C34.1752 8.91494 33.2734 8.47493 32.6934 8.24617C32.1133 8.01741 31.2353 7.74755 30.7422 7.64659C30.2491 7.54563 29.8294 7.45107 29.8094 7.4366C29.7894 7.42203 30.4183 6.28232 31.2069 4.90379C32.1525 3.25079 32.6406 2.29246 32.6406 2.08896C32.6406 1.91923 32.5632 1.67045 32.4686 1.53625C32.374 1.40195 32.1383 1.22635 31.9446 1.14594C31.7511 1.06552 31.5793 0.999895 31.5629 1C31.5466 1 31.3671 1.08261 31.1641 1.18347ZM34.2184 16.1784C34.0193 16.2776 33.7972 16.4767 33.7247 16.6208C33.6523 16.765 33.5923 17.2486 33.5914 17.6954C33.5906 18.1422 33.5701 18.5079 33.5461 18.5079C33.5219 18.5079 33.2471 18.244 32.9353 17.9216C32.4632 17.4332 32.3051 17.3334 31.99 17.3245C31.7819 17.3186 31.4851 17.3963 31.3304 17.4971C31.1758 17.5977 30.9994 17.8075 30.9386 17.963C30.8709 18.136 30.8624 18.3775 30.9168 18.5848C30.9725 18.797 31.5384 19.5184 32.4297 20.5135C33.2298 21.4069 33.9921 22.1613 34.1699 22.2356C34.3439 22.3083 34.6131 22.3438 34.768 22.3144C34.923 22.285 35.1603 22.144 35.2954 22.0012C35.5044 21.7802 35.5512 21.5905 35.6096 20.7275C35.6472 20.1698 35.6829 19.0421 35.6887 18.2213C35.6992 16.7311 35.6988 16.7285 35.4092 16.4229C35.2497 16.2546 34.998 16.0901 34.8498 16.0575C34.6929 16.0229 34.4292 16.0735 34.2184 16.1784ZM19.9132 21.8061C19.729 21.8857 19.4977 22.0732 19.3992 22.2227C19.2343 22.4728 19.2301 22.6847 19.3451 24.8783C19.4388 26.664 19.5103 27.3233 19.63 27.5067C19.718 27.6412 19.9482 27.817 20.1417 27.8974C20.4126 28.0099 20.5698 28.0173 20.8238 27.9292C21.0459 27.8522 21.5588 27.3472 22.3918 26.3852C23.0727 25.5989 23.7351 24.8195 23.8637 24.6531C23.9924 24.4867 24.0977 24.2024 24.0977 24.0212C24.0977 23.8399 24.0202 23.5818 23.9256 23.4476C23.831 23.3133 23.5937 23.1371 23.3983 23.056C23.0932 22.9292 22.9929 22.9291 22.6888 23.0554C22.494 23.1364 22.15 23.4227 21.9242 23.6917C21.5137 24.1809 21.5137 24.1809 21.447 23.8868C21.4104 23.7249 21.3748 23.3319 21.3679 23.0132C21.3604 22.6651 21.2868 22.3361 21.1834 22.1896C21.0888 22.0553 20.8531 21.8797 20.6595 21.7992C20.4659 21.7188 20.2941 21.655 20.2778 21.6572C20.2614 21.6595 20.0973 21.7265 19.9132 21.8061ZM15.502 34.3791C15.3278 34.4545 15.1303 34.5824 15.0629 34.6633C14.9955 34.7443 14.4615 35.8182 13.8764 37.0499C13.2737 38.3184 12.8125 39.4242 12.8125 39.6003C12.8125 39.8042 12.9186 40.0167 13.1208 40.2177C13.2904 40.3863 13.5158 40.5297 13.6218 40.5365C13.7278 40.5434 13.8856 40.5399 13.9727 40.5287C14.0597 40.5175 14.8881 40.27 15.8135 39.9787C17.0782 39.5806 17.5696 39.3762 17.791 39.1559C17.9967 38.9516 18.0859 38.7565 18.0859 38.5111C18.0859 38.3178 18.0085 38.0496 17.9139 37.9154C17.8193 37.7811 17.5861 37.6066 17.3956 37.5275C17.1001 37.4048 16.975 37.4058 16.5442 37.5348C16.2664 37.6178 16.0223 37.6691 16.0017 37.6486C15.9811 37.6281 16.1806 37.1512 16.4451 36.5887C16.7095 36.0262 16.9258 35.442 16.9258 35.2902C16.9258 35.1385 16.8484 34.9045 16.7538 34.7703C16.6592 34.636 16.4234 34.4604 16.2298 34.3799C16.0363 34.2995 15.8644 34.2357 15.8481 34.2379C15.8318 34.2402 15.676 34.3037 15.502 34.3791ZM48.0309 35.379C47.7962 35.6123 47.7232 35.7811 47.725 36.0866C47.7262 36.3074 47.8092 36.5884 47.9095 36.7115C48.0098 36.8344 48.1955 36.9878 48.3221 37.0522C48.4489 37.1166 48.679 37.1693 48.8337 37.1693C49.0129 37.1693 49.245 37.0399 49.4734 36.8128C49.7019 36.5858 49.832 36.355 49.832 36.1769C49.832 36.0232 49.779 35.7944 49.7142 35.6684C49.6495 35.5425 49.4952 35.358 49.3714 35.2583C49.2476 35.1586 48.965 35.0761 48.7429 35.0748C48.4355 35.073 48.2657 35.1456 48.0309 35.379ZM40.2742 38.2635C40.0932 38.3418 39.8678 38.5156 39.7733 38.6496C39.6789 38.7837 39.6016 39.0535 39.6016 39.249C39.6016 39.5506 39.7245 39.7303 40.4108 40.4314C41.1649 41.2015 41.2007 41.258 40.9348 41.258C40.7779 41.258 40.4911 41.3238 40.2976 41.4042C40.1039 41.4846 39.8682 41.6602 39.7736 41.7945C39.679 41.9287 39.6016 42.1827 39.6016 42.3588C39.6016 42.535 39.679 42.789 39.7736 42.9232C39.8682 43.0575 40.1039 43.2331 40.2976 43.3135C40.5456 43.4165 41.1181 43.4596 42.2383 43.4596C43.3585 43.4596 43.931 43.4165 44.179 43.3135C44.3727 43.2331 44.6084 43.0575 44.703 42.9232C44.7976 42.789 44.875 42.5159 44.875 42.3163C44.875 41.9875 44.7093 41.787 43.1084 40.1786C42.1368 39.2024 41.1891 38.3384 41.0024 38.2584C40.8157 38.1783 40.6496 38.1147 40.6333 38.1169C40.6169 38.1192 40.4553 38.1852 40.2742 38.2635ZM25.5086 39.8369C25.3275 39.9148 25.1021 40.0882 25.0076 40.2222C24.9132 40.3563 24.8359 40.5909 24.8359 40.7437C24.8359 40.8963 25.2163 42.0258 25.6811 43.2535C26.1459 44.4812 26.5848 45.5561 26.6566 45.6422C26.7284 45.7281 26.945 45.8642 27.138 45.9443C27.4496 46.0738 27.5321 46.0691 27.8749 45.902C28.1998 45.7436 28.4911 45.3478 29.7111 43.4072C30.7375 41.7748 31.1617 41.008 31.1627 40.7834C31.1634 40.6087 31.0866 40.3561 30.992 40.2219C30.8974 40.0876 30.6565 39.9099 30.4566 39.8269C30.1297 39.6911 30.0544 39.6949 29.7089 39.8641C29.4104 40.0103 29.1547 40.3215 28.5633 41.258C28.1446 41.9211 27.7679 42.4547 27.7261 42.4437C27.6844 42.4327 27.456 41.9183 27.2187 41.3004C26.9234 40.5317 26.7038 40.1185 26.5234 39.9922C26.3784 39.8906 26.1648 39.7823 26.0488 39.7515C25.9328 39.7206 25.6897 39.759 25.5086 39.8369Z" fill="#EBEDF4" stroke="#EBEDF4" stroke-width="1.2"/>
</svg>
