<svg width="74" height="58" viewBox="0 0 74 58" fill="none" xmlns="http://www.w3.org/2000/svg">
<path fill-rule="evenodd" clip-rule="evenodd" d="M54.4402 0.0986837C54.3871 0.152834 54.3438 1.14988 54.3438 2.31411V4.43086L56.5479 4.47169L58.752 4.51252L58.792 6.69481L58.8319 8.8771H29.416H0V28.9985V49.1199H29.416H58.8319L58.792 51.3022L58.752 53.4845L56.5439 53.5253L54.3361 53.5662L54.376 55.7446L54.416 57.9231L60.9561 57.9615L67.4961 58V55.7792V53.5585H65.3281H63.1602V51.3392V49.1199H68.5801H74V28.9985V8.8771H68.5801H63.1602V6.65782V4.43855H65.3281H67.4961V2.21927V0H61.0163C57.4523 0 54.493 0.0443855 54.4402 0.0986837ZM58.8242 28.9985V44.5334H31.5801H4.33594V28.9985V13.4636H31.5801H58.8242V28.9985ZM69.6641 28.9985V44.5334H66.4121H63.1602V28.9985V13.4636H66.4121H69.6641V28.9985ZM10.8398 20.1214V22.3407H13.0078H15.1758V28.9985V35.6563H13.0078H10.8398V37.8756V40.0949H17.416H23.9922V37.8756V35.6563H21.8242H19.6562V26.7792V17.9021H15.248H10.8398V20.1214ZM28.3281 20.1214V22.3407H31.5801H34.832V24.56V26.7792H31.5801H28.3281V33.4371V40.0949H33.748H39.168V37.8756V35.6563H35.916H32.6641V33.4371V31.2178H35.916H39.168V24.56V17.9021H33.748H28.3281V20.1214ZM43.5039 20.1214V22.3407H46.7559H50.0078V24.56V26.7792H47.8398H45.6719V28.9985V31.2178H47.8398H50.0078V33.4371V35.6563H46.7559H43.5039V37.8756V40.0949H48.9961H54.4883V28.9985V17.9021H48.9961H43.5039V20.1214Z" fill="#EBEDF4"/>
</svg>
