<svg width="36" height="64" viewBox="0 0 36 64" fill="none" xmlns="http://www.w3.org/2000/svg">
<path fill-rule="evenodd" clip-rule="evenodd" d="M6.02867 0.622705C5.36511 0.963691 4.4379 1.52775 3.96814 1.87624C3.4985 2.22485 2.81272 2.86807 2.44417 3.30571C2.07575 3.74335 1.57996 4.4177 1.3426 4.8042C1.10511 5.19083 0.705582 6.08137 0.454636 6.7831C0.00608146 8.03801 -0.00141167 8.09128 0.000112293 9.99727C0.00163626 11.8576 0.0181464 11.9823 0.413743 13.1052C0.640433 13.7486 1.1676 14.8506 1.58529 15.5542C2.34473 16.8335 2.34474 16.8335 2.03359 17.7344C1.8624 18.23 1.61082 19.1536 1.47468 19.7869C1.33841 20.4202 1.15007 21.4448 1.05609 22.0637C0.944083 22.802 0.887188 24.3505 0.89087 26.5652C0.894807 28.9746 0.959957 30.4605 1.11845 31.7544C1.24062 32.7516 1.45525 34.2427 1.59545 35.068C1.73553 35.8933 2.02369 37.3281 2.23577 38.2565C2.44773 39.185 2.81285 40.6198 3.0469 41.4451C3.28108 42.2703 3.71668 43.6208 4.015 44.4461C4.55741 45.9465 4.55741 45.9465 4.63729 51.1357C4.70498 55.5319 4.75082 56.4396 4.93789 57.0752C5.05943 57.4878 5.35533 58.2307 5.59548 58.726C5.83576 59.2211 6.31848 59.9774 6.6681 60.4065C7.01785 60.8355 7.65995 61.485 8.09504 61.8499C8.53013 62.2147 9.34329 62.7352 9.90208 63.0064C10.4609 63.2777 11.261 63.5973 11.68 63.7167C12.3317 63.9024 13.1761 63.9408 17.5074 63.9823C21.8317 64.0236 22.7237 64.0007 23.6033 63.826C24.1701 63.7134 25.0064 63.4675 25.4617 63.2797C25.9169 63.0918 26.6483 62.6983 27.0868 62.4051C27.5254 62.1118 28.1915 61.5644 28.5672 61.1885C28.9429 60.8127 29.4643 60.1876 29.7261 59.7993C29.9878 59.4112 30.3589 58.7239 30.5508 58.272C30.7427 57.8201 30.9901 57.0165 31.1005 56.4865C31.262 55.7106 31.3011 54.6253 31.3011 50.921C31.3011 46.3193 31.3011 46.3193 32.0047 44.2574C32.3916 43.1232 32.9903 41.07 33.3351 39.6945C33.6799 38.319 34.1028 36.3778 34.275 35.3806C34.4471 34.3834 34.6888 32.7516 34.8119 31.7544C34.9721 30.4587 35.0376 28.9956 35.0416 26.6277C35.045 24.516 34.9857 22.8832 34.8779 22.1262C34.7848 21.4729 34.5966 20.4202 34.4595 19.7869C34.3225 19.1536 34.0704 18.23 33.8992 17.7344C33.5881 16.8335 33.5881 16.8335 34.3323 15.5723C34.7416 14.8787 35.2036 13.9736 35.3589 13.5609C35.5144 13.1483 35.7221 12.3978 35.8207 11.8931C35.9194 11.3885 36 10.5059 36 9.93188C36 9.35794 35.9177 8.50291 35.8171 8.03201C35.7164 7.5611 35.4788 6.76334 35.2891 6.25905C35.0992 5.75489 34.662 4.91699 34.3173 4.39719C33.9726 3.8774 33.3672 3.1349 32.9721 2.74728C32.5769 2.35965 31.9107 1.81422 31.4916 1.53525C31.0725 1.25629 30.2501 0.79076 29.6641 0.50079C29.0252 0.184686 28.5675 0.0243839 28.5211 0.100409C28.4785 0.170182 27.4721 2.03592 26.2847 4.24627C24.1258 8.26521 24.1258 8.26521 23.7448 8.20256C23.5352 8.16818 22.8209 8.03901 22.1573 7.91559C21.2122 7.73979 20.3043 7.69114 17.9664 7.69114C15.6285 7.69114 14.7206 7.73979 13.7755 7.91559C13.1119 8.03901 12.3976 8.16805 12.188 8.20219C11.807 8.26446 11.807 8.26446 9.58459 4.13085C8.36224 1.85736 7.33356 -0.00149958 7.29864 9.07772e-07C7.26372 0.0015014 6.69223 0.281718 6.02867 0.622705ZM8.18406 9.55963C9.18023 11.4165 10.0028 12.9436 10.0122 12.9532C10.0215 12.9629 10.4577 12.8076 10.9816 12.6083C11.5054 12.4088 12.0217 12.2183 12.1287 12.1845C12.2937 12.1327 12.3158 12.2534 12.2744 12.9765C12.2437 13.5108 12.3032 14.1284 12.4335 14.6294C12.581 15.1961 13.1404 16.2812 14.3523 18.3511L16.0628 21.2731L16.0305 31.661L15.9979 42.0489L12.2515 43.2798C10.191 43.9568 8.4091 44.5408 8.29176 44.5777C8.11523 44.6334 7.97833 44.3436 7.4998 42.9017C7.18155 41.9429 6.69439 40.2944 6.41728 39.2386C6.1403 38.1826 5.76998 36.5591 5.59459 35.6307C5.41908 34.7022 5.19125 33.2955 5.08813 32.5046C4.985 31.7138 4.88023 30.8557 4.85521 30.5978C4.80975 30.1289 4.80975 30.1289 6.62568 30.1289H8.44161V28.2533V26.3776H6.51812H4.59462L4.68275 24.816C4.73114 23.9571 4.8542 22.7052 4.95592 22.0338C5.05777 21.3626 5.25919 20.3632 5.40346 19.813C5.54786 19.2628 5.8783 18.3046 6.13801 17.6837L6.61019 16.5545L5.42746 14.5576C4.77699 13.4593 4.15648 12.2793 4.04866 11.9354C3.94071 11.5915 3.82184 10.8882 3.7845 10.3724C3.73853 9.73806 3.78171 9.1615 3.91823 8.59056C4.02923 8.12629 4.28716 7.42293 4.49149 7.02755C4.69571 6.63205 5.07555 6.06586 5.33564 5.76914L5.80846 5.22959L6.09064 5.70662C6.24596 5.96896 7.1879 7.70277 8.18406 9.55963ZM31.444 7.02755C31.6468 7.42293 31.9036 8.12629 32.0146 8.59056C32.1511 9.1615 32.1943 9.73806 32.1483 10.3724C32.111 10.8882 31.9921 11.5915 31.8841 11.9354C31.7763 12.2793 31.1558 13.4593 30.5053 14.5576L29.3226 16.5545L29.7948 17.6837C30.0545 18.3046 30.3849 19.2628 30.5293 19.813C30.6736 20.3632 30.875 21.3626 30.9769 22.0338C31.0786 22.7052 31.2017 23.9571 31.2501 24.816L31.3382 26.3776H29.4147H27.4912V28.2533V30.1289H29.3079H31.1247L31.0197 31.1605C30.962 31.7278 30.7403 33.233 30.5271 34.5053C30.3137 35.7776 29.8925 37.7751 29.5907 38.9443C29.289 40.1134 28.7749 41.8743 28.4482 42.8574C27.9566 44.3371 27.8177 44.6334 27.641 44.5777C27.5237 44.5408 25.7418 43.9568 23.6813 43.2798L19.9349 42.0489L19.9023 31.661L19.87 21.2731L21.5805 18.3511C22.7924 16.2812 23.3518 15.1961 23.4993 14.6294C23.6296 14.1284 23.6891 13.5108 23.6584 12.9765C23.617 12.2534 23.6391 12.1327 23.8041 12.1845C23.9111 12.2183 24.4274 12.4081 24.9512 12.6064L25.9037 12.9671L26.3213 12.2011C26.5509 11.7799 27.4932 10.0364 28.4153 8.32673L30.0918 5.21833L30.5834 5.76339C30.8538 6.06324 31.241 6.63205 31.444 7.02755ZM18.8699 11.6458C19.1941 11.8252 19.4557 12.1068 19.6326 12.4667C19.8222 12.8522 19.8804 13.1454 19.8289 13.4573C19.7888 13.7009 19.3711 14.5694 18.9007 15.3874C18.4303 16.2053 18.01 16.8745 17.9664 16.8745C17.9228 16.8745 17.5025 16.2053 17.0321 15.3874C16.5617 14.5694 16.144 13.7009 16.1039 13.4573C16.0526 13.1458 16.1105 12.8525 16.2991 12.4688C16.4686 12.1241 16.743 11.823 17.0447 11.6508C17.3072 11.501 17.7142 11.3772 17.9491 11.3756C18.1841 11.374 18.5983 11.4956 18.8699 11.6458ZM22.7301 46.9262L27.4277 48.4685L27.4617 51.7716C27.4819 53.7348 27.4417 55.3314 27.3624 55.7079C27.289 56.0562 27.0607 56.6917 26.8549 57.12C26.6381 57.5711 26.1947 58.1804 25.8006 58.5684C25.4266 58.9368 24.8262 59.3849 24.4665 59.5644C24.1068 59.7438 23.4852 59.9746 23.0853 60.0772C22.5085 60.2251 21.4494 60.2637 17.9664 60.2637C14.4834 60.2637 13.4243 60.2251 12.8475 60.0772C12.4476 59.9746 11.826 59.7438 11.4663 59.5644C11.1067 59.3849 10.5062 58.9368 10.1322 58.5684C9.73813 58.1804 9.29465 57.5711 9.07787 57.12C8.87213 56.6917 8.6438 56.0562 8.57039 55.7079C8.49114 55.3314 8.45088 53.7347 8.47108 51.7713L8.50511 48.4681L13.1405 46.9359C15.69 46.0931 17.8337 45.3991 17.9042 45.3937C17.9748 45.3884 20.1464 46.078 22.7301 46.9262ZM12.2515 54.6369V56.5125H14.1565H16.0614V54.6369V52.7613H14.1565H12.2515V54.6369ZM19.8714 54.6369V56.5125H21.7763H23.6813V54.6369V52.7613H21.7763H19.8714V54.6369Z" fill="#EBEDF4"/>
</svg>
