<svg width="24" height="25" viewBox="0 0 24 25" fill="none" xmlns="http://www.w3.org/2000/svg">
<path d="M6.9009 0.925926C6.9009 0.680355 6.80608 0.444842 6.6373 0.271198C6.46852 0.0975527 6.2396 0 6.0009 0C5.76221 0 5.53329 0.0975527 5.36451 0.271198C5.19572 0.444842 5.1009 0.680355 5.1009 0.925926V2.87654C3.3729 3.01852 2.2401 3.36667 1.4073 4.22469C0.573303 5.08148 0.234903 6.24815 0.0957031 8.02469H23.9061C23.7669 6.24692 23.4285 5.08148 22.5945 4.22469C21.7617 3.36667 20.6277 3.01852 18.9009 2.87531V0.925926C18.9009 0.680355 18.8061 0.444842 18.6373 0.271198C18.4685 0.0975527 18.2396 0 18.0009 0C17.7622 0 17.5333 0.0975527 17.3645 0.271198C17.1957 0.444842 17.1009 0.680355 17.1009 0.925926V2.79383C16.3029 2.77778 15.4077 2.77778 14.4009 2.77778H9.6009C8.5941 2.77778 7.6989 2.77778 6.9009 2.79383V0.925926Z" fill="white"/>
<path fill-rule="evenodd" clip-rule="evenodd" d="M0 12.6544C0 11.6186 1.3411e-08 10.6976 0.0156 9.87659H23.9844C24 10.6976 24 11.6186 24 12.6544V15.1235C24 19.7791 24 22.1075 22.5936 23.5531C21.1884 25 18.9252 25 14.4 25H9.6C5.0748 25 2.8116 25 1.4064 23.5531C-1.43051e-07 22.1075 0 19.7791 0 15.1235V12.6544ZM18 15.1235C18.3183 15.1235 18.6235 14.9934 18.8485 14.7619C19.0736 14.5304 19.2 14.2164 19.2 13.8889C19.2 13.5615 19.0736 13.2475 18.8485 13.016C18.6235 12.7844 18.3183 12.6544 18 12.6544C17.6817 12.6544 17.3765 12.7844 17.1515 13.016C16.9264 13.2475 16.8 13.5615 16.8 13.8889C16.8 14.2164 16.9264 14.5304 17.1515 14.7619C17.3765 14.9934 17.6817 15.1235 18 15.1235ZM18 20.0618C18.3183 20.0618 18.6235 19.9317 18.8485 19.7002C19.0736 19.4687 19.2 19.1546 19.2 18.8272C19.2 18.4998 19.0736 18.1858 18.8485 17.9542C18.6235 17.7227 18.3183 17.5926 18 17.5926C17.6817 17.5926 17.3765 17.7227 17.1515 17.9542C16.9264 18.1858 16.8 18.4998 16.8 18.8272C16.8 19.1546 16.9264 19.4687 17.1515 19.7002C17.3765 19.9317 17.6817 20.0618 18 20.0618ZM13.2 13.8889C13.2 14.2164 13.0736 14.5304 12.8485 14.7619C12.6235 14.9934 12.3183 15.1235 12 15.1235C11.6817 15.1235 11.3765 14.9934 11.1515 14.7619C10.9264 14.5304 10.8 14.2164 10.8 13.8889C10.8 13.5615 10.9264 13.2475 11.1515 13.016C11.3765 12.7844 11.6817 12.6544 12 12.6544C12.3183 12.6544 12.6235 12.7844 12.8485 13.016C13.0736 13.2475 13.2 13.5615 13.2 13.8889ZM13.2 18.8272C13.2 19.1546 13.0736 19.4687 12.8485 19.7002C12.6235 19.9317 12.3183 20.0618 12 20.0618C11.6817 20.0618 11.3765 19.9317 11.1515 19.7002C10.9264 19.4687 10.8 19.1546 10.8 18.8272C10.8 18.4998 10.9264 18.1858 11.1515 17.9542C11.3765 17.7227 11.6817 17.5926 12 17.5926C12.3183 17.5926 12.6235 17.7227 12.8485 17.9542C13.0736 18.1858 13.2 18.4998 13.2 18.8272ZM6 15.1235C6.31826 15.1235 6.62348 14.9934 6.84853 14.7619C7.07357 14.5304 7.2 14.2164 7.2 13.8889C7.2 13.5615 7.07357 13.2475 6.84853 13.016C6.62348 12.7844 6.31826 12.6544 6 12.6544C5.68174 12.6544 5.37652 12.7844 5.15147 13.016C4.92643 13.2475 4.8 13.5615 4.8 13.8889C4.8 14.2164 4.92643 14.5304 5.15147 14.7619C5.37652 14.9934 5.68174 15.1235 6 15.1235ZM6 20.0618C6.31826 20.0618 6.62348 19.9317 6.84853 19.7002C7.07357 19.4687 7.2 19.1546 7.2 18.8272C7.2 18.4998 7.07357 18.1858 6.84853 17.9542C6.62348 17.7227 6.31826 17.5926 6 17.5926C5.68174 17.5926 5.37652 17.7227 5.15147 17.9542C4.92643 18.1858 4.8 18.4998 4.8 18.8272C4.8 19.1546 4.92643 19.4687 5.15147 19.7002C5.37652 19.9317 5.68174 20.0618 6 20.0618Z" fill="white"/>
</svg>
