<svg width="18" height="14" viewBox="0 0 18 14" fill="none" xmlns="http://www.w3.org/2000/svg">
<path d="M15.9231 1.82609H13.5242L12.3447 0.27087C12.2815 0.187594 12.1959 0.119307 12.0956 0.0720586C11.9952 0.0248106 11.8831 6.01124e-05 11.7692 0H6.23077C6.11691 6.01124e-05 6.00482 0.0248106 5.90444 0.0720586C5.80406 0.119307 5.71848 0.187594 5.65529 0.27087L4.4749 1.82609H2.07692C1.52609 1.82609 0.997815 2.01848 0.608317 2.36094C0.218818 2.70339 0 3.16787 0 3.65217V12.1739C0 12.6582 0.218818 13.1227 0.608317 13.4652C0.997815 13.8076 1.52609 14 2.07692 14H15.9231C16.4739 14 17.0022 13.8076 17.3917 13.4652C17.7812 13.1227 18 12.6582 18 12.1739V3.65217C18 3.16787 17.7812 2.70339 17.3917 2.36094C17.0022 2.01848 16.4739 1.82609 15.9231 1.82609ZM12.1154 7.6087C12.1154 8.15044 11.9327 8.68003 11.5903 9.13048C11.248 9.58092 10.7615 9.932 10.1922 10.1393C9.62294 10.3466 8.99654 10.4009 8.39222 10.2952C7.78789 10.1895 7.23279 9.92863 6.79709 9.54555C6.3614 9.16248 6.06468 8.67441 5.94448 8.14307C5.82427 7.61173 5.88596 7.06099 6.12176 6.56048C6.35756 6.05997 6.75686 5.63217 7.26919 5.33119C7.78151 5.03021 8.38384 4.86957 9 4.86957C9.82625 4.86957 10.6187 5.15815 11.2029 5.67184C11.7872 6.18552 12.1154 6.88223 12.1154 7.6087Z" fill="white"/>
</svg>
