<svg width="18" height="24" viewBox="0 0 18 24" fill="none" xmlns="http://www.w3.org/2000/svg">
<path fill-rule="evenodd" clip-rule="evenodd" d="M5.06483 4.03004C5.06483 2.96121 5.47942 1.93615 6.21741 1.18037C6.95539 0.424592 7.95631 0 8.99998 0C10.0436 0 11.0446 0.424592 11.7825 1.18037C12.5205 1.93615 12.9351 2.96121 12.9351 4.03004C12.9351 5.09887 12.5205 6.12393 11.7825 6.87971C11.0446 7.63549 10.0436 8.06008 8.99998 8.06008C7.95631 8.06008 6.95539 7.63549 6.21741 6.87971C5.47942 6.12393 5.06483 5.09887 5.06483 4.03004ZM1.25887 10.6313C2.05992 9.85252 3.12229 9.41834 4.2268 9.41834C5.33132 9.41834 6.39369 9.85252 7.19474 10.6313L7.21174 10.6487L8.99998 12.4801L10.7899 10.6487L10.8069 10.6313C11.6078 9.85354 12.6694 9.41999 13.7731 9.41999C14.8769 9.41999 15.9385 9.85354 16.7394 10.6313C17.1372 11.0177 17.4541 11.4829 17.6708 11.9986C17.8875 12.5144 17.9995 13.0699 18 13.6314C18.0005 14.1929 17.8894 14.7486 17.6736 15.2647C17.4577 15.7808 17.1416 16.2466 16.7445 16.6337L9.59152 23.7537C9.43288 23.9117 9.22036 24 8.99913 24C8.77789 24 8.56537 23.9117 8.40673 23.7537L1.25547 16.6337C0.858478 16.2468 0.542466 15.7812 0.32664 15.2653C0.110814 14.7494 -0.000317306 14.1939 6.80479e-07 13.6326C0.000318667 13.0714 0.112079 12.516 0.32849 12.0004C0.5449 11.4847 0.86144 11.0178 1.25887 10.6313Z" fill="#1E4475"/>
</svg>
