<svg width="56" height="56" viewBox="0 0 56 56" fill="none" xmlns="http://www.w3.org/2000/svg">
<path fill-rule="evenodd" clip-rule="evenodd" d="M27.1027 0.186039C26.898 0.286891 26.6586 0.481856 26.5707 0.619075C26.4828 0.75641 25.6367 2.46346 24.6906 4.41252C23.7444 6.36159 22.9509 7.97778 22.9273 8.00415C22.9037 8.03041 21.0849 8.32588 18.8853 8.66062C16.6859 8.99536 14.7729 9.30523 14.6344 9.34915C14.4957 9.39319 14.2033 9.58618 13.9847 9.77812C13.7561 9.97866 13.5369 10.3134 13.469 10.5654C13.404 10.8065 13.3839 11.1691 13.4244 11.3711C13.4802 11.6499 14.0051 12.2351 15.6042 13.8008C16.7626 14.9352 18.1721 16.3082 18.7362 16.8518L19.7618 17.8402L19.0559 21.9078C18.6675 24.1449 18.3498 26.1498 18.3498 26.3633C18.3498 26.5768 18.4519 26.9164 18.5766 27.1181C18.7012 27.3198 19.0202 27.6067 19.2852 27.7555C19.6592 27.9656 19.8882 28.0142 20.308 27.9725C20.7157 27.9319 21.7511 27.4555 24.5107 26.0386L28.1723 24.1586L30.1484 25.1662C31.2353 25.7203 32.915 26.5844 33.8811 27.0863C35.2055 27.7744 35.7487 27.9983 36.0897 27.9963C36.3383 27.9949 36.756 27.8965 37.0177 27.7776C37.2942 27.6521 37.599 27.3916 37.7443 27.1565C37.882 26.9337 37.9948 26.5768 37.9948 26.3633C37.9948 26.1498 37.6774 24.147 37.2895 21.9123L36.5844 17.8495L39.4899 14.9362C41.9944 12.4249 42.4131 11.9547 42.5244 11.5291C42.6142 11.1853 42.6176 10.9029 42.5355 10.5996C42.4708 10.36 42.3398 10.053 42.2445 9.91755C42.1493 9.78219 41.8872 9.58397 41.6622 9.47731C41.429 9.3667 39.5011 9.0172 37.1792 8.66457C34.9386 8.32425 33.0875 8.02576 33.0655 8.00113C33.0435 7.9765 32.2515 6.36159 31.3052 4.41252C30.3592 2.46346 29.5126 0.755596 29.424 0.617332C29.3354 0.479067 29.0882 0.283057 28.8744 0.181624C28.6607 0.0803071 28.2584 -0.00148987 27.9804 2.05874e-05C27.7023 0.00141485 27.3073 0.0851871 27.1027 0.186039ZM30.8269 11.0066C31.0487 11.2321 31.498 11.336 34.0772 11.7579L37.0702 12.2475L35.0958 14.2265C33.8619 15.4634 33.0542 16.3677 32.9426 16.6377C32.8443 16.8753 32.7653 17.2936 32.7669 17.5672C32.7685 17.8408 32.9492 19.1607 33.1683 20.5004C33.3875 21.84 33.5464 22.9564 33.5216 22.9811C33.4968 23.006 32.347 22.4197 30.9666 21.6783C28.6516 20.435 28.408 20.3304 27.8295 20.3304C27.2645 20.3304 26.9476 20.457 24.636 21.6066C23.2244 22.3085 22.0696 22.8621 22.0696 22.8368C22.0696 22.8116 22.2797 21.5018 22.5365 19.9262C23.0033 17.0613 23.0033 17.0613 22.7846 16.5754C22.6544 16.2862 21.8275 15.3134 20.7425 14.1727L18.9194 12.2558L21.7676 11.8909C24.0091 11.6037 24.699 11.4745 25.0067 11.2844C25.2218 11.1515 25.4798 10.9497 25.58 10.8357C25.6802 10.7218 26.1926 9.66135 26.7187 8.47913C27.2448 7.29691 27.7556 6.17348 27.8538 5.98258C28.0323 5.63553 28.0323 5.63553 29.3009 8.19017C29.9987 9.59524 30.6853 10.8626 30.8269 11.0066ZM18.4079 31.7149C18.1522 31.8414 17.8645 32.0636 17.7686 32.2086C17.6264 32.4234 17.5835 33.1382 17.5361 36.074L17.478 39.6758L9.26234 39.7339C1.18222 39.7911 1.04121 39.796 0.718526 40.0326C0.538002 40.165 0.29831 40.4525 0.185671 40.6717C-0.00403616 41.0409 -0.0168228 41.5767 0.0113078 48.0039C0.0410659 54.8098 0.0460641 54.9438 0.282385 55.2657C0.414785 55.4461 0.702484 55.6851 0.921717 55.7968C1.29776 55.9885 2.82914 56 27.9979 56C53.1667 56 54.6981 55.9885 55.0741 55.7968C55.2934 55.6851 55.5811 55.4461 55.7135 55.2658C55.9483 54.9459 55.955 54.7951 55.9864 49.1384C56.0177 43.4998 56.012 43.3259 55.7818 42.875C55.6516 42.6198 55.3755 42.3184 55.1684 42.2054C54.8199 42.0149 54.1831 41.9972 46.6295 41.9668L38.4672 41.9341L38.4344 37.1832C38.4016 32.4325 38.4016 32.4325 38.111 32.1179C37.9512 31.9447 37.6521 31.7314 37.4463 31.6438C37.1401 31.5134 35.4219 31.4845 27.9726 31.4846C19.136 31.4847 18.8594 31.4914 18.4079 31.7149ZM34.9725 43.7424V52.5147H27.9979H21.0234V43.7424V34.9702H27.9979H34.9725V43.7424ZM17.5083 47.8381L17.478 52.4566L10.4744 52.4866L3.4708 52.5165V47.8681V43.2196H10.5047H17.5388L17.5083 47.8381ZM52.5251 49.0299V52.5165L45.5215 52.4866L38.5179 52.4566L38.487 49L38.4562 45.5434H45.4906H52.5251V49.0299Z" fill="#EBEDF4"/>
</svg>
