<svg width="23" height="23" viewBox="0 0 23 23" fill="none" xmlns="http://www.w3.org/2000/svg">
<path d="M21.85 0H4.6C3.99 0 3.40499 0.242321 2.97365 0.673654C2.54232 1.10499 2.3 1.69 2.3 2.3V5.75H0V8.05H2.3V10.35H0V12.65H2.3V14.95H0V17.25H2.3V20.7C2.3 21.31 2.54232 21.895 2.97365 22.3263C3.40499 22.7577 3.99 23 4.6 23H21.85C22.155 23 22.4475 22.8788 22.6632 22.6632C22.8788 22.4475 23 22.155 23 21.85V1.15C23 0.845001 22.8788 0.552494 22.6632 0.336827C22.4475 0.12116 22.155 0 21.85 0ZM12.65 3.44885C14.5452 3.44885 16.1 5.0025 16.1 6.89885C16.0967 7.81293 15.7322 8.68863 15.0859 9.3351C14.4397 9.98156 13.5641 10.3464 12.65 10.35C10.7559 10.35 9.2 8.79405 9.2 6.89885C9.2 5.0025 10.7559 3.44885 12.65 3.44885ZM19.55 18.4H5.75V17.5375C5.75 14.9856 8.86075 12.3625 12.65 12.3625C16.4392 12.3625 19.55 14.9856 19.55 17.5375V18.4Z" fill="white"/>
</svg>
