<svg width="62" height="64" viewBox="0 0 62 64" fill="none" xmlns="http://www.w3.org/2000/svg">
<path fill-rule="evenodd" clip-rule="evenodd" d="M35.4601 1.25729C35.1873 1.39757 34.7917 1.81223 34.5808 2.1789C34.3133 2.64424 34.1093 3.69954 33.9059 5.67006C33.7455 7.22345 33.5441 8.77004 33.4582 9.10663C33.3229 9.63768 33.1217 9.78064 31.9436 10.1844C31.1965 10.4404 30.2213 10.8576 29.7766 11.1116C28.9823 11.5649 28.9604 11.5662 28.5448 11.1843C28.3123 10.9704 27.7278 10.1897 27.246 9.4492C26.7642 8.70886 26.0013 7.35384 25.5505 6.4382C25.089 5.50073 24.4113 4.48828 23.9992 4.12079C23.5239 3.69665 23.0536 3.46821 22.6563 3.46821C22.3199 3.46821 21.788 3.60313 21.4739 3.76813C21.16 3.93313 20.7528 4.38961 20.5691 4.78285C20.3853 5.17609 20.142 5.9912 20.028 6.59435C19.9141 7.19749 19.765 8.85388 19.6969 10.2752C19.6028 12.2359 19.6565 13.3674 19.9193 14.9642C20.1099 16.1217 20.4813 17.7124 20.7447 18.4991C21.0081 19.2855 21.3127 20.0908 21.4216 20.2885C21.5749 20.567 21.4435 20.905 20.8373 21.7912C20.407 22.4199 19.4639 23.5729 18.7415 24.3529C18.0192 25.133 17.1545 26.2926 16.8201 26.9299C16.486 27.567 16.0135 28.8938 15.7703 29.8783C15.4229 31.2854 15.0681 32.0779 14.1111 33.5841C13.4417 34.6379 11.2644 37.8174 9.27284 40.6498C7.28107 43.4822 5.01392 46.5766 4.23461 47.5261C3.45531 48.4757 2.44178 49.9868 1.98206 50.8842C1.42744 51.9675 1.10826 52.8924 1.03262 53.6364C0.950285 54.4472 1.02004 55.026 1.28508 55.7312C1.48665 56.2671 2.06743 57.1572 2.57582 57.7093C3.08421 58.2616 3.83796 58.8882 4.25084 59.1022C4.66371 59.3162 5.06624 59.7014 5.14533 59.9581C5.22462 60.215 5.54928 60.8107 5.86704 61.282C6.18481 61.7533 6.75342 62.3326 7.13061 62.5695C7.76553 62.9681 8.1129 63 11.8056 63C15.3647 63 15.8786 62.9565 16.5723 62.5971C17 62.3754 17.5861 61.9091 17.8746 61.5607C18.1632 61.2124 18.4935 60.5825 18.6087 60.1612C18.7239 59.74 18.8186 59.2299 18.8192 59.0279C18.8198 58.8258 19.0405 58.2195 19.3093 57.6807C19.578 57.1416 20.2079 56.317 20.7086 55.8482C21.2095 55.3793 21.9703 54.8139 22.3998 54.592C22.8532 54.3576 24.4048 54.0004 26.1017 53.7396C27.7086 53.4928 30.0649 53.0238 31.3384 52.6971C32.6117 52.3704 34.3997 51.7353 35.3116 51.2858C36.2554 50.8207 37.3942 50.0542 37.9545 49.5071C38.9395 48.5455 38.9395 48.5455 39.5424 49.1295C39.8741 49.4506 40.5847 50.316 41.1217 51.0524C41.6586 51.7889 42.4276 53.0028 42.8307 53.7501C43.2337 54.4975 43.7794 55.7542 44.0434 56.5428C44.3074 57.3313 44.6325 58.6663 44.7659 59.5097C44.8994 60.353 45.0513 61.3418 45.1036 61.7066C45.1561 62.0726 45.3972 62.5114 45.6414 62.685C45.8849 62.8583 46.3832 63 46.7488 63C47.1574 63 47.5804 62.8303 47.8471 62.5594C48.2449 62.1552 48.2709 61.9719 48.16 60.345C48.0935 59.3694 47.8136 57.7523 47.538 56.7518C47.2624 55.7511 46.7109 54.235 46.3126 53.3828C45.588 51.8334 45.588 51.8334 45.9046 50.5675C46.0786 49.8711 46.6174 48.4672 47.1018 47.4476C47.5865 46.4279 48.5392 44.863 49.2189 43.97C50.0731 42.8482 50.4551 42.1637 50.4551 41.7556C50.4551 41.4307 50.2748 40.9817 50.0546 40.758C49.8344 40.5343 49.4329 40.2949 49.1621 40.2259C48.8914 40.1569 48.4291 40.2286 48.1346 40.3853C47.84 40.5421 47.0503 41.4073 46.3795 42.3081C45.7087 43.2087 44.7019 44.8892 44.142 46.0425L43.124 48.1393L41.8503 46.7736C40.5768 45.408 40.5768 45.408 40.8495 44.368C40.9994 43.7957 41.1233 43.0853 41.1245 42.7891C41.1259 42.4928 40.9377 42.0061 40.7066 41.7076C40.386 41.2936 40.1059 41.1648 39.5253 41.1648C38.9954 41.1648 38.6367 41.3057 38.3447 41.6283C38.1139 41.8833 37.8609 42.5089 37.7822 43.0187C37.7035 43.5286 37.464 44.3554 37.2499 44.8562C37.0359 45.3572 36.5507 46.1511 36.1718 46.6207C35.7928 47.0904 34.9413 47.7681 34.2792 48.1265C33.6171 48.485 32.2179 49.0129 31.1697 49.2997C30.1215 49.5866 28.1689 50.0064 26.8305 50.2328C25.4921 50.4592 23.8495 50.7443 23.1803 50.8666C22.5111 50.9888 21.4161 51.3798 20.7469 51.7355C20.0777 52.0911 18.9711 52.9435 18.2877 53.6296C17.5729 54.3477 16.7786 55.4141 16.4168 56.1421C16.0713 56.8377 15.7281 57.808 15.6543 58.298C15.5807 58.7881 15.4304 59.3051 15.3205 59.4466C15.1837 59.623 14.4579 59.7041 13.0163 59.7041C11.8588 59.7041 10.9146 59.6347 10.9183 59.5496C10.9217 59.4646 11.0586 59.2151 11.2224 58.9953C11.3861 58.7753 11.5201 58.3866 11.5201 58.1314C11.5201 57.8759 11.3064 57.4147 11.0452 57.1064C10.713 56.7141 10.376 56.5456 9.92379 56.5456C9.46326 56.5456 9.07269 56.7469 8.56714 57.2446C7.85719 57.9437 7.85719 57.9437 7.40721 57.3974C7.15981 57.0969 6.50116 56.572 5.94349 56.2311C5.38583 55.8902 4.76997 55.3361 4.57469 54.9995C4.37961 54.6631 4.22103 54.2167 4.22245 54.0076C4.22387 53.7985 4.5832 52.9785 5.02082 52.1854C5.45843 51.3923 6.39753 50.0423 7.10769 49.1851C7.81805 48.3282 9.23573 46.4743 10.2584 45.0653C11.2808 43.6565 13.0319 41.1669 14.1494 39.5329C15.2672 37.8988 16.6827 35.7204 17.2953 34.6921C18.0943 33.3505 18.5313 32.3273 18.8421 31.0712C19.0804 30.1082 19.4448 28.9804 19.6519 28.5649C19.8587 28.1496 20.6731 27.1029 21.4613 26.2394C22.2498 25.3759 23.2876 24.0473 23.7678 23.2869C24.248 22.5266 25.036 21.1166 25.5193 20.1536C26.2035 18.7895 26.7812 18.0156 28.1348 16.6501C29.209 15.5665 30.3539 14.6392 31.1338 14.2208L32.3954 13.5441L32.0971 14.4029C31.933 14.875 31.7988 15.4858 31.7988 15.76C31.7988 16.0342 32.0228 16.4859 32.2966 16.764C32.5898 17.0621 33.0293 17.2697 33.3667 17.2697C33.6816 17.2697 34.1407 17.1263 34.3869 16.951C34.7 16.7283 35.0588 15.9095 35.5803 14.2276C35.9904 12.9049 36.5251 10.6151 36.7684 9.13897C37.2107 6.4551 37.2107 6.4551 37.5384 7.0982C37.7185 7.45189 38.1306 8.42521 38.454 9.26112C38.7775 10.097 39.2088 11.4762 39.4126 12.3259C39.65 13.3157 39.7877 14.6851 39.796 16.1367C39.8029 17.383 39.7303 19.0225 39.6344 19.7799C39.4679 21.0964 39.4831 21.1805 39.9802 21.6853C40.2927 22.0028 40.7285 22.2135 41.0726 22.2135C41.3875 22.2135 41.8452 22.0712 42.09 21.8969C42.3345 21.7228 42.6389 21.1899 42.7661 20.7124C42.8934 20.2352 43.0556 18.6058 43.1268 17.0915L43.2562 14.3384L44.7771 15.3772C45.6136 15.9485 47.1193 17.1354 48.1231 18.0146C49.1269 18.8939 50.843 20.29 51.9367 21.117C53.0303 21.9441 54.5816 23.0103 55.384 23.4863C56.1865 23.9624 57.2772 24.5196 57.8083 24.7248C58.3392 24.9297 59.0855 25.0974 59.4665 25.0974C59.9735 25.0974 60.2722 24.9518 60.5796 24.5546C60.8108 24.2561 61 23.7638 61 23.4606C61 23.1574 60.822 22.7149 60.6042 22.4776C60.3866 22.2403 59.8618 21.9323 59.4381 21.7933C59.0145 21.6542 58.4029 21.404 58.0791 21.2373C57.4902 20.9341 57.4902 20.9341 58.4804 20.3894C59.0942 20.0518 59.5412 19.6403 59.6561 19.307C59.7581 19.0114 59.7804 18.5221 59.7056 18.2197C59.6192 17.8695 59.3183 17.548 58.877 17.3342C58.2358 17.0235 58.119 17.0239 57.304 17.3401C56.7255 17.5647 55.8117 17.6817 54.6374 17.6817C53.2223 17.6817 52.7543 17.6044 52.3856 17.3099C51.9202 16.9378 51.9202 16.9378 52.9386 16.5706C53.4987 16.3685 54.1728 15.9839 54.4366 15.7159C54.7004 15.4477 54.9164 14.9865 54.9164 14.6907C54.9164 14.3949 54.8286 13.9862 54.7213 13.7825C54.6141 13.5789 54.2474 13.2951 53.9065 13.1515C53.3791 12.9296 53.1439 12.9461 52.3272 13.2631C51.657 13.5231 50.8655 13.6284 49.7034 13.6123C48.1099 13.5901 47.9878 13.5538 46.8337 12.7578C46.171 12.3005 44.8667 11.5192 43.9355 11.0217C42.2423 10.117 42.2423 10.117 41.7775 8.80094C41.522 8.07729 40.9122 6.65079 40.4227 5.63113C39.9331 4.61146 39.2544 3.33678 38.9145 2.79832C38.5745 2.25986 37.9979 1.63446 37.6331 1.40869C37.2683 1.18272 36.7417 0.99877 36.4628 1.00001C36.184 1.00145 35.7328 1.11701 35.4601 1.25729ZM25.5091 12.696C25.8456 13.1105 26.1207 13.5299 26.1207 13.628C26.1207 13.7258 25.6188 14.3693 25.0054 15.058C24.392 15.7466 23.8901 16.3868 23.8901 16.4807C23.8901 16.5749 23.8114 16.6517 23.7153 16.6517C23.6192 16.6517 23.4326 16.1186 23.3008 15.4673C23.169 14.8159 23.0066 13.3453 22.9396 12.1996C22.8729 11.0539 22.8814 9.86077 22.9587 9.54786C23.094 9.00013 23.1321 9.03371 23.9984 10.4608C24.493 11.2757 25.1729 12.2816 25.5091 12.696ZM22.5921 28.0452C22.3345 28.3068 21.918 29.1493 21.6663 29.9174C21.3571 30.8613 21.2754 31.3814 21.4145 31.5227C21.5536 31.664 21.9831 31.4593 22.7405 30.8909C23.3568 30.4285 24.0045 29.842 24.1797 29.5878C24.3551 29.3336 24.4984 28.8866 24.4984 28.5945C24.4984 28.3026 24.3889 27.9525 24.2551 27.8165C24.1213 27.6805 23.7978 27.5693 23.5362 27.5693C23.2746 27.5693 22.8498 27.7833 22.5921 28.0452ZM58.2192 41.9847C57.9724 42.0897 57.0256 42.8984 56.1151 43.7817C55.2048 44.665 54.0712 45.9438 53.5963 46.6236C53.1213 47.3034 52.3564 48.6238 51.8965 49.5578C51.4366 50.4917 50.8327 51.9636 50.5549 52.8285C50.2769 53.6933 50.0495 54.659 50.0495 54.9743C50.0495 55.3616 50.2519 55.7206 50.6735 56.0809C51.0166 56.3743 51.4605 56.6142 51.6601 56.6142C51.8594 56.6142 52.2528 56.4303 52.5343 56.2055C52.8754 55.9328 53.2286 55.2296 53.5944 54.0941C53.8962 53.1577 54.5445 51.6175 55.0352 50.6716C55.5258 49.7256 56.3817 48.3717 56.9372 47.6626C57.4926 46.9536 58.456 45.9745 59.0782 45.4869C59.7006 44.9994 60.2961 44.436 60.402 44.2351C60.5078 44.0341 60.5944 43.6423 60.5944 43.3642C60.5944 43.0859 60.4346 42.663 60.2396 42.4242C60.0445 42.1855 59.6109 41.9457 59.2763 41.8918C58.9417 41.8376 58.466 41.8794 58.2192 41.9847Z" fill="#EBEDF4" stroke="#EBEDF4"/>
</svg>
