<svg width="19" height="22" viewBox="0 0 19 22" fill="none" xmlns="http://www.w3.org/2000/svg">
<path d="M7.6 3.7561H11.4C11.4 3.18685 11.1998 2.64092 10.8435 2.2384C10.4872 1.83589 10.0039 1.60976 9.5 1.60976C8.99609 1.60976 8.51282 1.83589 8.1565 2.2384C7.80018 2.64092 7.6 3.18685 7.6 3.7561ZM6.175 3.7561C6.175 3.26284 6.261 2.77441 6.4281 2.3187C6.5952 1.86299 6.84012 1.44892 7.14887 1.10014C7.45762 0.75135 7.82417 0.474678 8.22758 0.285916C8.63099 0.0971544 9.06335 0 9.5 0C9.93665 0 10.369 0.0971544 10.7724 0.285916C11.1758 0.474678 11.5424 0.75135 11.8511 1.10014C12.1599 1.44892 12.4048 1.86299 12.5719 2.3187C12.739 2.77441 12.825 3.26284 12.825 3.7561H18.2875C18.4765 3.7561 18.6577 3.8409 18.7913 3.99184C18.9249 4.14279 19 4.34751 19 4.56098C19 4.77444 18.9249 4.97917 18.7913 5.13011C18.6577 5.28105 18.4765 5.36585 18.2875 5.36585H17.0335L15.922 18.363C15.8367 19.3589 15.4261 20.2832 14.7703 20.9556C14.1145 21.628 13.2604 22.0004 12.3747 22H6.6253C5.73977 22.0001 4.88595 21.6277 4.2303 20.9553C3.57466 20.2829 3.1642 19.3587 3.07895 18.363L1.9665 5.36585H0.7125C0.523533 5.36585 0.342306 5.28105 0.208686 5.13011C0.0750667 4.97917 0 4.77444 0 4.56098C0 4.34751 0.0750667 4.14279 0.208686 3.99184C0.342306 3.8409 0.523533 3.7561 0.7125 3.7561H6.175ZM8.075 8.85366C8.075 8.64019 7.99993 8.43547 7.86631 8.28452C7.73269 8.13358 7.55147 8.04878 7.3625 8.04878C7.17353 8.04878 6.99231 8.13358 6.85869 8.28452C6.72507 8.43547 6.65 8.64019 6.65 8.85366V16.9024C6.65 17.1159 6.72507 17.3206 6.85869 17.4716C6.99231 17.6225 7.17353 17.7073 7.3625 17.7073C7.55147 17.7073 7.73269 17.6225 7.86631 17.4716C7.99993 17.3206 8.075 17.1159 8.075 16.9024V8.85366ZM11.6375 8.04878C11.4485 8.04878 11.2673 8.13358 11.1337 8.28452C11.0001 8.43547 10.925 8.64019 10.925 8.85366V16.9024C10.925 17.1159 11.0001 17.3206 11.1337 17.4716C11.2673 17.6225 11.4485 17.7073 11.6375 17.7073C11.8265 17.7073 12.0077 17.6225 12.1413 17.4716C12.2749 17.3206 12.35 17.1159 12.35 16.9024V8.85366C12.35 8.64019 12.2749 8.43547 12.1413 8.28452C12.0077 8.13358 11.8265 8.04878 11.6375 8.04878Z" fill="#EA4335"/>
</svg>
