<svg width="61" height="62" viewBox="0 0 61 62" fill="none" xmlns="http://www.w3.org/2000/svg">
<path fill-rule="evenodd" clip-rule="evenodd" d="M9.04594 0.202047C8.84007 0.33032 8.56844 0.548311 8.44217 0.686405C8.31602 0.824378 8.16518 1.14239 8.10703 1.393C8.02106 1.76351 8.11776 2.30013 8.62446 4.26411C8.96733 5.59255 9.23048 6.69512 9.20926 6.71415C9.18805 6.73307 7.59821 7.75768 5.67611 8.99094C3.4694 10.4069 1.9674 11.4558 1.60032 11.837C1.28066 12.169 0.873651 12.72 0.695726 13.061C0.517802 13.4022 0.288472 13.9938 0.186159 14.3756C0.0837217 14.7575 0 15.4017 0 15.8071C0 16.2125 0.0837217 16.8567 0.186159 17.2386C0.288472 17.6204 0.5188 18.2139 0.697847 18.5574C0.877019 18.9008 1.30524 19.4713 1.64948 19.8249C1.99372 20.1786 2.54958 20.6389 2.88472 20.848C3.21985 21.057 3.84484 21.3385 4.27368 21.4738C4.96117 21.6906 5.34559 21.7173 7.52971 21.6994L10.0063 21.6793L9.93094 22.2592C9.88952 22.5782 9.65857 24.9669 9.41763 27.5675C9.17682 30.1681 8.95049 32.4706 8.91468 32.684C8.8498 33.0722 8.8498 33.0722 5.74386 33.1084C2.83319 33.1423 2.61621 33.1604 2.29368 33.3946C2.10427 33.5321 1.83364 33.7952 1.69215 33.9794C1.43799 34.3101 1.43487 34.4187 1.43487 42.781C1.43487 51.2476 1.43487 51.2476 1.82067 51.7135C2.04438 51.9838 2.41371 52.2508 2.69993 52.3491C3.02122 52.4595 3.36259 52.4879 3.67777 52.4304C3.9721 52.3769 4.31959 52.1892 4.56364 51.952C4.78449 51.7374 5.0268 51.3462 5.10203 51.0826C5.19412 50.7606 5.23928 48.3268 5.23966 43.6623L5.24041 36.7212H7.2793H9.31831L10.8977 40.662L12.4772 44.6029V52.6163C12.4772 59.7586 12.4991 60.6748 12.6797 61.0445C12.7911 61.2726 13.0578 61.5809 13.2723 61.7296C13.5623 61.9305 13.8387 62 14.3487 62C14.8588 62 15.1352 61.9305 15.4251 61.7296C15.6396 61.5809 15.9064 61.2726 16.0178 61.0445C16.1977 60.6759 16.2203 59.8066 16.2203 53.236V45.8422L17.1873 45.7094C17.7191 45.6363 22.5407 45.0026 27.9019 44.3012C33.2631 43.5997 37.6987 43.0272 37.7589 43.0289C37.819 43.0306 37.9768 43.2624 38.1096 43.5442C38.2424 43.8258 38.6915 44.3854 39.1078 44.7875C39.524 45.1897 40.1594 45.6527 40.5196 45.8164L41.1746 46.114V53.3719C41.1746 59.8171 41.1973 60.6762 41.3771 61.0445C41.4885 61.2726 41.7553 61.5809 41.9698 61.7296C42.2598 61.9305 42.5361 62 43.0462 62C43.5563 62 43.8326 61.9305 44.1226 61.7296C44.3371 61.5809 44.6038 61.2726 44.7153 61.0445C44.8949 60.6764 44.9178 59.8289 44.9178 53.5251V46.4205H47.4132H49.9086V53.5251C49.9086 59.8289 49.9315 60.6764 50.1111 61.0445C50.2225 61.2726 50.4893 61.5809 50.7038 61.7296C50.9938 61.9305 51.2701 62 51.7802 62C52.2903 62 52.5666 61.9305 52.8566 61.7296C53.0711 61.5809 53.3392 61.2699 53.4521 61.0384C53.6402 60.6534 53.6538 59.3892 53.6123 46.1537C53.5875 38.1985 53.523 31.5082 53.4691 31.2863C53.371 30.8829 53.371 30.8829 54.1554 31.2675C54.5867 31.4791 55.234 31.9384 55.5938 32.288C55.9537 32.6377 56.415 33.2462 56.6187 33.6404C56.8226 34.0345 57.0525 34.6462 57.1298 34.9995C57.2199 35.4121 57.2701 37.3146 57.2701 40.3158C57.2701 44.3769 57.2967 45.0439 57.4727 45.4044C57.5841 45.6324 57.8508 45.9408 58.0653 46.0895C58.3553 46.2904 58.6317 46.3599 59.1417 46.3599C59.6518 46.3599 59.9282 46.2904 60.2181 46.0895C60.4326 45.9408 60.7026 45.6258 60.818 45.3895C61.0068 45.0027 61.023 44.4375 60.9807 39.7191C60.9398 35.1686 60.9047 34.3825 60.7145 33.7508C60.5941 33.3507 60.3025 32.6305 60.0665 32.1504C59.8305 31.6704 59.3367 30.9132 58.969 30.4677C58.6015 30.0222 57.9257 29.3655 57.4672 29.0083C57.0088 28.651 56.2294 28.1713 55.7355 27.9419C55.2414 27.7126 54.5002 27.4377 54.0885 27.3309C53.6767 27.2239 52.8345 27.1027 52.2169 27.0613C51.094 26.9862 51.094 26.9862 50.1855 26.2793C49.6858 25.8906 48.8717 25.3844 48.3763 25.1546C47.8808 24.9247 47.1387 24.6398 46.727 24.5216C46.0534 24.3282 45.2056 24.3024 38.2737 24.2648L30.569 24.223L30.567 20.985C30.5659 19.2041 30.5105 17.1067 30.4438 16.3242C30.377 15.5416 30.2334 14.4823 30.1245 13.9701C30.0155 13.4578 29.7556 12.5432 29.5469 11.9375C29.3382 11.3319 28.9264 10.3699 28.632 9.79998C28.3375 9.23003 27.7426 8.24797 27.3101 7.61764C26.8366 6.92766 25.9998 5.96488 25.2072 5.19852C24.4833 4.49835 23.4297 3.60735 22.8661 3.21853C22.3025 2.82971 21.2644 2.22726 20.5594 1.87966C19.8542 1.53218 18.8046 1.09644 18.227 0.911429C17.6494 0.726536 16.6669 0.465261 16.0435 0.330926C15.1682 0.142154 14.2853 0.0731673 12.1652 0.0275806C9.60978 -0.0272204 9.39443 -0.0152175 9.04594 0.202047ZM14.1951 3.74726C14.759 3.816 15.712 4.00853 16.3129 4.17512C16.9139 4.34183 17.9233 4.71889 18.556 5.01326C19.1887 5.30751 20.059 5.77902 20.49 6.06103C20.9209 6.34303 21.7414 7.01459 22.3134 7.55326C22.8852 8.09194 23.624 8.88728 23.955 9.32072C24.2862 9.75415 24.782 10.518 25.057 11.0181C25.332 11.5182 25.7313 12.4118 25.9441 13.0039C26.157 13.5959 26.4144 14.5443 26.5161 15.1112C26.6547 15.8834 26.7011 17.1569 26.7011 20.1877V24.2334H25.3286H23.9561V20.8945C23.9561 19.0581 23.8954 17.0261 23.8211 16.3789C23.7469 15.7317 23.5233 14.7109 23.3243 14.1103C23.1253 13.5098 22.7066 12.5802 22.3939 12.0442C22.0812 11.5083 21.4747 10.6626 21.0462 10.1649C20.6179 9.66734 19.7919 8.88728 19.2108 8.43153C18.553 7.91565 17.6362 7.35734 16.7818 6.95203C16.0269 6.59388 14.9508 6.1893 14.3903 6.0529C13.8299 5.91639 13.2647 5.80472 13.1342 5.80472C12.9412 5.80472 12.855 5.63014 12.6702 4.8651C12.5453 4.34825 12.4168 3.85735 12.3845 3.77393C12.3446 3.67136 12.4619 3.62238 12.7478 3.62238C12.98 3.62238 13.6313 3.67864 14.1951 3.74726ZM14.0694 9.80338C14.6363 9.98936 15.4149 10.3251 15.7996 10.5495C16.1844 10.7739 16.8835 11.3017 17.3531 11.7224C17.8229 12.143 18.4622 12.8599 18.7738 13.3154C19.0854 13.7708 19.4934 14.5178 19.6805 14.9753C20.0207 15.8071 20.0207 15.8071 20.0856 21.212C20.1506 26.6169 20.1506 26.6169 20.5102 27.0748C20.708 27.3266 21.0571 27.6086 21.286 27.7016C21.5947 27.827 22.3453 27.8706 24.1921 27.8706H26.6819L26.7227 30.881C26.7635 33.8915 26.7635 33.8914 27.1231 34.3493C27.3209 34.6011 27.6733 34.8845 27.9064 34.9791C28.2581 35.1219 29.4727 35.1456 35.0552 35.1178C41.67 35.0851 41.7861 35.0802 42.1325 34.8293C42.3263 34.689 42.597 34.3889 42.7343 34.1624C42.9618 33.7869 42.9873 33.4928 43.023 30.8107L43.0623 27.8706H43.9638C44.4596 27.8706 45.1869 27.952 45.5799 28.0515C45.9728 28.1509 46.5836 28.3747 46.9369 28.5487C47.2903 28.7227 47.8732 29.1506 48.2323 29.4995C48.5914 29.8484 49.0317 30.4149 49.2108 30.7582C49.3898 31.1016 49.6202 31.695 49.7225 32.0768C49.8729 32.6381 49.9086 33.731 49.9086 37.7772V42.7833H46.3297C43.0185 42.7833 42.7126 42.7653 42.2407 42.5433C41.9602 42.4114 41.6308 42.1391 41.5086 41.9383C41.3866 41.7374 41.2361 41.271 41.1742 40.9017C41.1124 40.5324 40.9479 40.0749 40.8087 39.885C40.6695 39.695 40.344 39.442 40.0854 39.3227C39.657 39.1252 39.5036 39.1192 38.3673 39.2566C37.681 39.3395 32.3751 40.0303 26.5763 40.7916C20.7776 41.553 15.9209 42.176 15.7836 42.176C15.5716 42.176 15.3067 41.6059 14.0234 38.3878L12.513 34.5995L13.2277 27.1489C13.6705 22.5339 13.9048 19.5706 13.8435 19.363C13.7891 19.1786 13.659 18.909 13.5544 18.7639C13.4499 18.6188 13.2068 18.3993 13.0143 18.276C12.6943 18.0709 12.3568 18.0517 9.07214 18.0509C5.71541 18.0501 5.44765 18.0341 4.986 17.8052C4.71437 17.6705 4.33756 17.3333 4.14878 17.0558C3.86655 16.6409 3.80591 16.4184 3.80765 15.803C3.80928 15.2105 3.87428 14.9607 4.11958 14.6032C4.34729 14.2714 5.42132 13.5141 8.17254 11.7455C11.8829 9.3606 11.9207 9.33999 12.4772 9.40243C12.786 9.43711 13.5025 9.61751 14.0694 9.80338ZM39.1783 29.6892V31.5078H34.8737H30.569V29.6892V27.8706H34.8737H39.1783V29.6892Z" fill="#EBEDF4"/>
</svg>
