<svg width="66" height="56" viewBox="0 0 66 56" fill="none" xmlns="http://www.w3.org/2000/svg">
<path fill-rule="evenodd" clip-rule="evenodd" d="M31.3695 0.228096C30.9335 0.348577 30.2854 0.627749 29.9291 0.848423C29.5729 1.0691 29.0538 1.48817 28.7755 1.77966C28.4973 2.07115 28.1188 2.55818 27.9345 2.86187C27.7502 3.16556 27.5094 3.74793 27.3993 4.15592C27.2812 4.59378 27.1992 5.42259 27.1992 6.17845V7.45918H17.0363C7.33734 7.45918 6.82778 7.47039 5.87761 7.705C5.33002 7.84029 4.52306 8.13241 4.08452 8.35433C3.60821 8.59529 2.89614 9.13521 2.31593 9.6953C1.73585 10.2555 1.17666 10.943 0.927094 11.4029C0.697254 11.8264 0.394711 12.6055 0.25459 13.1342C0.00696094 14.0693 0 14.576 0 31.7296C0 48.8832 0.00696094 49.3899 0.25459 50.325C0.394711 50.8537 0.697254 51.6328 0.927094 52.0562C1.17666 52.5161 1.73585 53.2037 2.31593 53.7639C2.89614 54.324 3.60821 54.8639 4.08452 55.1049C4.52306 55.3268 5.33002 55.6189 5.87761 55.7542C6.85304 55.995 7.40347 56 33 56C58.5965 56 59.147 55.995 60.1224 55.7542C60.67 55.6189 61.4769 55.3268 61.9155 55.1049C62.3918 54.8639 63.1039 54.324 63.6841 53.7639C64.2641 53.2037 64.8233 52.5161 65.0729 52.0562C65.3027 51.6328 65.6053 50.8537 65.7454 50.325C65.993 49.3899 66 48.8832 66 31.7296C66 14.576 65.993 14.0693 65.7454 13.1342C65.6053 12.6055 65.3027 11.8264 65.0729 11.4029C64.8233 10.943 64.2641 10.2555 63.6841 9.6953C63.1039 9.13521 62.3918 8.59529 61.9155 8.35433C61.4769 8.13241 60.67 7.84029 60.1224 7.705C59.1722 7.47039 58.6627 7.45918 48.9637 7.45918H38.8008V6.17845C38.8008 5.42806 38.7184 4.59055 38.602 4.15592C38.4926 3.74793 38.2171 3.11528 37.9897 2.74998C37.7622 2.38468 37.3142 1.84874 36.9942 1.55886C36.6741 1.26899 36.152 0.884766 35.834 0.704791C35.516 0.524941 34.9101 0.290825 34.4876 0.184533C34.065 0.0782414 33.3689 -0.00465131 32.9407 0.000202776C32.5125 0.00505686 31.8054 0.107615 31.3695 0.228096ZM33.8539 3.98167C34.2522 4.16787 34.4752 4.38319 34.668 4.76778C34.8737 5.17789 34.9336 5.54132 34.9336 6.37834V7.45918H33H31.0664V6.37834C31.0664 5.54294 31.1265 5.17764 31.3308 4.77015C31.5195 4.39364 31.7499 4.16886 32.1365 3.98416C32.4341 3.8419 32.8189 3.7254 32.9915 3.7254C33.1641 3.72527 33.5522 3.84065 33.8539 3.98167ZM59.8317 11.5228C60.1613 11.6699 60.6748 12.0256 60.9727 12.3133C61.2706 12.6009 61.6218 13.071 61.7533 13.3579C61.8848 13.6449 62.0314 14.1153 62.0791 14.4033L62.1658 14.927H33.0165C4.92293 14.927 3.86719 14.9188 3.86719 14.7007C3.86719 14.5761 3.95368 14.1933 4.05926 13.8498C4.16496 13.5063 4.42084 12.9994 4.62786 12.7234C4.83502 12.4473 5.19686 12.0892 5.43211 11.9274C5.66736 11.7658 6.15115 11.5359 6.50706 11.4166C7.11498 11.2131 8.73482 11.2017 33.1934 11.2277C59.2324 11.2553 59.2324 11.2553 59.8317 11.5228ZM42.668 20.8751C42.668 22.4746 42.7235 23.2952 42.868 23.8311C42.9781 24.2391 43.2189 24.8215 43.4033 25.1252C43.5876 25.4289 43.9661 25.9159 44.2442 26.2074C44.5225 26.4989 45.0406 26.9172 45.3955 27.1371C45.7504 27.3571 46.4264 27.6402 46.8975 27.7663C47.3687 27.8925 48.0767 27.9957 48.4711 27.9957C48.8654 27.9957 49.5338 27.9093 49.9563 27.8038C50.3789 27.6981 51.0341 27.4321 51.4125 27.2126C51.7908 26.9929 52.3459 26.5604 52.6461 26.2513C52.9463 25.9423 53.3442 25.4382 53.5306 25.1312C53.7169 24.8241 53.9594 24.2391 54.0695 23.8311C54.214 23.2952 54.2695 22.4746 54.2695 20.8751V18.6609H58.2012H62.1328V31.7296V44.7983H56.2676H50.4023V38.2639V31.7296H48.4945H46.5867L46.4289 32.467C46.3359 32.902 46.0975 33.4479 45.8478 33.7978C45.6149 34.124 45.1479 34.575 44.81 34.7999C44.4476 35.0409 43.8823 35.2711 43.4317 35.3609L42.668 35.5133V37.3725V39.2318L43.4919 39.1502C43.9452 39.1054 44.6319 38.9638 45.0179 38.8356C45.4039 38.7074 45.9033 38.5109 46.1274 38.3989C46.5352 38.1954 46.5352 38.1954 46.5352 41.4967V44.7983H25.2012H3.86719V31.7296V18.6609H23.2676H42.668V20.8751ZM50.4023 20.6752C50.4023 22.4548 50.3714 22.7514 50.1368 23.2193C49.944 23.6039 49.7209 23.8192 49.3226 24.0054C49.021 24.1464 48.6367 24.2618 48.4688 24.2618C48.3008 24.2618 47.9165 24.1464 47.6149 24.0054C47.2166 23.8192 46.9935 23.6039 46.8007 23.2193C46.5661 22.7514 46.5352 22.4548 46.5352 20.6752V18.6609H48.4688H50.4023V20.6752ZM15.9007 22.6315C15.4648 22.752 14.8166 23.0312 14.4603 23.2519C14.1041 23.4726 13.585 23.8916 13.3067 24.1831C13.0286 24.4746 12.6501 24.9616 12.4658 25.2653C12.2814 25.569 12.0406 26.1514 11.9305 26.5594C11.7679 27.1625 11.7305 28.129 11.7305 31.7296C11.7305 35.3302 11.7679 36.2967 11.9305 36.8998C12.0406 37.3078 12.2814 37.8902 12.4658 38.1939C12.6501 38.4976 13.0286 38.9846 13.3067 39.2761C13.585 39.5676 14.1031 39.9859 14.458 40.2058C14.8129 40.4257 15.4889 40.7089 15.96 40.835C16.4312 40.9612 17.1392 41.0644 17.5336 41.0644C17.9279 41.0644 18.5963 40.9775 19.0188 40.8712C19.4414 40.7649 20.0472 40.5308 20.3653 40.3509C20.6833 40.171 21.2053 39.7867 21.5254 39.4969C21.8455 39.207 22.2934 38.6711 22.521 38.3058C22.7483 37.9405 23.0238 37.3078 23.1333 36.8998C23.2943 36.299 23.332 35.3164 23.332 31.7296C23.332 28.1428 23.2943 27.1602 23.1333 26.5594C23.0238 26.1514 22.7483 25.5187 22.521 25.1534C22.2934 24.7881 21.8455 24.2522 21.5254 23.9623C21.2053 23.6724 20.6833 23.2882 20.3653 23.1082C20.0472 22.9284 19.4414 22.6943 19.0188 22.588C18.5963 22.4817 17.9002 22.3988 17.472 22.4037C17.0437 22.4085 16.3367 22.5111 15.9007 22.6315ZM31.3695 22.6315C30.9335 22.752 30.2854 23.0312 29.9291 23.2519C29.5729 23.4726 29.0538 23.8916 28.7755 24.1831C28.4973 24.4746 28.1188 24.9616 27.9345 25.2653C27.7502 25.569 27.5094 26.1514 27.3993 26.5594C27.2366 27.1625 27.1992 28.129 27.1992 31.7296C27.1992 35.3302 27.2366 36.2967 27.3993 36.8998C27.5094 37.3078 27.7502 37.8902 27.9345 38.1939C28.1188 38.4976 28.4973 38.9846 28.7755 39.2761C29.0538 39.5676 29.5719 39.9859 29.9267 40.2058C30.2816 40.4257 30.9576 40.7089 31.4288 40.835C31.8999 40.9612 32.608 41.0644 33.0023 41.0644C33.3966 41.0644 34.065 40.9775 34.4876 40.8712C34.9101 40.7649 35.516 40.5308 35.834 40.3509C36.152 40.171 36.6741 39.7867 36.9942 39.4969C37.3142 39.207 37.7622 38.6711 37.9897 38.3058C38.2171 37.9405 38.4926 37.3078 38.602 36.8998C38.763 36.299 38.8008 35.3164 38.8008 31.7296C38.8008 28.1428 38.763 27.1602 38.602 26.5594C38.4926 26.1514 38.2171 25.5187 37.9897 25.1534C37.7622 24.7881 37.3142 24.2522 36.9942 23.9623C36.6741 23.6724 36.152 23.2882 35.834 23.1082C35.516 22.9284 34.9101 22.6943 34.4876 22.588C34.065 22.4817 33.3689 22.3988 32.9407 22.4037C32.5125 22.4085 31.8054 22.5111 31.3695 22.6315ZM18.3851 26.3851C18.7834 26.5713 19.0065 26.7866 19.1993 27.1712C19.4507 27.6726 19.4648 27.916 19.4648 31.7296C19.4648 35.5432 19.4507 35.7866 19.1993 36.2879C19.0065 36.6725 18.7834 36.8879 18.3851 37.0741C18.0835 37.2151 17.6992 37.3305 17.5312 37.3305C17.3633 37.3305 16.979 37.2151 16.6774 37.0741C16.2791 36.8879 16.056 36.6725 15.8632 36.2879C15.6118 35.7866 15.5977 35.5432 15.5977 31.7296C15.5977 27.922 15.6122 27.672 15.862 27.1736C16.0508 26.7971 16.2811 26.5723 16.6677 26.3876C16.9654 26.2454 17.3501 26.1289 17.5227 26.1289C17.6953 26.1287 18.0835 26.2441 18.3851 26.3851ZM33.8539 26.3851C34.2522 26.5713 34.4752 26.7866 34.668 27.1712C34.9194 27.6726 34.9336 27.916 34.9336 31.7296C34.9336 35.5432 34.9194 35.7866 34.668 36.2879C34.4752 36.6725 34.2522 36.8879 33.8539 37.0741C33.5522 37.2151 33.168 37.3305 33 37.3305C32.832 37.3305 32.4478 37.2151 32.1461 37.0741C31.7478 36.8879 31.5248 36.6725 31.332 36.2879C31.0806 35.7866 31.0664 35.5432 31.0664 31.7296C31.0664 27.922 31.081 27.672 31.3308 27.1736C31.5195 26.7971 31.7499 26.5723 32.1365 26.3876C32.4341 26.2454 32.8189 26.1289 32.9915 26.1289C33.1641 26.1287 33.5522 26.2441 33.8539 26.3851ZM62.0791 49.0559C62.0314 49.3439 61.8848 49.8143 61.7533 50.1013C61.6218 50.3882 61.2706 50.8583 60.9727 51.1459C60.6748 51.4336 60.1613 51.7893 59.8317 51.9364C59.2324 52.2039 59.2324 52.2039 33 52.2039C6.76758 52.2039 6.76758 52.2039 6.16829 51.9364C5.83868 51.7893 5.32525 51.4336 5.02734 51.1459C4.72944 50.8583 4.37817 50.3882 4.24669 50.1013C4.1152 49.8143 3.96864 49.3439 3.92094 49.0559L3.83419 48.5322H33H62.1658L62.0791 49.0559Z" fill="#EBEDF4"/>
</svg>
