<svg width="24" height="26" viewBox="0 0 24 26" fill="none" xmlns="http://www.w3.org/2000/svg">
<path d="M8.39208 24.4167V19.4298C8.39206 18.4195 9.19032 17.5987 10.1791 17.5924H13.8096C14.8028 17.5924 15.6079 18.415 15.6079 19.4298V24.4052C15.6079 25.2815 16.2998 25.9936 17.1574 26H19.6343C20.7911 26.003 21.9016 25.5356 22.7206 24.7009C23.5397 23.8662 24 22.7328 24 21.5508V10.2256C24 9.2708 23.5858 8.36513 22.869 7.75255L14.4543 0.876549C12.9834 -0.326141 10.8826 -0.287289 9.45523 0.968999L1.22149 7.75255C0.47083 8.34707 0.0221713 9.25543 0 10.2256V21.5392C0 24.0028 1.95459 26 4.36569 26H6.78605C7.19895 26.003 7.59598 25.8376 7.88902 25.5403C8.18205 25.2431 8.34685 24.8386 8.34684 24.4167H8.39208Z" fill="#1E4475"/>
</svg>
