<svg width="22" height="23" viewBox="0 0 22 23" fill="none" xmlns="http://www.w3.org/2000/svg">
<path d="M18.7 3.13636H19.8V0H15.4V3.13636C15.4 3.13636 17.6 7.31818 17.6 11.5C17.6 15.6818 15.4 18.8182 11 18.8182C6.6 18.8182 4.4 15.6818 4.4 11.5C4.4 7.31818 6.6 3.13636 6.6 3.13636V0H2.2V3.13636H3.3C3.3 3.13636 0 7.31818 0 13.5909C0 18.8182 5.5 23 11 23C16.5 23 22 18.8182 22 13.5909C22 7.31818 18.7 3.13636 18.7 3.13636ZM2.2 12.5455C1.54 12.5455 1.1 12.1273 1.1 11.5C1.1 10.8727 1.54 10.4545 2.2 10.4545C2.86 10.4545 3.3 10.8727 3.3 11.5C3.3 12.1273 2.86 12.5455 2.2 12.5455ZM4.4 18.8182C3.74 18.8182 3.3 18.4 3.3 17.7727C3.3 17.1455 3.74 16.7273 4.4 16.7273C5.06 16.7273 5.5 17.1455 5.5 17.7727C5.5 18.4 5.06 18.8182 4.4 18.8182ZM11 21.9545C10.34 21.9545 9.9 21.5364 9.9 20.9091C9.9 20.2818 10.34 19.8636 11 19.8636C11.66 19.8636 12.1 20.2818 12.1 20.9091C12.1 21.5364 11.66 21.9545 11 21.9545ZM17.6 18.8182C16.94 18.8182 16.5 18.4 16.5 17.7727C16.5 17.1455 16.94 16.7273 17.6 16.7273C18.26 16.7273 18.7 17.1455 18.7 17.7727C18.7 18.4 18.26 18.8182 17.6 18.8182ZM19.8 12.5455C19.14 12.5455 18.7 12.1273 18.7 11.5C18.7 10.8727 19.14 10.4545 19.8 10.4545C20.46 10.4545 20.9 10.8727 20.9 11.5C20.9 12.1273 20.46 12.5455 19.8 12.5455Z" fill="white"/>
</svg>
