<svg width="30" height="25" viewBox="0 0 30 25" fill="none" xmlns="http://www.w3.org/2000/svg">
<path d="M30 6.94444V18.0556L25.9091 19.4444L21.6955 11.8056C21.3409 11.1667 20.3455 11.4861 20.4545 12.2361L21.8182 25L8.18182 19.4444L9.75 8.25C10.0716 5.96016 11.1933 3.86529 12.9091 2.34985C14.6249 0.83441 16.8198 8.53961e-05 19.0909 0H30L27.8455 3.29167C29.1273 4 30 5.36111 30 6.94444ZM4.09091 2.77778H8.97273C9.65455 1.72222 10.5 0.791667 11.4682 0H4.09091C3.34091 0 2.72727 0.625 2.72727 1.38889C2.72727 2.15278 3.34091 2.77778 4.09091 2.77778ZM6.6 11.1111H1.36364C0.613636 11.1111 0 11.7361 0 12.5C0 13.2639 0.613636 13.8889 1.36364 13.8889H6.20455L6.6 11.1111ZM2.72727 8.33333H6.98182L7.05 7.86111C7.15909 7.05555 7.35 6.29167 7.60909 5.55556H2.72727C1.97727 5.55556 1.36364 6.18056 1.36364 6.94444C1.36364 7.70833 1.97727 8.33333 2.72727 8.33333Z" fill="white"/>
</svg>
