<svg width="61" height="56" viewBox="0 0 61 56" fill="none" xmlns="http://www.w3.org/2000/svg">
<path fill-rule="evenodd" clip-rule="evenodd" d="M9.01451 2.32828C8.16047 3.60918 7.18426 5.6005 6.84472 6.75335C6.38633 8.31046 5.60336 9.48753 3.80138 11.3291C2.18724 12.9785 1.14536 14.4749 0.687797 15.8009C0.257249 17.0482 0 19.1166 0 21.3284C0 23.2725 0.278859 25.9205 0.620057 27.2133C0.960838 28.5057 1.73175 30.5224 2.33311 31.6942C2.93446 32.8663 4.1272 34.7563 4.98372 35.8943C5.84025 37.032 7.73449 39.0989 9.19279 40.4869C10.6511 41.8749 12.8728 43.8194 14.13 44.8077C15.3871 45.796 17.5378 47.4499 18.9092 48.4834C20.2807 49.5164 23.3531 51.6834 25.7369 53.2983C28.9739 55.4916 30.2884 56.1671 30.9284 55.9664C31.4001 55.8187 33.8446 54.1725 36.3606 52.308C38.8765 50.4435 41.3094 48.5745 41.7665 48.1542C42.2237 47.7335 43.1587 46.9685 43.8445 46.4535C44.5302 45.9388 47.8582 42.802 51.2398 39.483C56.187 34.6278 57.6627 32.9086 58.7935 30.6837C59.5665 29.1627 60.4214 26.8616 60.6928 25.57C60.9642 24.2784 61.0772 22.3117 60.9442 21.1999C60.8108 20.0885 60.1426 17.9987 59.4589 16.5561C58.7063 14.9678 57.3722 13.1217 56.0764 11.8753C54.8995 10.7434 52.8818 9.29217 51.5918 8.65069C50.3023 8.00922 48.1686 7.26391 46.8504 6.99468C45.0717 6.63187 43.6786 6.61874 41.4478 6.94502C39.386 7.24626 37.333 7.93288 34.9118 9.13006C32.9669 10.0921 31.3249 11.1756 31.2551 11.5429C31.1657 12.0124 32.7046 13.1562 36.4474 15.402C39.3727 17.1573 42.3724 19.154 43.113 19.839C43.8532 20.5235 44.5684 21.6583 44.7018 22.3606C44.8481 23.1321 44.6665 24.3223 44.2426 25.3689C43.8524 26.3325 42.7066 27.826 41.6601 28.7355C40.6257 29.6347 39.4667 30.3706 39.0843 30.3706C38.7024 30.3706 37.8492 29.8137 37.1888 29.1328C36.5285 28.4519 35.231 27.6931 34.3059 27.4464C33.1797 27.1464 30.2464 27.0955 25.4335 27.2929L18.2439 27.5876L16.6297 25.9119C15.4287 24.665 14.9424 23.7556 14.7305 22.3593C14.5738 21.3271 14.5489 20.3803 14.6756 20.2555C14.8024 20.1304 15.0891 20.1398 15.3127 20.2765C15.5367 20.4131 15.8526 21.2992 16.0142 22.246C16.2004 23.3336 16.759 24.4114 17.5324 25.1752L18.7559 26.3834L24.0276 26.0752C26.9267 25.9057 30.4064 25.7978 31.76 25.8355C33.114 25.8733 34.7971 26.1458 35.5003 26.4413C36.2039 26.7368 37.3139 27.4739 37.9668 28.0801C39.0407 29.0761 39.2389 29.1262 40.0447 28.605C40.5347 28.2882 41.5434 27.2486 42.286 26.2948C43.0669 25.2925 43.6367 24.0785 43.6367 23.417C43.6367 22.7878 43.2622 21.8032 42.8051 21.229C42.3475 20.6545 36.9931 17.1881 30.9064 13.526C24.8197 9.86347 18.9757 6.62079 17.9197 6.31996C16.8641 6.01871 15.5027 5.67479 14.8951 5.55536C14.103 5.39981 13.544 4.83631 12.921 3.56567C12.4431 2.59053 12.052 1.38966 12.052 0.896343C12.052 0.309452 11.796 0 11.3098 0C10.8668 0 9.94127 0.938616 9.01451 2.32828Z" fill="white"/>
</svg>
