<svg width="46" height="56" viewBox="0 0 46 56" fill="none" xmlns="http://www.w3.org/2000/svg">
<path fill-rule="evenodd" clip-rule="evenodd" d="M5.56537 0.118899C5.32781 0.172931 4.8419 0.322669 4.48556 0.451735C4.12922 0.5808 3.53521 0.879838 3.16559 1.1162C2.79586 1.35268 2.18447 1.88414 1.80675 2.29726C1.41003 2.73138 0.953371 3.38601 0.725098 3.84791C0.507839 4.2875 0.25581 4.94256 0.16489 5.3035C0.0193305 5.88189 -0.00021421 8.57531 1.75322e-06 27.9993C0.000217716 49.9965 0.000649542 50.0405 0.225143 50.8593C0.34889 51.3104 0.620464 51.9891 0.82876 52.3675C1.03706 52.7458 1.49922 53.3713 1.85577 53.7574C2.21244 54.1435 2.81497 54.6584 3.19485 54.9013C3.57473 55.1443 4.26344 55.4787 4.72549 55.6443C5.56537 55.9453 5.56537 55.9453 11.1386 55.9772C15.7986 56.0039 16.8426 55.9818 17.5095 55.8426C17.9483 55.7509 18.7186 55.4705 19.2214 55.2194C19.9233 54.8689 20.3251 54.5699 20.9515 53.9321C21.5637 53.3088 21.8819 52.8695 22.2267 52.1718C22.4793 51.6604 22.7568 50.8975 22.8434 50.4764C22.9781 49.8209 23.0006 46.5886 23.0006 27.9993C23.0006 9.41008 22.9781 6.17776 22.8434 5.52226C22.7568 5.10116 22.4793 4.33825 22.2267 3.82691C21.8819 3.12919 21.5637 2.68993 20.9515 2.06659C20.3249 1.4287 19.9234 1.12988 19.2214 0.77943C18.7186 0.528299 17.9671 0.250808 17.5513 0.16265C16.9421 0.0335844 15.7483 0.00427118 11.3964 0.0115995C8.42688 0.0166308 5.80293 0.0648663 5.56537 0.118899ZM35.8002 0.256386C35.5627 0.396608 33.7164 2.19467 31.6973 4.25195C29.6783 6.30934 27.9432 8.15049 27.8414 8.34344C27.7368 8.54217 27.6547 8.94457 27.6521 9.27194C27.6497 9.58968 27.7228 10.032 27.8148 10.2548C27.9067 10.4777 28.0888 10.7762 28.2197 10.9183C28.3505 11.0603 28.6518 11.2798 28.8894 11.406C29.1754 11.558 29.5218 11.6356 29.9152 11.6358C30.2754 11.636 30.6578 11.5588 30.8871 11.4395C31.0949 11.3313 32.0061 10.4977 32.9117 9.58706L34.5584 7.93119V27.9936V48.0559L32.8037 46.3017C31.1736 44.672 31.0087 44.5378 30.4821 44.4111C30.043 44.3055 29.7972 44.3035 29.3916 44.402C29.1036 44.472 28.6842 44.6826 28.4598 44.8701C28.2353 45.0574 27.9618 45.4112 27.852 45.6561C27.7338 45.9197 27.6532 46.3469 27.6545 46.7029C27.6558 47.0576 27.7326 47.4486 27.8418 47.6558C27.9436 47.8491 29.703 49.7121 31.7516 51.7957C33.8002 53.8794 35.6566 55.6778 35.8769 55.7922C36.1153 55.9158 36.4996 56 36.826 56C37.1517 56 37.5379 55.9157 37.7766 55.7923C37.9976 55.678 39.8544 53.8788 41.9026 51.7941C43.9508 49.7094 45.7096 47.8463 45.811 47.6541C45.9195 47.4483 45.9963 47.057 45.9976 46.7029C45.9989 46.3469 45.9183 45.9197 45.8001 45.6561C45.6902 45.4112 45.4167 45.0574 45.1922 44.8701C44.9678 44.6826 44.5484 44.472 44.2605 44.402C43.8549 44.3035 43.6091 44.3055 43.17 44.4111C42.6433 44.5378 42.4784 44.672 40.8484 46.3017L39.0937 48.0559V27.9936V7.93119L40.7404 9.58706C41.646 10.4977 42.5572 11.3313 42.765 11.4395C42.9943 11.5588 43.3766 11.636 43.7369 11.6358C44.1302 11.6356 44.4766 11.558 44.7627 11.406C45.0002 11.2798 45.3016 11.0603 45.4324 10.9183C45.5633 10.7762 45.7454 10.4777 45.8373 10.2548C45.9293 10.032 46.0024 9.58968 45.9999 9.27194C45.9973 8.9449 45.9154 8.5425 45.811 8.34464C45.7096 8.15235 43.9508 6.28932 41.9026 4.20459C39.8544 2.11985 37.9976 0.3207 37.7766 0.206401C37.53 0.0790854 37.1537 -0.000760185 36.8034 5.45759e-06C36.4023 0.000989855 36.1034 0.0773354 35.8002 0.256386ZM17.0427 4.91117C17.263 5.02623 17.5582 5.23022 17.6986 5.36454C17.839 5.49885 18.0445 5.81069 18.1552 6.05766C18.3494 6.49091 18.3564 7.26191 18.3564 27.9993C18.3564 48.5547 18.3479 49.5112 18.1598 49.9305C18.0516 50.1716 17.7863 50.5262 17.5701 50.7185C17.3538 50.9108 16.9939 51.1223 16.7703 51.1885C16.4922 51.2707 14.7371 51.2982 11.2264 51.2754C6.0893 51.2421 6.0893 51.2421 5.64431 50.9437C5.39962 50.7796 5.06304 50.4105 4.89643 50.1234C4.59354 49.6014 4.59354 49.6014 4.59354 46.9764V44.3513L8.42688 44.2966C11.7232 44.2496 12.3056 44.2165 12.5842 44.0609C12.7623 43.9614 13.0118 43.7645 13.1384 43.6234C13.2651 43.4823 13.457 43.1946 13.5649 42.9841C13.6847 42.75 13.761 42.3674 13.761 41.9997C13.761 41.6319 13.6847 41.2493 13.5649 41.0153C13.457 40.8047 13.2651 40.5171 13.1384 40.376C13.0118 40.2349 12.7623 40.038 12.5842 39.9385C12.3056 39.7828 11.7232 39.7498 8.42688 39.7027L4.59354 39.6481L4.56438 37.3238L4.53523 34.9995H7.07841C9.1333 34.9995 9.69869 34.9669 10.0231 34.8296C10.2439 34.7362 10.5627 34.527 10.7314 34.3648C10.9001 34.2026 11.131 33.8871 11.2443 33.664C11.3673 33.4217 11.4504 33.0346 11.4504 32.7035C11.4504 32.3983 11.3752 31.9664 11.2832 31.7436C11.1913 31.5206 11.0092 31.2222 10.8783 31.0801C10.7475 30.9381 10.4461 30.716 10.2086 30.5865C9.80635 30.3672 9.59697 30.3486 7.1581 30.3166L4.53955 30.2822V27.9923V25.7024H8.08577C10.8713 25.7024 11.7435 25.6684 12.1519 25.5439C12.4627 25.4492 12.8405 25.2185 13.0916 24.9702C13.3756 24.6893 13.5651 24.3678 13.6775 23.9762C13.7812 23.6152 13.8169 23.2375 13.7727 22.9725C13.7337 22.7387 13.5592 22.3197 13.3849 22.0412C13.1508 21.6673 12.9201 21.4652 12.5021 21.2681C11.9372 21.0017 11.9309 21.0014 8.23576 21.0003L4.53523 20.9992L4.56438 18.6749L4.59354 16.3506L7.31111 16.2959C10.0287 16.2413 10.0287 16.2413 10.4883 15.9131C10.741 15.7327 11.061 15.3681 11.1991 15.103C11.3768 14.7619 11.4504 14.4389 11.4504 13.999C11.4504 13.5591 11.3768 13.2361 11.1991 12.8951C11.061 12.6299 10.741 12.2654 10.4883 12.0849C10.0287 11.7568 10.0287 11.7568 7.31111 11.7021L4.59354 11.6474L4.56082 9.51454C4.54279 8.34147 4.55844 7.12355 4.59548 6.8081C4.6404 6.42616 4.77754 6.06302 5.00614 5.72067C5.21422 5.40905 5.53686 5.10717 5.82528 4.95426C6.30127 4.70193 6.30127 4.70193 11.4716 4.70193C16.352 4.70193 16.6646 4.71363 17.0427 4.91117Z" fill="#EBEDF4"/>
</svg>
