<svg width="55" height="64" viewBox="0 0 55 64" fill="none" xmlns="http://www.w3.org/2000/svg">
<path fill-rule="evenodd" clip-rule="evenodd" d="M2.28694 0.226171C1.93097 0.363968 1.38886 0.716214 1.0824 1.00894C0.775935 1.30166 0.404949 1.79433 0.258068 2.10381C0.0630826 2.51433 -0.00657335 2.90321 0.000482054 3.54181C0.0079223 4.22404 0.226255 5.18912 0.990804 7.9183C1.73752 10.5843 2.11428 11.7028 2.57032 12.6074C3.07548 13.6096 3.35128 13.9725 4.33455 14.9287C5.33783 15.9044 5.69278 16.1566 6.88566 16.7418C8.05172 17.3138 8.26197 17.4612 8.21246 17.6716C8.18013 17.8092 8.0616 18.3628 7.94923 18.9018C7.83672 19.4414 7.74488 20.4907 7.74488 21.2366C7.74488 22.2726 7.95602 23.969 8.64245 28.4468C9.1362 31.6673 9.71731 34.9968 9.93397 35.8456C10.1506 36.6945 10.5187 37.8762 10.7518 38.4715C10.9848 39.067 12.1111 41.6526 13.2545 44.2174C14.7337 47.5352 15.3734 49.1163 15.4723 49.6977C15.5919 50.4011 15.5682 50.762 15.3026 52.287C15.1184 53.3446 14.9992 54.5129 15.0068 55.1845C15.0171 56.0855 15.0951 56.5218 15.3983 57.3727C15.6069 57.9584 16.148 59.0187 16.6035 59.7345C17.0581 60.4489 17.7909 61.3845 18.2318 61.8135C18.6996 62.2687 19.4049 62.7838 19.9251 63.0502C20.4153 63.3014 21.2616 63.6177 21.8055 63.7534C22.7017 63.9769 23.2369 64 27.5 64C31.7631 64 32.2983 63.9769 33.1945 63.7534C33.7384 63.6177 34.5846 63.3014 35.0749 63.0502C35.5951 62.7838 36.3004 62.2687 36.7682 61.8135C37.2091 61.3845 37.9419 60.4489 38.3965 59.7345C38.8512 59.0198 39.3912 57.9621 39.5969 57.3829C39.893 56.5489 39.9743 56.094 39.9882 55.1946C39.999 54.4936 39.8876 53.381 39.6973 52.287C39.4318 50.7621 39.4081 50.401 39.5277 49.6977C39.6266 49.116 40.2659 47.5366 41.7463 44.2174C42.89 41.6526 43.9681 39.1884 44.1419 38.7414C44.3158 38.2943 44.5656 37.591 44.6971 37.1783C44.8286 36.7657 45.0536 35.9454 45.1973 35.3556C45.3408 34.7657 45.8625 31.6524 46.3567 28.4372C47.0447 23.9602 47.2551 22.2741 47.2551 21.2366C47.2551 20.4907 47.1633 19.4414 47.0508 18.9018C46.9384 18.3628 46.8199 17.8092 46.7875 17.6716C46.738 17.4612 46.9483 17.3138 48.1143 16.7418C49.3072 16.1566 49.6622 15.9044 50.6654 14.9287C51.6487 13.9725 51.9245 13.6096 52.4297 12.6074C52.8857 11.7028 53.2625 10.5843 54.0092 7.9183C54.7737 5.18912 54.9921 4.22404 54.9995 3.54181C55.0066 2.90321 54.9369 2.51433 54.7419 2.10381C54.5951 1.79433 54.2242 1.30179 53.918 1.00931C53.5911 0.697207 53.067 0.36922 52.6492 0.215292C52.1019 0.0138484 51.7594 -0.0315421 51.1677 0.0189752C50.7443 0.0551125 48.926 0.484635 47.1268 0.973427C44.922 1.57251 43.5082 2.02941 42.7896 2.37516C42.0385 2.73641 41.4227 3.16368 40.7063 3.82065C40.147 4.33358 39.5059 5.02919 39.2815 5.36668C39.0573 5.70405 38.8525 5.98014 38.8265 5.98014C38.8006 5.98014 38.3993 5.69617 37.9348 5.34917C37.4703 5.00206 36.7632 4.55728 36.3635 4.36059C35.9638 4.16389 35.2058 3.87104 34.6792 3.70986C33.7298 3.41926 33.6681 3.41676 27.5 3.41676C21.3319 3.41676 21.2702 3.41926 20.3208 3.70986C19.7942 3.87104 19.0362 4.16389 18.6365 4.36059C18.2368 4.55728 17.5297 5.00206 17.0652 5.34917C16.6007 5.69617 16.1994 5.98014 16.1735 5.98014C16.1475 5.98014 15.9427 5.70405 15.7185 5.36668C15.4941 5.02919 14.8558 4.33608 14.3 3.8264C13.5992 3.18381 12.9604 2.73916 12.2167 2.37628C11.4667 2.01028 10.1609 1.58664 7.87316 0.9668C5.94793 0.445246 4.25899 0.0589888 3.76819 0.0281033C3.13847 -0.0115353 2.77595 0.0369813 2.28694 0.226171ZM6.8709 4.61905C8.44516 5.03969 10.0724 5.55049 10.4869 5.75419C10.9015 5.95788 11.5178 6.39491 11.8569 6.72527C12.2171 7.07652 12.6914 7.749 12.9983 8.3442L13.5235 9.36242L11.7693 11.6415C10.8045 12.8949 9.96835 13.9384 9.91114 13.9605C9.85393 13.9825 9.33465 13.7608 8.757 13.468C8.16089 13.1656 7.42353 12.6617 7.05178 12.3024C6.69157 11.9544 6.2431 11.3882 6.05517 11.0444C5.86724 10.7005 5.3318 9.04056 4.86525 7.35561C4.39869 5.67066 3.98589 4.19353 3.94804 4.07324C3.9102 3.95295 3.90828 3.85441 3.94381 3.85441C3.97934 3.85441 5.29652 4.19853 6.8709 4.61905ZM51.052 4.07324C51.0141 4.19353 50.6013 5.67066 50.1348 7.35561C49.6682 9.04056 49.1325 10.6983 48.9443 11.0392C48.756 11.3804 48.3098 11.9453 47.9526 12.2948C47.5736 12.6657 46.8636 13.1532 46.248 13.4655C45.6677 13.7597 45.1461 13.9825 45.0889 13.9605C45.0316 13.9384 44.1965 12.8963 43.233 11.6445L41.4812 9.36855L41.945 8.41597C42.2324 7.8259 42.6619 7.21081 43.0741 6.79942C43.4399 6.43405 44.054 5.97789 44.4389 5.78557C44.8237 5.59313 46.4085 5.08596 47.9607 4.65844C49.5129 4.23079 50.8589 3.87505 50.9518 3.86767C51.0557 3.85954 51.0943 3.93882 51.052 4.07324ZM32.9779 7.20493C33.0865 7.27221 32.673 8.09624 31.5829 9.98526C30.7309 11.4618 29.7868 13.1764 29.4851 13.7953C29.1834 14.4143 28.8413 15.3378 28.7251 15.8478C28.6074 16.3633 28.5143 17.3139 28.5151 17.9894C28.5158 18.6575 28.6407 19.92 28.7923 20.7952C29.0397 22.2222 29.048 22.406 28.8722 22.5773C28.7512 22.6952 28.5611 22.7401 28.3756 22.6947C28.2103 22.6543 26.8296 21.395 25.3073 19.8963C23.7851 18.3976 22.351 16.8996 22.1202 16.5673C21.8894 16.2349 21.5777 15.6441 21.4276 15.2543C21.1769 14.6036 21.1512 14.2523 21.1117 10.9596L21.0686 7.37374L21.6225 7.25295C21.9271 7.18668 24.572 7.12716 27.5 7.12078C30.428 7.11453 32.893 7.15242 32.9779 7.20493ZM39.3934 12.9279C40.8937 14.8856 42.2581 16.7988 42.4794 17.2555C42.6976 17.7055 42.9698 18.4054 43.0842 18.8105C43.1987 19.2158 43.3224 20.1381 43.3594 20.8602C43.4197 22.0381 43.3399 22.7327 42.5839 27.6125C42.1203 30.6042 41.6243 33.5927 41.4814 34.2537C41.3386 34.9148 41.0536 35.9406 40.8479 36.5333C40.6424 37.1262 39.5665 39.652 38.457 42.1464C37.3475 44.6407 36.4188 46.7061 36.3933 46.736C36.3676 46.7658 36.1312 46.5884 35.868 46.3417C35.6046 46.0949 35.1069 45.7206 34.7618 45.51C34.4166 45.2995 33.7528 44.9986 33.2866 44.8414C32.4607 44.5632 32.3109 44.5558 27.5 44.5558C22.6891 44.5558 22.5393 44.5632 21.7134 44.8414C21.2472 44.9986 20.5834 45.2995 20.2382 45.51C19.8931 45.7206 19.3954 46.0949 19.132 46.3417C18.8688 46.5884 18.6324 46.7658 18.6067 46.736C18.5812 46.7061 17.6525 44.6407 16.543 42.1464C15.4335 39.652 14.3576 37.1262 14.1521 36.5333C13.9464 35.9406 13.6614 34.9148 13.5186 34.2537C13.3757 33.5927 12.8842 30.6133 12.4261 27.6328C11.9197 24.3382 11.5937 21.8137 11.5942 21.1931C11.5947 20.6134 11.7037 19.7306 11.8466 19.1496C11.985 18.5871 12.282 17.7477 12.5066 17.2843C12.7327 16.818 13.866 15.2084 15.0443 13.6805L17.1735 10.9193L17.2525 12.9825C17.3033 14.3067 17.4083 15.3145 17.5461 15.796C17.6641 16.2086 17.9324 16.906 18.1424 17.3457C18.3524 17.7854 18.7777 18.4888 19.0878 18.9087C19.3977 19.3287 21.1142 21.0856 22.9022 22.8128C25.8855 25.6948 26.2164 25.9762 26.9227 26.2323C27.5517 26.4604 27.8801 26.5017 28.7187 26.4582C29.5077 26.4171 29.9015 26.3266 30.4227 26.0666C30.7955 25.8806 31.3354 25.4994 31.6224 25.2197C31.9095 24.9399 32.2869 24.4074 32.4611 24.0364C32.6353 23.6654 32.8091 23.0662 32.8471 22.705C32.8888 22.3094 32.8086 21.3987 32.6454 20.415C32.4965 19.5168 32.3746 18.3824 32.3746 17.894C32.3746 17.3758 32.4752 16.6913 32.6162 16.2497C32.7491 15.8336 33.6233 14.1546 34.5591 12.5185C35.4948 10.8824 36.3189 9.47109 36.3902 9.38231C36.4616 9.2934 36.5614 9.26527 36.612 9.31978C36.6627 9.37418 37.9142 10.9979 39.3934 12.9279ZM16.8807 25.9377C16.6492 26.0529 16.3317 26.3221 16.1752 26.5359C15.909 26.8998 15.8881 27.0794 15.851 29.3286C15.8172 31.3767 15.8433 31.7981 16.0271 32.1759C16.1458 32.4197 16.4235 32.7447 16.644 32.8981C16.9422 33.1053 17.2263 33.1769 17.7507 33.1769C18.2751 33.1769 18.5593 33.1053 18.8574 32.8981C19.0779 32.7447 19.3522 32.4267 19.4667 32.1915C19.6352 31.8455 19.6749 31.3286 19.6749 29.4882C19.6749 27.6478 19.6352 27.1309 19.4667 26.7849C19.3522 26.5497 19.085 26.2368 18.873 26.0896C18.6565 25.9393 18.2278 25.8017 17.8946 25.7753C17.5097 25.7449 17.1541 25.8018 16.8807 25.9377ZM36.3793 25.9377C36.1477 26.0529 35.8302 26.3221 35.6737 26.5359C35.4076 26.8998 35.3867 27.0794 35.3496 29.3286C35.3157 31.3767 35.3419 31.7981 35.5257 32.1759C35.6444 32.4197 35.9221 32.7447 36.1426 32.8981C36.4407 33.1053 36.7249 33.1769 37.2493 33.1769C37.7737 33.1769 38.0578 33.1053 38.356 32.8981C38.5765 32.7447 38.8507 32.4267 38.9653 32.1915C39.1337 31.8455 39.1735 31.3286 39.1735 29.4882C39.1735 27.6478 39.1337 27.1309 38.9653 26.7849C38.8507 26.5497 38.5835 26.2368 38.3716 26.0896C38.1551 25.9393 37.7264 25.8017 37.3932 25.7753C37.0082 25.7449 36.6526 25.8018 36.3793 25.9377ZM32.5474 48.6167C32.9119 48.7982 33.4731 49.264 33.9032 49.7421C34.3069 50.1908 34.8465 50.8291 35.1023 51.1607C35.3581 51.4923 35.6559 51.9988 35.7641 52.2861C35.8722 52.5735 36.0123 53.2941 36.0753 53.8873C36.1382 54.4806 36.1418 55.2615 36.0832 55.6228C36.0178 56.0264 35.7398 56.693 35.3623 57.352C35.0243 57.9418 34.4485 58.7223 34.0827 59.0864C33.717 59.4506 33.363 59.7485 33.2962 59.7485C33.2295 59.7485 33.1515 59.2256 33.1228 58.5865C33.0842 57.7262 33.0053 57.3156 32.8189 57.0052C32.6803 56.7748 32.4041 56.4677 32.2049 56.323C31.9423 56.1322 31.6538 56.0598 31.156 56.0598C30.6581 56.0598 30.3696 56.1322 30.107 56.323C29.9078 56.4677 29.6297 56.7771 29.489 57.0107C29.2844 57.35 29.2236 57.718 29.1865 58.842L29.1399 60.2487H27.5H25.8601L25.8135 58.842C25.7764 57.718 25.7156 57.35 25.511 57.0107C25.3703 56.7771 25.0922 56.4677 24.893 56.323C24.6304 56.1322 24.3419 56.0598 23.844 56.0598C23.3462 56.0598 23.0577 56.1322 22.7951 56.323C22.5959 56.4677 22.3197 56.7748 22.1811 57.0052C21.9947 57.3156 21.9158 57.7262 21.8772 58.5865C21.8485 59.2256 21.7705 59.7485 21.7038 59.7485C21.637 59.7485 21.283 59.4506 20.9173 59.0864C20.5515 58.7223 19.9786 57.9468 19.6441 57.363C19.3097 56.7791 18.9823 56.022 18.9165 55.6804C18.8419 55.2931 18.843 54.6595 18.9196 53.9966C18.9871 53.412 19.0977 52.7368 19.1654 52.4961C19.2331 52.2554 19.4556 51.7771 19.6598 51.4332C19.864 51.0893 20.3857 50.4316 20.8192 49.9717C21.2526 49.5117 21.8151 49.0101 22.0691 48.8571C22.3231 48.7041 22.7399 48.5047 22.9951 48.414C23.3509 48.2876 24.4472 48.2559 27.6924 48.2781C31.9163 48.307 31.9271 48.3078 32.5474 48.6167Z" fill="#CBCDD7"/>
</svg>
