<svg width="70" height="44" viewBox="0 0 70 44" fill="none" xmlns="http://www.w3.org/2000/svg">
<path fill-rule="evenodd" clip-rule="evenodd" d="M0.449219 22V44H35.0014H69.5535V22V0H35.0014H0.449219V22ZM65.5044 22V39.9509H35.0014H4.4983V22V4.04908H35.0014H65.5044V22ZM14.5535 7.83119C14.2566 7.89085 13.6653 8.07036 13.2395 8.2303C12.8138 8.39023 12.1009 8.76437 11.6553 9.06198C11.2098 9.35945 10.5735 9.9135 10.2414 10.2932C9.90935 10.6727 9.45154 11.3324 9.22411 11.7591C8.99669 12.1858 8.69072 13.004 8.544 13.5774C8.29445 14.5532 8.27744 15.0923 8.27744 22C8.27744 28.9077 8.29445 29.4468 8.544 30.4226C8.69072 30.996 9.00951 31.8399 9.25259 32.2979C9.49567 32.756 10.059 33.5011 10.5044 33.9538C10.9498 34.4066 11.6106 34.9494 11.9729 35.16C12.3353 35.3709 13.0286 35.6874 13.514 35.8635C13.9992 36.0396 14.8622 36.2197 15.4319 36.2636C16.168 36.3204 16.7666 36.2769 17.5018 36.1133C18.0707 35.9867 18.9736 35.6643 19.5084 35.3968C20.152 35.0747 20.7841 34.6069 21.3784 34.0127C21.9936 33.3975 22.4313 32.7996 22.7692 32.1127C23.0405 31.5615 23.3518 30.6853 23.4609 30.1656C23.57 29.646 23.6592 28.5224 23.6592 27.6687C23.6592 26.815 23.57 25.6914 23.4609 25.1718C23.3518 24.6521 23.0405 23.7759 22.7692 23.2247C22.4301 22.5356 21.9973 21.9452 21.384 21.3351C20.8936 20.8471 20.1277 20.2579 19.6823 20.0257C19.2369 19.7935 18.5385 19.4901 18.1302 19.3515C17.5722 19.162 17.0191 19.1019 15.9032 19.1098C14.6404 19.1185 14.2749 19.1739 13.4574 19.4803C12.9288 19.6784 12.4581 19.8405 12.4114 19.8405C12.3647 19.8405 12.3265 18.7583 12.3265 17.4356C12.3265 15.6203 12.3797 14.8508 12.5436 14.2976C12.7054 13.7507 12.9367 13.3881 13.4546 12.8704C13.9723 12.3525 14.3349 12.1212 14.8818 11.9594C15.2849 11.8399 15.7763 11.7423 15.9738 11.7423C16.1711 11.7423 16.6184 11.8283 16.9676 11.9334C17.3167 12.0385 17.8165 12.2877 18.078 12.4872C18.3395 12.6867 18.7282 13.0911 18.9418 13.3857C19.1552 13.6805 19.3984 14.2511 19.4819 14.654L19.634 15.3865H21.649C23.6492 15.3865 23.6639 15.3843 23.6616 15.0828C23.6603 14.9157 23.57 14.354 23.4609 13.8344C23.3518 13.3147 23.0405 12.4385 22.7692 11.8873C22.4301 11.1981 21.9973 10.6078 21.384 9.99772C20.8936 9.50967 20.1164 8.91149 19.6572 8.66841C19.1981 8.42533 18.3532 8.10653 17.7798 7.95982C17.2065 7.81324 16.3675 7.69986 15.9154 7.7081C15.4633 7.7162 14.8504 7.77153 14.5535 7.83119ZM52.1697 7.95698C51.628 8.10396 50.808 8.42357 50.3476 8.66732C49.8873 8.91108 49.1092 9.50967 48.6187 9.99772C48.0054 10.6078 47.5727 11.1981 47.2335 11.8873C46.9622 12.4385 46.651 13.3147 46.5418 13.8344C46.3816 14.5976 46.3435 16.1662 46.3435 22C46.3435 27.8338 46.3816 29.4024 46.5418 30.1656C46.651 30.6853 46.9622 31.5615 47.2335 32.1127C47.5727 32.8019 48.0054 33.3922 48.6187 34.0023C49.1092 34.4903 49.8863 35.0885 50.3455 35.3316C50.8047 35.5747 51.6496 35.8935 52.2229 36.0402C52.7963 36.1868 53.6104 36.3067 54.032 36.3067C54.4537 36.3067 55.2678 36.1868 55.8412 36.0402C56.4145 35.8935 57.2594 35.5747 57.7186 35.3316C58.1778 35.0885 58.9483 34.4948 59.4308 34.0123C59.9133 33.5298 60.5071 32.7592 60.7501 32.3C60.9932 31.8409 61.312 30.996 61.4587 30.4226C61.6554 29.6536 61.7253 28.9312 61.7253 27.6687C61.7253 26.4062 61.6554 25.6839 61.4587 24.9148C61.312 24.3414 60.9932 23.4965 60.7501 23.0374C60.5071 22.5782 59.9133 21.8077 59.4308 21.3252C58.9483 20.8426 58.1891 20.2579 57.7437 20.0257C57.2983 19.7935 56.5998 19.4901 56.1916 19.3515C55.6336 19.162 55.0805 19.1019 53.9646 19.1098C52.7018 19.1185 52.3363 19.1739 51.5188 19.4803C50.9901 19.6784 50.5139 19.8405 50.4606 19.8405C50.4072 19.8405 50.3841 18.641 50.4095 17.1748C50.452 14.706 50.4786 14.462 50.7704 13.8696C50.9435 13.5179 51.3625 12.9861 51.7011 12.6881C52.0592 12.3728 52.6012 12.0615 52.9966 11.9441C53.3703 11.8332 53.8363 11.7423 54.032 11.7423C54.2277 11.7423 54.7084 11.8375 55.1001 11.9538C55.5467 12.0864 56.0316 12.3674 56.4001 12.7071C56.7235 13.0051 57.1085 13.5022 57.2559 13.8115C57.4032 14.121 57.5649 14.6021 57.6151 14.8804C57.7063 15.3865 57.7063 15.3865 59.7157 15.3865C61.7253 15.3865 61.7253 15.3865 61.7253 15.0032C61.7253 14.7924 61.6053 14.1507 61.4587 13.5774C61.312 13.004 60.9932 12.1601 60.7501 11.7021C60.5071 11.244 59.9437 10.4989 59.4983 10.0462C59.0529 9.59335 58.3921 9.05064 58.0298 8.83995C57.6674 8.62913 56.969 8.3102 56.4777 8.13096C55.8683 7.9088 55.1979 7.78678 54.3695 7.74751C53.4402 7.70337 52.9233 7.75264 52.1697 7.95698ZM17.0062 23.2815C17.4015 23.399 17.9435 23.7102 18.3016 24.0255C18.6402 24.3235 19.0592 24.8553 19.2324 25.207C19.5153 25.7814 19.5474 26.0325 19.5474 27.6687C19.5474 29.3049 19.5153 29.556 19.2324 30.1304C19.0592 30.4821 18.6402 31.0139 18.3016 31.3119C17.9435 31.6272 17.4015 31.9385 17.0062 32.0559C16.6324 32.1668 16.1664 32.2577 15.9707 32.2577C15.775 32.2577 15.2849 32.1601 14.8818 32.0406C14.3349 31.8788 13.9723 31.6475 13.4546 31.1296C12.9367 30.6119 12.7054 30.2493 12.5436 29.7024C12.4099 29.2511 12.3265 28.4696 12.3265 27.6687C12.3265 26.8733 12.4098 26.0875 12.5409 25.6462C12.6897 25.1448 12.9483 24.7218 13.3874 24.2617C13.834 23.7935 14.2365 23.5241 14.7589 23.3438C15.1656 23.2034 15.6847 23.0866 15.9124 23.0842C16.1402 23.0818 16.6324 23.1706 17.0062 23.2815ZM55.121 23.2949C55.683 23.4598 56.0176 23.6777 56.5539 24.2278C57.0614 24.7481 57.3118 25.141 57.465 25.6567C57.5928 26.0873 57.6762 26.8816 57.6762 27.6687C57.6762 28.4621 57.5929 29.25 57.4626 29.6887C57.3037 30.224 57.067 30.59 56.5377 31.1192C56.0085 31.6484 55.6425 31.8852 55.1072 32.044C54.7116 32.1616 54.2277 32.2577 54.032 32.2577C53.8363 32.2577 53.3703 32.1668 52.9966 32.0559C52.6012 31.9385 52.0592 31.6272 51.7011 31.3119C51.3625 31.0139 50.9435 30.4821 50.7704 30.1304C50.4875 29.556 50.4554 29.3049 50.4554 27.6687C50.4554 26.0325 50.4875 25.7814 50.7704 25.207C50.9435 24.8553 51.3632 24.3228 51.7029 24.0239C52.0425 23.7249 52.5992 23.3944 52.94 23.2895C53.2808 23.1845 53.746 23.0943 53.9737 23.0892C54.2016 23.0839 54.7178 23.1765 55.121 23.2949Z" fill="#EBEDF4"/>
<path fill-rule="evenodd" clip-rule="evenodd" d="M36.4201 36.2293C36.717 36.1646 37.3083 35.9811 37.7341 35.8211C38.1598 35.6612 38.8727 35.2871 39.3183 34.9895C39.7638 34.692 40.4053 34.1342 40.7437 33.75C41.0822 33.3658 41.5695 32.6263 41.8269 32.1067C42.0842 31.587 42.3839 30.7367 42.4931 30.2171C42.6533 29.4538 42.6914 27.8852 42.6914 22.0514C42.6914 16.2177 42.6533 14.649 42.4931 13.8858C42.3839 13.3662 42.0727 12.4899 41.8014 11.9387C41.4622 11.2496 41.0295 10.6592 40.4162 10.0492C39.9258 9.56111 39.1486 8.96293 38.6894 8.71985C38.2303 8.47677 37.3854 8.15797 36.812 8.01126C36.2387 7.86468 35.4245 7.74469 35.0029 7.74469C34.5812 7.74469 33.7671 7.86468 33.1938 8.01126C32.6204 8.15797 31.7755 8.47677 31.3163 8.71985C30.8572 8.96293 30.08 9.56111 29.5895 10.0492C28.9762 10.6592 28.5435 11.2496 28.2043 11.9387C27.9331 12.4899 27.6218 13.3662 27.5126 13.8858C27.4036 14.4054 27.3144 15.529 27.3144 16.3827C27.3144 17.2364 27.4036 18.36 27.5126 18.8797C27.6218 19.3993 27.9331 20.2755 28.2043 20.8267C28.5435 21.5159 28.9762 22.1062 29.5895 22.7163C30.08 23.2043 30.8458 23.7935 31.2912 24.0258C31.7366 24.2579 32.4351 24.5613 32.8434 24.6999C33.4013 24.8894 33.9544 24.9495 35.0704 24.9417C36.3331 24.9329 36.6986 24.8776 37.5161 24.5712C38.0448 24.3731 38.5155 24.211 38.5622 24.211C38.6089 24.211 38.6471 25.2405 38.6471 26.4988C38.6471 27.7571 38.582 29.0902 38.5024 29.4613C38.4227 29.8323 38.1797 30.3817 37.9619 30.6822C37.7444 30.9826 37.3191 31.4075 37.017 31.6263C36.7148 31.8452 36.1381 32.098 35.7352 32.1882C35.1608 32.3167 34.845 32.3167 34.2705 32.1882C33.8677 32.098 33.2909 31.8452 32.9887 31.6263C32.6867 31.4075 32.2604 30.9811 32.0415 30.6791C31.8227 30.377 31.5752 29.8003 31.4917 29.3974L31.3395 28.6649L29.3246 28.6649C27.3243 28.6649 27.3096 28.6671 27.3119 28.9686C27.3133 29.1357 27.4036 29.6975 27.5126 30.2171C27.6218 30.7367 27.9306 31.6079 28.1989 32.1532C28.5136 32.7927 28.9814 33.4434 29.5166 33.9865C29.973 34.4496 30.6428 35.0008 31.0051 35.2115C31.3675 35.4223 32.0659 35.7412 32.5572 35.9205C33.1794 36.1474 33.8196 36.2614 34.6655 36.2964C35.3336 36.324 36.1231 36.2938 36.4201 36.2293ZM33.9674 20.7699C33.5721 20.6525 33.03 20.3412 32.672 20.026C32.3333 19.7279 31.9144 19.1962 31.7412 18.8444C31.4583 18.27 31.4262 18.019 31.4262 16.3827C31.4262 14.7465 31.4583 14.4955 31.7412 13.921C31.9144 13.5693 32.3333 13.0375 32.672 12.7395C33.03 12.4242 33.5721 12.113 33.9674 11.9956C34.3411 11.8846 34.8072 11.7938 35.0029 11.7938C35.1986 11.7938 35.6646 11.8846 36.0384 11.9956C36.4337 12.113 36.9757 12.4242 37.3338 12.7395C37.6724 13.0375 38.0914 13.5693 38.2645 13.921C38.5474 14.4955 38.5796 14.7465 38.5796 16.3827C38.5796 17.9956 38.545 18.275 38.2782 18.8162C38.1124 19.1526 37.7375 19.6614 37.445 19.947C37.1362 20.2485 36.6118 20.5703 36.1943 20.7146C35.7988 20.8512 35.2889 20.9648 35.0612 20.9672C34.8334 20.9697 34.3411 20.8809 33.9674 20.7699Z" fill="#EBEDF4"/>
</svg>
