<svg width="56" height="56" viewBox="0 0 56 56" fill="none" xmlns="http://www.w3.org/2000/svg">
<path fill-rule="evenodd" clip-rule="evenodd" d="M34.1117 0.309088C33.8442 0.479114 33.016 1.25463 32.2712 2.03232C31.5264 2.81013 30.6726 3.79112 30.3738 4.21236C30.0749 4.63359 29.645 5.3475 29.4183 5.79883C29.1917 6.25015 28.8793 7.0133 28.7242 7.49471C28.5691 7.97612 28.3798 8.66542 28.3033 9.02648C28.2269 9.38754 28.1622 10.3722 28.1595 11.2147C28.1569 12.0572 28.1935 12.968 28.241 13.2388C28.3273 13.7312 28.3273 13.7312 26.8149 12.2245C25.683 11.0968 25.2007 10.6896 24.8977 10.6059C24.6125 10.5273 24.3548 10.531 24.0261 10.6186C23.6402 10.7215 23.3034 11.0018 22.0807 12.2372C21.2674 13.0588 20.3778 14.0266 20.1038 14.3877C19.83 14.7487 19.427 15.3418 19.2085 15.7056C18.99 16.0695 18.6583 16.7491 18.4714 17.2157C18.2845 17.6825 18.0285 18.4433 17.9025 18.9066C17.7136 19.6008 17.6714 20.0853 17.6622 21.6635C17.6562 22.7166 17.6891 23.7506 17.7355 23.9612C17.8134 24.315 17.7052 24.2306 16.3132 22.8515C15.4845 22.0306 14.6989 21.3043 14.5675 21.2377C14.436 21.1711 14.1379 21.1165 13.9051 21.1165C13.627 21.1165 13.3147 21.2232 12.9952 21.4273C12.7277 21.5982 12.0164 22.2519 11.4147 22.8797C10.8129 23.5076 10.085 24.2982 9.79703 24.6367C9.50906 24.9751 9.03049 25.6562 8.73365 26.1502C8.43671 26.6442 8.04031 27.4463 7.85278 27.9327C7.66525 28.4191 7.42049 29.2385 7.30889 29.7536C7.19718 30.2686 7.07224 31.1129 7.0311 31.6296C6.98722 32.1812 7.01042 33.0349 7.08733 33.6967C7.15944 34.3167 7.33953 35.2478 7.48756 35.7659C7.63571 36.2838 7.95202 37.1183 8.19042 37.6203C8.42894 38.1221 8.85609 38.8785 9.13957 39.3011C9.42306 39.7236 10.0841 40.5192 10.6086 41.0692L11.5622 42.0688L5.83446 47.813C0.80075 52.8612 0.0977795 53.6068 0.0318041 53.9674C-0.00944411 54.1931 -0.0107571 54.5508 0.0289594 54.7623C0.0709736 54.9863 0.257958 55.3036 0.47711 55.5229C0.696372 55.742 1.01367 55.929 1.23774 55.971C1.44923 56.0108 1.8069 56.0094 2.03262 55.9682C2.39335 55.9022 3.13713 55.2002 8.1901 50.1565L13.9373 44.4198L14.536 45.0338C14.8653 45.3716 15.572 45.9885 16.1065 46.4051C16.641 46.8215 17.5764 47.4066 18.1853 47.7052C18.7942 48.0039 19.7131 48.3674 20.2274 48.513C20.7417 48.6585 21.6526 48.8365 22.2515 48.9084C22.8938 48.9854 23.7445 49.0088 24.3253 48.9653C24.8669 48.9248 25.7314 48.8008 26.2464 48.6899C26.7616 48.579 27.5809 48.3348 28.0673 48.1472C28.5537 47.9597 29.3558 47.5633 29.8498 47.2663C30.3438 46.9695 31.0249 46.4909 31.3633 46.203C31.7018 45.915 32.4924 45.1871 33.1203 44.5853C33.7482 43.9836 34.4018 43.2723 34.5727 43.0048C34.7768 42.6853 34.8835 42.373 34.8835 42.0949C34.8835 41.8621 34.8289 41.564 34.7623 41.4325C34.6957 41.3011 33.9694 40.5155 33.1485 39.6868C31.7694 38.2948 31.685 38.1866 32.0388 38.2645C32.2494 38.3109 33.2834 38.3438 34.3365 38.3378C35.9138 38.3286 36.3993 38.2864 37.0922 38.0979C37.5547 37.9719 38.2686 37.7364 38.6787 37.5741C39.0887 37.412 39.7688 37.0811 40.19 36.8387C40.6112 36.5964 41.2513 36.1731 41.6123 35.8981C41.9734 35.6231 42.9412 34.7326 43.7628 33.9193C44.9982 32.6966 45.2785 32.3598 45.3814 31.9739C45.469 31.6452 45.4727 31.3875 45.3941 31.1023C45.3104 30.7993 44.9032 30.317 43.7755 29.1851C42.2688 27.6727 42.2688 27.6727 42.7612 27.759C43.032 27.8065 43.9428 27.8431 44.7853 27.8405C45.6278 27.8378 46.6125 27.7736 46.9735 27.698C47.3346 27.6223 48.0239 27.4339 48.5053 27.2792C48.9867 27.1245 49.7499 26.8116 50.2012 26.5838C50.6525 26.356 51.3664 25.9251 51.7876 25.6262C52.2089 25.3274 53.1899 24.4736 53.9677 23.7288C54.7454 22.984 55.5209 22.1558 55.6909 21.8883C55.8664 21.6121 56 21.2487 56 21.0474C56 20.8526 55.9484 20.5544 55.8851 20.3851C55.822 20.2157 55.1696 19.4685 54.4354 18.7247C53.7013 17.9811 52.7384 17.0808 52.2956 16.7245C51.853 16.368 51.1268 15.8766 50.6818 15.6324C50.237 15.3882 49.8729 15.1773 49.8729 15.1635C49.8729 15.1498 50.27 14.8258 50.7552 14.4436C51.2405 14.0614 51.9465 13.4149 52.3241 13.0071C52.7018 12.5992 53.2592 11.906 53.563 11.4666C53.8668 11.0271 54.3143 10.2731 54.5574 9.79094C54.8005 9.30876 55.1223 8.54561 55.2725 8.09505C55.4226 7.6445 55.6271 6.90662 55.7267 6.4553C55.8434 5.9264 55.9291 4.87287 55.9675 3.49166C56.0201 1.59916 56.0048 1.30145 55.836 0.945646C55.7308 0.724087 55.4908 0.432943 55.3027 0.298694C54.9921 0.0772448 54.8092 0.0513141 53.3194 0.0181624C52.4168 -0.00196941 51.2145 0.0396071 50.6477 0.110506C50.0809 0.181295 49.2439 0.336988 48.7877 0.456357C48.3315 0.575725 47.589 0.826935 47.1376 1.01447C46.6863 1.20211 45.9724 1.54971 45.5512 1.78702C45.1299 2.02434 44.3914 2.52555 43.91 2.90095C43.4286 3.27623 42.7613 3.87263 42.4271 4.22614C42.093 4.57965 41.607 5.15187 41.3472 5.49794C41.0874 5.8439 40.8606 6.12706 40.8432 6.12706C40.8258 6.12706 40.6118 5.76305 40.3676 5.31818C40.1234 4.8732 39.632 4.14704 39.2755 3.70436C38.9192 3.26157 38.0189 2.29874 37.2753 1.56459C36.5315 0.830436 35.7843 0.178013 35.6149 0.114882C35.4456 0.0516424 35.1474 0 34.9526 0C34.7514 0 34.3879 0.133592 34.1117 0.309088ZM52.6873 4.23971C52.6529 4.76631 52.5408 5.56447 52.4383 6.01349C52.3358 6.46252 52.1154 7.16538 51.9485 7.57535C51.7816 7.98542 51.4362 8.67658 51.1808 9.11138C50.8811 9.62168 50.3245 10.2895 49.6102 10.9959C48.939 11.6597 48.203 12.2658 47.7388 12.5371C47.3178 12.783 46.6479 13.1142 46.25 13.2732C45.8519 13.4321 45.2365 13.6417 44.8823 13.7392C44.5281 13.8365 43.7263 13.9429 43.1006 13.9755L41.9629 14.0348L42.0262 12.8436C42.0624 12.1647 42.1811 11.3464 42.3022 10.9412C42.419 10.55 42.6387 9.92672 42.7904 9.55603C42.942 9.18534 43.2997 8.52066 43.5852 8.07897C43.8706 7.63727 44.4789 6.8901 44.937 6.41864C45.3951 5.94719 46.09 5.34991 46.4812 5.09126C46.8723 4.83272 47.4385 4.49858 47.7394 4.34879C48.0403 4.1989 48.6073 3.9688 48.9994 3.8374C49.3915 3.70589 50.0808 3.5317 50.5312 3.45019C50.9815 3.36879 51.665 3.29767 52.05 3.2922L52.75 3.28235L52.6873 4.23971ZM35.993 5.00559C36.5 5.53219 37.1011 6.27006 37.3287 6.64546C37.5562 7.02085 37.857 7.61167 37.9969 7.9584C38.1369 8.30512 38.3369 8.97658 38.4415 9.45045C38.5891 10.1196 38.6189 10.6207 38.5751 11.6934C38.534 12.694 38.4513 13.2858 38.275 13.8406C38.1409 14.2618 37.8835 14.9019 37.7027 15.2629C37.5221 15.624 37.1627 16.2148 36.9041 16.5759C36.6456 16.937 36.1102 17.5505 35.7145 17.9394L34.9949 18.6464L34.5426 18.2129C34.2938 17.9745 33.798 17.4155 33.4409 16.9709C33.0839 16.5261 32.5942 15.7694 32.3527 15.2891C32.1112 14.8089 31.8117 14.0404 31.6871 13.5813C31.5155 12.9497 31.4583 12.4002 31.4517 11.3241C31.4446 10.169 31.4881 9.74444 31.6831 9.064C31.8151 8.60327 32.0447 7.95129 32.1934 7.61506C32.3421 7.27895 32.6512 6.72051 32.8802 6.374C33.1093 6.02761 33.6602 5.3626 34.1046 4.89618C34.5489 4.42976 34.9483 4.04824 34.9918 4.04824C35.0355 4.04824 35.4859 4.4791 35.993 5.00559ZM25.4188 15.4544C25.8803 15.9508 26.4822 16.7168 26.7564 17.1564C27.0306 17.596 27.3937 18.3592 27.5634 18.8523C27.733 19.3454 27.9292 20.1181 27.9994 20.5694C28.0715 21.033 28.0997 21.8185 28.064 22.3747C28.0293 22.9163 27.9188 23.6795 27.8184 24.0706C27.7179 24.4618 27.4705 25.1432 27.2687 25.5849C27.0668 26.0266 26.6831 26.6912 26.416 27.0619C26.149 27.4326 25.6035 28.0559 25.204 28.4471L24.4775 29.1583L23.5198 28.1735C22.9931 27.632 22.3582 26.8442 22.1089 26.423C21.8598 26.0017 21.4986 25.1893 21.3065 24.6177C21.0132 23.7447 20.9486 23.3645 20.9034 22.2428C20.8586 21.1278 20.8889 20.7373 21.0875 19.8782C21.2182 19.3122 21.4947 18.4955 21.7018 18.0633C21.9088 17.6312 22.2367 17.0475 22.4303 16.7661C22.6239 16.4846 23.1483 15.8714 23.5956 15.4031C24.043 14.9349 24.4475 14.5518 24.4944 14.5518C24.5414 14.5518 24.9575 14.958 25.4188 15.4544ZM46.7672 17.6108C47.2554 17.7279 47.9372 17.9486 48.2822 18.1012C48.6273 18.2537 49.2371 18.5977 49.6375 18.8654C50.0378 19.1332 50.7346 19.7274 51.1859 20.1859L52.0065 21.0197L51.1582 21.8364C50.6916 22.2857 49.9464 22.8905 49.502 23.1804C49.0578 23.4705 48.3388 23.8395 47.9042 24.0007C47.4697 24.1617 46.664 24.372 46.1139 24.4681C45.4366 24.5863 44.8132 24.6219 44.1835 24.5783C43.672 24.5429 42.8779 24.4177 42.4187 24.3001C41.9596 24.1825 41.1911 23.8888 40.7109 23.6473C40.2306 23.4058 39.4739 22.9161 39.0291 22.5591C38.5845 22.202 38.0255 21.7062 37.787 21.4573L37.3534 21.0048L38.1152 20.2323C38.5343 19.8074 39.2709 19.1963 39.7523 18.8744C40.2338 18.5525 40.8984 18.1821 41.2294 18.0511C41.5604 17.9201 42.1758 17.722 42.5971 17.6107C43.1204 17.4725 43.7614 17.4069 44.6212 17.4033C45.5061 17.3995 46.1429 17.4611 46.7672 17.6108ZM36.4865 24.8018C36.47 24.8182 36.1642 24.7839 35.8067 24.7253C35.4494 24.6668 34.6834 24.6186 34.1046 24.6183C33.5258 24.618 32.6204 24.6929 32.0928 24.785C31.5652 24.877 31.1112 24.9301 31.0842 24.903C31.0572 24.876 31.0978 24.5668 31.1745 24.216C31.2512 23.8652 31.3169 22.889 31.3207 22.0465C31.3246 21.204 31.2901 20.2685 31.2442 19.9677C31.1608 19.4206 31.1608 19.4206 33.8386 22.0963C35.3114 23.5679 36.5029 24.7853 36.4865 24.8018ZM15.702 26.97C15.9753 27.331 16.3599 27.9464 16.5568 28.3377C16.7537 28.7288 17.0177 29.3823 17.1434 29.79C17.2692 30.1977 17.4238 30.9469 17.4869 31.4551C17.5692 32.1175 17.5669 32.6665 17.4785 33.3946C17.4107 33.953 17.2197 34.8136 17.0541 35.307C16.8884 35.8002 16.5404 36.5615 16.2808 36.9986C16.0211 37.4357 15.3865 38.2312 14.8706 38.7664L13.9325 39.7395L12.9471 38.7107C12.3469 38.0839 11.7824 37.3632 11.5029 36.8665C11.2505 36.4181 10.921 35.6819 10.7708 35.2306C10.6206 34.7793 10.4428 33.9682 10.3756 33.4284C10.3085 32.8884 10.2854 32.1253 10.3244 31.7325C10.3633 31.3396 10.4637 30.711 10.5475 30.3354C10.6313 29.9599 10.8295 29.3445 10.9879 28.9678C11.1463 28.5912 11.4897 27.9522 11.7511 27.5478C12.0125 27.1435 12.6063 26.4152 13.0706 25.9292L13.9149 25.0455L14.5601 25.6795C14.9149 26.0282 15.4287 26.609 15.702 26.97ZM35.54 28.0158C35.9311 28.0785 36.6546 28.2682 37.1477 28.4374C37.6408 28.6066 38.4067 28.9709 38.8496 29.247C39.2926 29.5231 40.0708 30.1442 40.5791 30.6271L41.5029 31.5051L40.6035 32.3835C40.1087 32.8667 39.4056 33.4546 39.0411 33.6903C38.6765 33.926 38.0227 34.2666 37.5882 34.4473C37.1537 34.628 36.3826 34.8599 35.8746 34.9627C35.1898 35.1012 34.6241 35.1355 33.6863 35.0956C32.6487 35.0514 32.2352 34.9791 31.3823 34.693C30.8107 34.501 29.9983 34.1402 29.577 33.8911C29.1558 33.6418 28.368 33.0069 27.8265 32.4802L26.8417 31.5225L27.5529 30.796C27.9441 30.3965 28.5674 29.851 28.9381 29.584C29.3088 29.3169 29.9961 28.9209 30.4655 28.7041C30.935 28.4872 31.7395 28.221 32.2533 28.1126C32.7672 28.0042 33.5569 27.9123 34.0082 27.9086C34.4595 27.9047 35.1488 27.953 35.54 28.0158ZM25.8672 35.3117C25.8472 35.3316 25.3707 35.292 24.8082 35.2236C24.2185 35.1519 23.3901 35.1313 22.8518 35.1747C22.3384 35.2163 21.5987 35.3161 21.2082 35.3967C20.8178 35.4772 20.489 35.5338 20.4776 35.5224C20.4662 35.511 20.5308 35.1576 20.621 34.7371C20.7112 34.3165 20.7938 33.4062 20.8045 32.7141C20.8153 32.0221 20.7845 31.1359 20.7361 30.7447C20.6481 30.0335 20.6481 30.0335 23.2758 32.6544C24.721 34.0959 25.8871 35.2917 25.8672 35.3117ZM25.8023 38.7456C26.2537 38.8596 27.0168 39.1422 27.4982 39.3737C27.9796 39.6052 28.6689 40.0197 29.03 40.2947C29.391 40.5698 29.9728 41.0862 30.3227 41.4422L30.9589 42.0896L29.9799 43.0092C29.4414 43.5151 28.6628 44.1287 28.2496 44.3731C27.8363 44.6174 27.2274 44.9244 26.8965 45.0551C26.5655 45.186 25.9747 45.3761 25.5835 45.4776C25.0964 45.6039 24.4586 45.6597 23.5594 45.6546C22.6086 45.6491 22.0172 45.586 21.4157 45.4259C20.9587 45.3043 20.2523 45.054 19.846 44.8698C19.4396 44.6855 18.8041 44.3165 18.4339 44.0496C18.0635 43.7828 17.4262 43.2247 17.0174 42.8093L16.2743 42.0542L17.2405 41.1228C17.7719 40.6105 18.5628 39.9798 18.998 39.7213C19.4331 39.4628 20.2023 39.1088 20.7071 38.9349C21.212 38.7608 21.9865 38.5745 22.4281 38.5207C22.8698 38.467 23.625 38.449 24.1065 38.4807C24.5879 38.5124 25.351 38.6316 25.8023 38.7456Z" fill="#EBEDF4"/>
</svg>
