<svg width="68" height="64" viewBox="0 0 68 64" fill="none" xmlns="http://www.w3.org/2000/svg">
<path fill-rule="evenodd" clip-rule="evenodd" d="M28.6998 1.12375C27.8842 1.18108 26.4624 1.31765 25.5404 1.42713C24.6183 1.53648 23.0225 1.76619 21.9941 1.93744C20.9656 2.10868 19.3862 2.41686 18.4841 2.62215C17.5822 2.82731 16.1024 3.19638 15.1957 3.44217C14.2892 3.68796 12.6769 4.17548 11.6131 4.52544C10.5492 4.87539 7.89136 5.79843 5.70683 6.57655C3.01628 7.5349 1.63399 8.09039 1.42211 8.29834C1.25009 8.4673 1.07122 8.80473 1.02467 9.04824C0.967671 9.34643 1.00919 9.6336 1.15182 9.9271C1.28916 10.2097 1.52657 10.4297 1.82704 10.553C2.12003 10.6731 2.43958 10.7112 2.69621 10.6564C2.9193 10.6087 4.84282 9.94394 6.97061 9.17923C9.0984 8.4144 11.4196 7.59388 12.1289 7.35594C12.8381 7.11787 14.2309 6.6916 15.2238 6.40872C16.2168 6.12573 17.8782 5.70287 18.9157 5.46885C19.9533 5.23471 21.6652 4.90235 22.72 4.73009C23.7747 4.55771 25.4211 4.32787 26.3786 4.21915C27.3361 4.1103 29.4282 3.96235 31.0275 3.89033C33.016 3.8006 34.7897 3.79997 36.6371 3.88806C38.1231 3.95906 39.8414 4.10436 40.4558 4.21105C41.0701 4.31774 42.0276 4.51873 42.5836 4.65782C43.1395 4.79679 44.1166 5.0922 44.755 5.31419C45.3933 5.53619 46.6072 6.06244 47.4525 6.48352C48.2978 6.90473 49.0135 7.32025 49.043 7.40694C49.0724 7.49364 49.0098 7.56452 48.9038 7.56452C48.7977 7.56452 48.5609 7.73981 48.3772 7.95396C48.1301 8.24215 48.0434 8.48629 48.0434 8.89345C48.0434 9.33896 48.1188 9.51754 48.4402 9.83294C48.8369 10.2224 48.8369 10.2224 54.8311 10.2224C58.5449 10.2224 60.7968 10.2677 60.7502 10.3415C60.709 10.407 60.1398 10.8266 59.4853 11.2739C58.8308 11.721 57.9328 12.2663 57.4894 12.4855C57.0462 12.7046 56.2918 12.9737 55.813 13.0834C55.3343 13.193 54.4556 13.2834 53.8605 13.284C53.1739 13.2847 52.3465 13.1817 51.5965 13.0019C50.4438 12.7256 50.4025 12.7242 49.9265 12.9458C49.6317 13.0831 49.3596 13.3351 49.2397 13.5822C49.1078 13.8537 49.0698 14.1422 49.1268 14.4405C49.1793 14.7152 49.364 15.0149 49.6013 15.2109C49.8151 15.3875 50.289 15.619 50.6545 15.7256C51.0199 15.8321 51.6944 15.9834 52.1531 16.0618C52.6248 16.1425 53.6222 16.1769 54.4485 16.1411L55.9097 16.0778L55.9011 16.7888C55.8964 17.1799 55.5047 25.1317 55.0306 34.4596L54.1688 51.4193L52.9383 51.4983C51.8993 51.5648 51.5527 51.6475 50.7102 52.0295C50.0028 52.3503 49.489 52.7014 48.9436 53.2366C48.5207 53.6517 48.1161 54.1425 48.0445 54.3273C47.9729 54.512 47.9144 54.836 47.9144 55.0473C47.9144 55.3153 48.0468 55.5614 48.3528 55.8617C48.7239 56.2259 48.8821 56.2921 49.3822 56.2921C49.9304 56.2921 50.0212 56.2422 50.6405 55.6009C51.0077 55.2207 51.5165 54.8121 51.7712 54.6929C52.0261 54.5738 52.4521 54.4369 52.718 54.3886C52.9841 54.3404 53.2016 54.3259 53.2016 54.3561C53.2016 54.3865 53.0333 54.6494 52.8276 54.9403C52.622 55.2313 52.2882 55.6221 52.0861 55.809C51.8839 55.9956 51.3778 56.3493 50.9613 56.5948C50.5447 56.8402 49.7612 57.1857 49.22 57.3627C48.6787 57.5395 48.1417 57.6843 48.0267 57.6843C47.8613 57.6843 47.6656 57.0828 47.0901 54.8049C46.6899 53.2213 46.2721 51.7218 46.1617 51.4727C46.0512 51.2235 45.7967 50.9246 45.5959 50.8082C45.3952 50.6918 45.0659 50.5969 44.8641 50.5971C44.6622 50.5974 44.3116 50.7085 44.0849 50.8442C43.8142 51.0062 43.6227 51.2556 43.5268 51.5714C43.3972 51.998 43.4478 52.3141 43.9764 54.3778C44.3041 55.6568 44.5553 56.7165 44.5347 56.7326C44.5139 56.7487 44.1619 56.5673 43.7523 56.3296C43.3373 56.0888 42.8647 55.6854 42.6848 55.4188C42.5074 55.1555 42.3573 54.7744 42.3513 54.5719C42.3454 54.3694 42.3825 53.4348 42.4339 52.4951C42.5075 51.1465 42.4852 50.613 42.3284 49.9629C42.219 49.5101 41.4007 47.1222 40.5097 44.6565C39.6189 42.1911 38.9088 40.155 38.9322 40.1322C38.9554 40.1094 40.1009 40.1727 41.4778 40.273C42.8546 40.3732 44.6486 40.4912 45.4642 40.535C46.8208 40.6079 46.9832 40.5924 47.3695 40.3531C47.6018 40.2093 47.8485 39.9455 47.9176 39.767C47.9867 39.5885 48.0434 39.2696 48.0434 39.0583C48.0434 38.7923 47.9121 38.5454 47.6165 38.2553C47.3055 37.95 47.0341 37.8167 46.6171 37.7643C46.3022 37.7248 44.5938 37.5992 42.8206 37.4851C40.7445 37.3516 39.2591 37.1936 38.6485 37.0413C38.127 36.9112 37.3772 36.6233 36.9822 36.4015C36.5872 36.1797 35.9357 35.676 35.5345 35.2823C35.1334 34.8885 34.6258 34.2575 34.4068 33.8802C34.1877 33.5028 33.8897 32.8456 33.7444 32.4199C33.599 31.9942 33.4436 31.1969 33.399 30.648C33.3425 29.9532 33.3789 29.3684 33.5187 28.7226C33.6291 28.2125 33.8692 27.4743 34.0521 27.0821C34.2349 26.69 34.6272 26.0606 34.9237 25.6834C35.2201 25.3063 35.8464 24.7346 36.3152 24.4129C36.8144 24.0705 38.4942 23.2511 40.3682 22.4359C42.3542 21.572 43.7081 20.9079 43.9361 20.6859C44.2295 20.4004 44.3036 20.2154 44.3036 19.7703C44.3036 19.3397 44.2227 19.1245 43.949 18.8264C43.725 18.5825 43.4213 18.4133 43.1244 18.3671C42.7234 18.3046 42.2415 18.4745 39.836 19.5268C38.2858 20.2049 36.6116 20.9597 36.1155 21.2038C35.6194 21.4479 35.0101 21.7943 34.7614 21.9737C34.5128 22.153 34.0193 22.5548 33.6647 22.8662C33.31 23.1778 32.7878 23.7135 32.5041 24.0564C31.9882 24.6803 31.9882 24.6803 29.538 25.4692C28.1905 25.903 26.3335 26.5547 25.4114 26.9173C24.4894 27.2799 22.6324 28.1108 21.2848 28.7638C19.9372 29.4167 18.1803 30.3389 17.3806 30.8131C16.581 31.2872 15.3991 32.0427 14.7542 32.492C14.1094 32.9412 13.1387 33.6841 12.5974 34.1429C11.8527 34.7741 11.5847 35.0886 11.4962 35.4355C11.4137 35.7594 11.4295 36.0129 11.5504 36.2992C11.6445 36.5221 11.9001 36.8114 12.1186 36.9422C12.337 37.0728 12.6986 37.18 12.9221 37.1802C13.2066 37.1806 13.5546 37.0097 14.0827 36.6107C14.4976 36.2971 15.3115 35.6849 15.8916 35.2501C16.4716 34.8154 17.5452 34.0919 18.2773 33.6426C19.0094 33.1932 20.5949 32.3296 21.8006 31.7235C23.0064 31.1174 24.5732 30.379 25.2825 30.0828C25.9917 29.7867 27.4894 29.2174 28.6107 28.8178C30.6494 28.0913 30.6494 28.0913 30.5639 28.4738C30.5168 28.684 30.4807 29.4377 30.4837 30.1487C30.4868 30.8596 30.5773 31.8142 30.685 32.2701C30.7928 32.726 30.9949 33.3935 31.1343 33.7535C31.3875 34.4078 31.3875 34.4078 31.0256 35.4462C30.8266 36.0173 30.4027 37.1396 30.0838 37.9401C29.765 38.7406 29.1438 40.2215 28.7034 41.2308C28.2632 42.2402 27.3901 44.0912 26.7634 45.3442C26.1367 46.5972 25.2072 48.3343 24.6979 49.2044C24.1885 50.0745 23.3621 51.3845 22.8613 52.1154C22.3604 52.8463 21.53 53.9854 21.0158 54.6467C20.5017 55.308 19.5105 56.4037 18.8131 57.0817C18.1157 57.7596 17.1679 58.5824 16.7068 58.91C16.2458 59.2377 15.4066 59.7435 14.8417 60.0338C14.0385 60.4468 13.7608 60.664 13.5669 61.0309C13.3536 61.4341 13.3398 61.5685 13.4685 61.99C13.5508 62.2596 13.7696 62.5971 13.9548 62.74C14.1632 62.901 14.4823 63 14.7927 63C15.1196 63 15.6408 62.8279 16.2906 62.5054C16.8386 62.2334 17.7106 61.7174 18.2283 61.3587C18.7459 61.0001 19.7838 60.1263 20.5347 59.4169C21.2856 58.7077 22.3893 57.5292 22.9874 56.7983C23.5855 56.0674 24.5274 54.8144 25.0804 54.0139C25.6334 53.2134 26.5526 51.7737 27.1232 50.8146C27.6937 49.8553 28.6837 48.0301 29.3232 46.7584C29.9627 45.4866 30.9174 43.4522 31.4447 42.2373C31.972 41.0224 32.6239 39.4589 32.8931 38.7628C33.1625 38.0667 33.3982 37.4779 33.4169 37.4544C33.4356 37.4308 33.8473 37.7085 34.3315 38.0714C34.8159 38.4344 35.2493 38.7953 35.2946 38.8735C35.3398 38.9519 36.2824 41.5228 37.3888 44.5866C38.4954 47.6504 39.4649 50.498 39.5434 50.9143C39.6506 51.4835 39.6465 51.9644 39.5268 52.8515C39.4392 53.5007 39.4023 54.3966 39.4448 54.8428C39.4891 55.3081 39.6622 55.9446 39.8511 56.3366C40.0322 56.7122 40.4185 57.2851 40.7096 57.6096C41.0178 57.9532 41.7397 58.489 42.4385 58.8926C43.0984 59.2738 44.0636 59.7823 44.5834 60.0227C45.1034 60.263 45.9129 60.5186 46.3825 60.5906C46.852 60.6626 47.5194 60.6877 47.8655 60.6463C48.2115 60.6049 48.988 60.4281 49.5908 60.2533C50.1937 60.0786 51.0553 59.7718 51.5053 59.5717C51.9555 59.3716 52.6891 58.9519 53.1357 58.6392C53.5822 58.3265 54.2783 57.7131 54.6824 57.2762C55.1623 56.7577 55.638 56.0397 56.053 55.2081C56.4733 54.3661 56.7533 53.5941 56.8796 52.93C57.0038 52.2768 57.3861 45.654 57.9732 33.9895C58.4695 24.1248 58.8757 15.8278 58.8757 15.5519C58.8757 15.072 58.9107 15.0294 59.6817 14.5712C60.1251 14.3076 61.8346 13.162 63.481 12.0252C65.1273 10.8882 66.5926 9.81054 66.7372 9.63018C66.8817 9.44983 67 9.13633 67 8.93332C67 8.73043 66.9119 8.39744 66.8044 8.19317C66.6968 7.98902 66.4385 7.73551 66.2305 7.62995C65.9086 7.46655 64.9782 7.43795 59.9947 7.43795H54.1372L53.3147 6.79006C52.8625 6.43366 52.0861 5.87386 51.5897 5.54593C51.0932 5.21813 50.2227 4.69681 49.6553 4.38761C49.0879 4.07841 48.1559 3.61695 47.5844 3.3623C47.0129 3.10766 45.8427 2.66873 44.9842 2.38712C44.1258 2.10551 42.7075 1.7343 41.8324 1.5623C40.9574 1.39029 39.461 1.18956 38.507 1.11628C37.5531 1.04313 35.2899 0.991235 33.4777 1.00123C31.6656 1.01111 29.5155 1.06629 28.6998 1.12375ZM49.4169 25.5369C49.1744 25.7458 48.9467 26.0673 48.9108 26.2513C48.8751 26.4352 48.8949 26.7535 48.9547 26.9587C49.0147 27.1639 49.3216 27.6256 49.6366 27.9846C49.9518 28.3437 50.5223 28.9651 50.9045 29.3653C51.557 30.0485 51.6362 30.0931 52.1973 30.0931C52.6505 30.0931 52.8898 30.0147 53.1873 29.7691C53.4282 29.5701 53.6129 29.2714 53.6656 28.9955C53.7229 28.6963 53.6852 28.4134 53.5532 28.1489C53.4441 27.9303 52.9131 27.2675 52.3735 26.6758C51.8338 26.0841 51.2055 25.5004 50.9771 25.3785C50.7489 25.2567 50.4035 25.1571 50.2098 25.1571C50.0025 25.1571 49.6766 25.3131 49.4169 25.5369Z" fill="#EBEDF4" stroke="#EBEDF4" stroke-width="0.8"/>
</svg>
