<svg width="20" height="20" viewBox="0 0 20 20" fill="none" xmlns="http://www.w3.org/2000/svg">
<path fill-rule="evenodd" clip-rule="evenodd" d="M0 10C0 7.34784 1.05357 4.8043 2.92893 2.92893C4.8043 1.05357 7.34784 0 10 0C12.6522 0 15.1957 1.05357 17.0711 2.92893C18.9464 4.8043 20 7.34784 20 10C20 12.6522 18.9464 15.1957 17.0711 17.0711C15.1957 18.9464 12.6522 20 10 20C7.34784 20 4.8043 18.9464 2.92893 17.0711C1.05357 15.1957 0 12.6522 0 10ZM10.8824 4.11765C10.8824 3.88363 10.7894 3.6592 10.6239 3.49373C10.4584 3.32826 10.234 3.23529 10 3.23529C9.76599 3.23529 9.54156 3.32826 9.37608 3.49373C9.21061 3.6592 9.11765 3.88363 9.11765 4.11765V10C9.11759 10.1496 9.15556 10.2968 9.228 10.4276C9.30044 10.5585 9.40497 10.6688 9.53176 10.7482L13.0612 12.9541C13.2596 13.0783 13.4993 13.1186 13.7274 13.0661C13.8404 13.0401 13.9471 12.9921 14.0415 12.9248C14.1359 12.8576 14.2162 12.7724 14.2776 12.6741C14.3391 12.5759 14.3807 12.4664 14.3999 12.3521C14.4191 12.2378 14.4156 12.1209 14.3896 12.0079C14.3636 11.8949 14.3156 11.7882 14.2483 11.6938C14.1811 11.5994 14.0959 11.5191 13.9976 11.4576L10.8824 9.51059V4.11765Z" fill="#1E4475"/>
</svg>
