<svg width="56" height="56" viewBox="0 0 56 56" fill="none" xmlns="http://www.w3.org/2000/svg">
<path fill-rule="evenodd" clip-rule="evenodd" d="M4.21326 0.17737C3.86756 0.27027 3.27895 0.509405 2.90537 0.708625C2.53167 0.907846 1.94119 1.36943 1.59327 1.73437C1.24524 2.09932 0.822655 2.67002 0.654297 3.0024C0.485822 3.3349 0.269746 3.90771 0.174075 4.27522C0.0228678 4.85561 0 7.68099 0 25.727C0 43.9009 0.0221676 46.5954 0.176408 47.188C0.273479 47.5607 1.00665 49.1604 1.80562 50.743C2.89312 52.8971 3.39026 53.7574 3.78367 54.1663C4.07267 54.4667 4.55149 54.8792 4.84761 55.083C5.14384 55.2868 5.68368 55.5663 6.04735 55.704C6.70864 55.9543 6.70864 55.9543 27.6513 55.9902C43.1867 56.0168 48.7596 55.9912 49.2356 55.891C49.5885 55.8166 50.2105 55.5985 50.6179 55.406C51.074 55.1906 51.6193 54.7953 52.0375 54.377C52.6348 53.7795 52.8916 53.3491 54.1719 50.7996C54.9723 49.2057 55.7116 47.6162 55.8149 47.2675C55.9844 46.6952 56.0023 44.6058 55.9998 25.7349C55.9979 12.0677 55.956 4.65907 55.8788 4.32412C55.8139 4.04239 55.6225 3.5172 55.4534 3.15704C55.2615 2.74786 54.8361 2.19198 54.3202 1.67578C53.8058 1.16122 53.252 0.737102 52.8524 0.551303C52.4995 0.387211 51.9325 0.194526 51.5925 0.122984C51.1491 0.0296181 44.4459 -0.00492746 27.9081 0.000557819C8.15036 0.00709347 4.7517 0.032419 4.21326 0.17737ZM51.1788 3.91903C51.4007 4.0243 51.7236 4.296 51.8964 4.52264C52.2107 4.93474 52.2107 4.93474 52.2413 19.2625L52.2718 33.5903L46.7577 33.6353C41.9471 33.6747 41.1542 33.7063 40.5435 33.8839C40.1585 33.9958 39.4194 34.2911 38.901 34.5399C38.3828 34.7889 37.5837 35.2858 37.1255 35.6445C36.6673 36.0031 35.9992 36.6715 35.6406 37.1298C35.2821 37.5881 34.7853 38.3874 34.5364 38.9059C34.2877 39.4244 33.9925 40.1637 33.8806 40.5489C33.7031 41.1597 33.6714 41.9528 33.6321 46.7636L33.5871 52.278H28.0013H22.4155L22.3705 46.7636C22.3311 41.9528 22.2995 41.1597 22.122 40.5489C22.0101 40.1637 21.7149 39.4244 21.4661 38.9059C21.2173 38.3874 20.7205 37.5881 20.362 37.1298C20.0034 36.6715 19.3352 36.0031 18.8771 35.6445C18.4189 35.2858 17.6198 34.7889 17.1016 34.5399C16.5832 34.2911 15.8441 33.9958 15.459 33.8839C14.8484 33.7063 14.0555 33.6747 9.24486 33.6353L3.73082 33.5903L3.76127 19.2625C3.79184 4.93474 3.79184 4.93474 4.10452 4.52474C4.27638 4.29926 4.59139 4.02885 4.80455 3.92381C5.15912 3.74898 7.12003 3.73265 27.9837 3.73019C48.8736 3.72774 50.809 3.7435 51.1788 3.91903ZM18.6927 7.6978C18.2252 7.82023 17.4639 8.1183 17.001 8.36C16.4414 8.65212 15.8648 9.09398 15.2817 9.67728C14.6993 10.2598 14.2569 10.8375 13.9659 11.3952C13.7247 11.8573 13.4239 12.6404 13.2973 13.1352C13.0894 13.9484 13.0673 14.4369 13.0673 18.2076V22.3801L11.792 22.4197C10.7248 22.4527 10.4642 22.4984 10.195 22.6998C10.018 22.8321 9.76498 23.0854 9.63268 23.2627C9.45382 23.5023 9.3921 23.7602 9.3921 24.2681C9.3921 24.776 9.45382 25.034 9.63268 25.2736C9.76498 25.4508 10.0182 25.7041 10.1954 25.8364C10.5175 26.077 10.5249 26.0771 28.0013 26.0771C45.4777 26.0771 45.4851 26.077 45.8072 25.8364C45.9844 25.7041 46.2376 25.4508 46.3699 25.2736C46.5488 25.034 46.6105 24.776 46.6105 24.2681C46.6105 23.7602 46.5488 23.5023 46.3699 23.2627C46.2376 23.0854 45.9845 22.8321 45.8075 22.6998C45.5384 22.4984 45.2777 22.4527 44.2105 22.4197L42.9353 22.3801L42.9333 18.2766C42.9317 15.1289 42.8914 13.9825 42.7604 13.3559C42.6664 12.9066 42.3704 12.0943 42.1025 11.5509C41.7286 10.7921 41.4101 10.3583 40.7295 9.68114C40.1447 9.09923 39.558 8.65049 39.0035 8.36105C38.5416 8.11982 37.7587 7.81894 37.264 7.69231C36.4082 7.47337 35.9544 7.46252 27.9535 7.46859C20.0635 7.47465 19.4899 7.48878 18.6927 7.6978ZM36.9951 11.561C37.3536 11.7291 37.8461 12.0659 38.0896 12.3094C38.333 12.553 38.6697 13.0456 38.8378 13.4042C39.1435 14.0562 39.1435 14.0562 39.1781 18.2285L39.2128 22.4008H28.0068H16.8008V18.454C16.8008 15.3116 16.8359 14.3887 16.9732 13.9262C17.0681 13.6067 17.3047 13.1051 17.4992 12.8115C17.6935 12.518 18.0648 12.1306 18.3243 11.9508C18.5836 11.7709 19.0689 11.5287 19.4026 11.4126C19.9688 11.2154 20.5547 11.2031 28.1763 11.2282C36.3433 11.2552 36.3433 11.2552 36.9951 11.561ZM21.6368 15.0909C21.4412 15.1788 21.1414 15.4167 20.9706 15.6197C20.7999 15.8227 20.6261 16.171 20.5842 16.3937C20.5424 16.6165 20.543 16.9838 20.5854 17.2097C20.6277 17.4358 20.8222 17.8028 21.0175 18.0253C21.2128 18.2477 21.566 18.4878 21.8025 18.5586C22.0489 18.6325 22.8125 18.6705 23.592 18.6477C24.7446 18.6138 25.0006 18.5711 25.2734 18.3671C25.4503 18.2348 25.7033 17.9815 25.8356 17.8042C26.0145 17.5646 26.0762 17.3067 26.0762 16.7988C26.0762 16.2909 26.0145 16.033 25.8356 15.7934C25.7033 15.6161 25.4504 15.3628 25.2734 15.2305C24.994 15.0215 24.7569 14.986 23.4722 14.9605C22.4165 14.9396 21.8907 14.977 21.6368 15.0909ZM30.9706 15.0909C30.7749 15.1788 30.4752 15.4167 30.3044 15.6197C30.1337 15.8227 29.9599 16.171 29.918 16.3937C29.8762 16.6165 29.8768 16.9838 29.9191 17.2097C29.9615 17.4358 30.156 17.8028 30.3513 18.0253C30.5466 18.2477 30.8998 18.4878 31.1363 18.5586C31.3827 18.6325 32.1463 18.6705 32.9258 18.6477C34.0784 18.6138 34.3344 18.5711 34.6071 18.3671C34.784 18.2348 35.0371 17.9815 35.1694 17.8042C35.3482 17.5646 35.41 17.3067 35.41 16.7988C35.41 16.2909 35.3482 16.033 35.1694 15.7934C35.0371 15.6161 34.7841 15.3628 34.6071 15.2305C34.3277 15.0215 34.0906 14.986 32.806 14.9605C31.7503 14.9396 31.2245 14.977 30.9706 15.0909ZM14.1408 37.4684C14.4808 37.5393 15.0814 37.7493 15.4755 37.9351C15.8695 38.1209 16.4546 38.5091 16.7757 38.7978C17.0968 39.0866 17.5223 39.5767 17.7213 39.8869C17.9204 40.1972 18.1998 40.7619 18.3422 41.1419C18.5932 41.8112 18.6025 41.9954 18.641 47.0554L18.6807 52.278H13.1398C9.49827 52.278 7.48626 52.2353 7.27042 52.1535C7.08981 52.0851 6.81831 51.9144 6.66711 51.7742C6.5159 51.6342 5.79405 50.325 5.06287 48.8653L3.73351 46.2112V41.7752V37.3394H8.62801C11.7505 37.3394 13.7463 37.3861 14.1408 37.4684ZM52.2691 41.7657V46.1918L50.9411 48.8557C50.2108 50.3207 49.4889 51.6342 49.3369 51.7742C49.185 51.9144 48.9128 52.0851 48.7322 52.1535C48.5163 52.2353 46.5063 52.278 42.8694 52.278H37.3351V47.3701C37.3351 43.3451 37.3677 42.3184 37.5169 41.6624C37.6169 41.2224 37.8827 40.5555 38.1074 40.1804C38.3321 39.8053 38.723 39.2863 38.9758 39.027C39.2288 38.7677 39.7331 38.3752 40.0968 38.1547C40.4605 37.9343 41.1034 37.6636 41.5258 37.5533C42.1915 37.3796 42.9569 37.352 47.2813 37.3462L52.2691 37.3394V41.7657Z" fill="#EBEDF4"/>
</svg>
